<svg width="528" height="350" viewBox="0 0 528 350" fill="none" xmlns="http://www.w3.org/2000/svg">
<g clip-path="url(#clip0_1181_2650)">
<path d="M113.349 204.503C88.6634 180.201 78.2374 154.849 83.9907 133.117C91.374 105.228 124.174 85.9448 173.981 80.2124L174.165 81.8122C125.052 87.4644 92.7517 106.315 85.5472 133.529C79.948 154.679 90.2227 179.477 114.479 203.356L113.349 204.503Z" fill="#F0F0F0"/>
<path d="M351.523 290.764C320.714 290.764 287.234 286.186 253.98 277.382C212.856 266.495 175.15 250.062 144.938 229.859L145.832 228.521C175.899 248.626 213.438 264.984 254.392 275.826C291.401 285.624 328.688 290.164 362.207 288.966L362.266 290.574C358.726 290.701 355.145 290.765 351.523 290.764Z" fill="#F0F0F0"/>
<path d="M422.203 280.64L421.687 279.115C449.242 269.798 466.476 254.791 471.527 235.713C477.947 211.46 463.999 183.317 432.251 156.467C400.342 129.48 354.327 107.088 302.683 93.4164L303.095 91.8599C354.965 105.592 401.203 128.1 433.291 155.238C465.54 182.512 479.672 211.238 473.084 236.125C467.888 255.75 450.294 271.142 422.203 280.64Z" fill="#F0F0F0"/>
<path d="M169.189 291.437C108.65 264.588 62.0013 229.754 37.835 193.352L39.1761 192.461C63.1754 228.611 109.58 263.239 169.841 289.966L169.189 291.437Z" fill="#F0F0F0"/>
<path d="M382.036 337.952C375.792 337.952 369.441 337.812 362.983 337.533L363.053 335.925C411.243 338.011 453.762 332.244 486.022 319.244L486.624 320.738C458.483 332.077 422.615 337.952 382.036 337.952Z" fill="#F0F0F0"/>
<path d="M346.911 81.656C336.905 78.3982 326.613 75.365 316.321 72.6403C257.094 56.961 198.874 51.394 147.952 56.5443L147.79 54.9422C198.902 49.775 257.322 55.3553 316.733 71.0837C327.054 73.8163 337.375 76.8582 347.409 80.1254L346.911 81.656Z" fill="#F0F0F0"/>
<path d="M75.515 206.917C50.8294 182.616 40.4034 157.264 46.1567 135.532C53.54 107.643 86.3404 88.3596 136.147 82.6272L136.331 84.227C87.2177 89.8792 54.9177 108.729 47.7132 135.944C42.114 157.093 52.3887 181.892 76.6447 205.771L75.515 206.917Z" fill="#F0F0F0"/>
<path d="M313.689 293.179C282.88 293.179 249.4 288.601 216.146 279.797C175.022 268.91 137.316 252.477 107.104 232.274L107.998 230.937C138.065 251.041 175.604 267.399 216.558 278.241C253.567 288.039 290.854 292.579 324.374 291.381L324.432 292.989C320.892 293.116 317.311 293.18 313.689 293.179Z" fill="#F0F0F0"/>
<path d="M384.369 283.055L383.853 281.53C411.408 272.213 428.642 257.206 433.693 238.128C440.113 213.876 426.165 185.732 394.417 158.882C362.508 131.895 316.493 109.503 264.849 95.8314L265.261 94.2749C317.131 108.007 363.369 130.515 395.457 157.653C427.706 184.927 441.838 213.653 435.25 238.54C430.054 258.165 412.46 273.558 384.369 283.055Z" fill="#F0F0F0"/>
<path d="M131.354 293.852C70.8156 267.003 24.1663 232.169 0 195.767L1.34114 194.876C25.3404 231.027 71.7448 265.654 132.006 292.381L131.354 293.852Z" fill="#F0F0F0"/>
<path d="M344.201 340.367C337.957 340.367 331.606 340.227 325.148 339.948L325.218 338.34C373.408 340.426 415.927 334.659 448.187 321.659L448.789 323.153C420.648 334.492 384.78 340.367 344.201 340.367Z" fill="#F0F0F0"/>
<path d="M309.076 84.071C299.07 80.8133 288.778 77.78 278.486 75.0553C219.259 59.376 161.039 53.8091 110.117 58.9594L109.955 57.3572C161.067 52.19 219.487 57.7703 278.898 73.4988C289.219 76.2314 299.54 79.2733 309.574 82.5404L309.076 84.071Z" fill="#F0F0F0"/>
<path d="M27.4412 163.795C39.0108 150.823 57.4663 142.917 74.1911 147.65C58.7618 158.569 47.6919 174.593 42.9402 192.888C41.1332 199.951 39.8587 207.994 33.9854 212.312C30.3309 214.999 25.4886 215.641 20.9943 215.029C16.4998 214.417 12.2501 212.669 8.0578 210.937L6.92969 211.035C10.1731 193.958 15.8716 176.767 27.4412 163.795Z" fill="#F2F2F2"/>
<path d="M74.1401 148.011C60.157 151.397 47.5962 159.102 38.2418 170.033C36.1862 172.35 34.5087 174.977 33.2712 177.817C32.1551 180.622 31.8105 183.675 32.2733 186.659C32.6489 189.449 33.3562 192.26 33.047 195.093C32.8672 196.541 32.3833 197.935 31.6272 199.182C30.871 200.43 29.8596 201.504 28.6594 202.333C25.7224 204.478 22.19 205.439 18.7029 206.26C14.8312 207.17 10.7953 208.055 7.63921 210.628C7.25681 210.94 6.79542 210.328 7.17725 210.017C12.6683 205.54 20.2996 206.115 26.3749 202.863C29.2097 201.346 31.6045 198.965 32.1867 195.698C32.6959 192.842 31.9689 189.942 31.5642 187.12C31.0701 184.216 31.2945 181.236 32.2178 178.439C33.3068 175.545 34.8803 172.858 36.8708 170.492C41.2672 165.095 46.4849 160.422 52.3328 156.646C58.983 152.298 66.3279 149.121 74.0497 147.25C74.5276 147.135 74.615 147.896 74.1401 148.011Z" fill="white"/>
<path d="M41.0468 166.336C39.4259 164.518 38.5042 162.182 38.4463 159.747C38.3883 157.312 39.1979 154.935 40.7304 153.042C41.0419 152.66 41.6502 153.125 41.3384 153.508C39.908 155.269 39.1541 157.483 39.2127 159.75C39.2713 162.018 40.1385 164.19 41.6579 165.874C41.9877 166.241 41.3747 166.7 41.0468 166.336Z" fill="white"/>
<path d="M31.8963 185.269C36.865 185.599 41.7755 184.044 45.6487 180.915C46.0322 180.604 46.4937 181.216 46.1107 181.526C42.0741 184.775 36.9606 186.383 31.7908 186.028C31.2981 185.994 31.4062 185.235 31.8963 185.269Z" fill="white"/>
<path d="M59.1554 153.299C59.6359 154.134 60.3162 154.836 61.135 155.342C61.9538 155.848 62.8856 156.144 63.8467 156.201C64.3396 156.229 64.231 156.987 63.7412 156.96C62.6797 156.891 61.651 156.564 60.7451 156.007C59.8392 155.449 59.0836 154.678 58.5443 153.761C58.4862 153.679 58.4616 153.578 58.4755 153.478C58.4893 153.379 58.5406 153.288 58.6188 153.225C58.7001 153.164 58.802 153.138 58.9025 153.152C59.0029 153.166 59.0938 153.219 59.1554 153.299Z" fill="white"/>
<path d="M97.9325 201.5C97.6242 201.491 97.316 201.482 97.0037 201.479C92.8585 201.384 88.7124 201.626 84.6063 202.202C84.2881 202.242 83.9663 202.286 83.6499 202.335C73.7722 203.829 64.2578 207.144 55.5903 212.112C52.1432 214.092 48.8516 216.331 45.7442 218.81C41.4529 222.234 37.0724 226.288 32.0484 228.043C31.5264 228.232 30.9931 228.389 30.4516 228.512L7.13668 212.403C7.10207 212.34 7.06354 212.282 7.02866 212.219L6.06836 211.618C6.21969 211.479 6.37964 211.338 6.53097 211.199C6.61842 211.118 6.71109 211.04 6.79851 210.959C6.85845 210.907 6.91869 210.854 6.96976 210.803C6.98964 210.785 7.00979 210.767 7.02602 210.755C7.0771 210.704 7.12996 210.662 7.17735 210.616C8.06923 209.826 8.96822 209.04 9.87431 208.259C9.87799 208.254 9.87799 208.254 9.88687 208.252C16.806 202.321 24.2811 196.916 32.339 192.817C32.5814 192.694 32.8273 192.565 33.0805 192.449C36.7228 190.622 40.5084 189.095 44.3995 187.885C46.5323 187.229 48.6969 186.681 50.885 186.244C56.541 185.125 62.3378 184.903 68.0629 185.585C79.4755 186.948 90.3254 191.945 97.3988 200.816C97.5795 201.044 97.7554 201.267 97.9325 201.5Z" fill="#F2F2F2"/>
<path d="M97.6756 201.759C84.4725 196.044 69.8042 194.634 55.7541 197.729C52.7176 198.342 49.7966 199.429 47.0988 200.952C44.5186 202.52 42.4054 204.75 40.9787 207.411C39.5985 209.865 38.471 212.535 36.5184 214.611C35.5031 215.659 34.2777 216.48 32.9227 217.021C31.5677 217.562 30.1137 217.81 28.6559 217.75C25.0197 217.694 21.6205 216.335 18.3424 214.89C14.7029 213.286 10.9478 211.563 6.87874 211.717C6.38571 211.736 6.38554 210.97 6.87782 210.951C13.9573 210.683 19.7045 215.736 26.5129 216.798C29.6899 217.293 33.0354 216.834 35.4671 214.576C37.5936 212.602 38.7587 209.849 40.1346 207.352C41.4884 204.736 43.4621 202.491 45.8834 200.814C48.4951 199.159 51.3693 197.961 54.3829 197.271C61.1428 195.608 68.1221 195.018 75.0651 195.524C82.9923 196.057 90.7699 197.942 98.0615 201.097C98.5127 201.293 98.1239 201.953 97.6756 201.759Z" fill="white"/>
<path d="M60.219 196.466C60.0197 194.038 60.6898 191.619 62.1097 189.639C63.5297 187.66 65.607 186.25 67.9706 185.661C68.4493 185.543 68.6545 186.282 68.1752 186.399C65.9731 186.944 64.0382 188.258 62.7198 190.103C61.4013 191.949 60.786 194.206 60.9851 196.465C61.0278 196.956 60.2615 196.955 60.219 196.466Z" fill="white"/>
<path d="M41.5149 206.074C45.2835 209.329 50.1404 211.044 55.1172 210.877C55.6103 210.86 55.6106 211.626 55.1181 211.643C49.9388 211.807 44.888 210.012 40.9739 206.616C40.601 206.292 41.1441 205.752 41.5149 206.074Z" fill="white"/>
<path d="M82.5274 196.96C82.4088 197.915 82.5294 198.885 82.8783 199.782C83.2272 200.68 83.7935 201.476 84.5263 202.101C84.9031 202.42 84.3596 202.96 83.9853 202.643C83.1788 201.95 82.5545 201.069 82.1668 200.078C81.7791 199.088 81.6399 198.017 81.7613 196.961C81.7644 196.86 81.8057 196.764 81.8768 196.693C81.9478 196.622 82.0433 196.58 82.1439 196.577C82.2453 196.578 82.3425 196.618 82.4143 196.69C82.4861 196.761 82.5268 196.858 82.5274 196.96Z" fill="white"/>
<path d="M480.78 270.132C474.243 254.026 459.518 240.377 442.176 239.213C453.038 254.683 458.078 273.496 456.404 292.323C455.732 299.582 454.229 307.586 458.31 313.627C460.849 317.385 465.193 319.617 469.632 320.552C474.071 321.486 478.661 321.268 483.191 321.046L484.221 321.517C486.905 304.344 487.316 286.237 480.78 270.132Z" fill="#F2F2F2"/>
<path d="M442.103 239.57C454.135 247.459 463.375 258.938 468.511 272.377C469.668 275.25 470.365 278.288 470.577 281.379C470.685 284.396 469.983 287.387 468.545 290.041C467.253 292.543 465.642 294.953 464.981 297.725C464.664 299.149 464.651 300.624 464.944 302.053C465.237 303.483 465.828 304.834 466.68 306.019C468.725 309.026 471.729 311.118 474.738 313.063C478.078 315.222 481.582 317.411 483.69 320.895C483.945 321.318 484.585 320.897 484.33 320.475C480.663 314.413 473.283 312.39 468.654 307.285C466.494 304.904 465.038 301.857 465.588 298.584C466.069 295.722 467.728 293.236 469.057 290.714C470.499 288.145 471.289 285.263 471.36 282.318C471.307 279.227 470.728 276.167 469.648 273.27C467.322 266.709 463.978 260.554 459.74 255.032C454.937 248.703 449.088 243.241 442.444 238.884C442.032 238.615 441.694 239.303 442.103 239.57Z" fill="white"/>
<path d="M467.112 267.952C469.25 266.784 470.903 264.895 471.776 262.62C472.649 260.346 472.685 257.836 471.878 255.537C471.713 255.073 470.984 255.307 471.149 255.772C471.904 257.911 471.87 260.25 471.053 262.366C470.236 264.482 468.689 266.236 466.692 267.312C466.258 267.546 466.681 268.185 467.112 267.952Z" fill="white"/>
<path d="M469.367 288.859C464.576 287.5 460.474 284.385 457.878 280.136C457.621 279.714 456.981 280.135 457.237 280.556C459.947 284.973 464.223 288.206 469.211 289.609C469.686 289.742 469.84 288.992 469.367 288.859Z" fill="white"/>
<path d="M454.438 249.587C453.705 250.212 452.829 250.644 451.887 250.846C450.946 251.048 449.969 251.012 449.045 250.743C448.571 250.604 448.418 251.355 448.889 251.493C449.912 251.786 450.99 251.823 452.031 251.603C453.072 251.382 454.042 250.91 454.859 250.228C454.941 250.17 454.998 250.083 455.019 249.985C455.039 249.886 455.021 249.783 454.969 249.698C454.913 249.613 454.825 249.554 454.726 249.533C454.627 249.513 454.523 249.532 454.438 249.587Z" fill="white"/>
<path d="M401.717 281.951C402.01 282.046 402.303 282.142 402.599 282.243C406.535 283.547 410.358 285.168 414.032 287.091C414.318 287.235 414.606 287.386 414.888 287.538C423.689 292.265 431.535 298.585 438.029 306.177C440.61 309.2 442.958 312.415 445.051 315.795C447.942 320.462 450.705 325.753 454.847 329.094C455.275 329.447 455.725 329.774 456.193 330.072L483.566 322.737C483.62 322.689 483.676 322.647 483.73 322.599L484.836 322.356C484.74 322.174 484.637 321.988 484.541 321.806C484.486 321.7 484.425 321.596 484.37 321.49C484.331 321.42 484.292 321.351 484.261 321.285C484.248 321.262 484.235 321.239 484.224 321.221C484.193 321.156 484.158 321.099 484.128 321.04C483.554 319.995 482.971 318.953 482.38 317.914C482.379 317.907 482.379 317.907 482.371 317.903C477.848 309.991 472.624 302.388 466.413 295.82C466.226 295.622 466.037 295.418 465.838 295.224C463.022 292.279 459.969 289.568 456.712 287.12C454.923 285.786 453.069 284.542 451.155 283.395C446.204 280.44 440.819 278.283 435.198 277.002C423.991 274.449 412.093 275.509 402.449 281.487C402.203 281.64 401.962 281.791 401.717 281.951Z" fill="#F2F2F2"/>
<path d="M401.872 282.282C416.228 281.336 430.517 284.938 442.709 292.576C445.363 294.174 447.748 296.18 449.778 298.52C451.681 300.864 452.922 303.675 453.371 306.66C453.846 309.435 454.01 312.329 455.152 314.941C455.756 316.269 456.634 317.454 457.728 318.419C458.823 319.384 460.109 320.107 461.502 320.54C464.945 321.709 468.604 321.572 472.176 321.313C476.143 321.025 480.259 320.664 484.04 322.177C484.498 322.36 484.755 321.639 484.298 321.456C477.721 318.824 470.609 321.652 463.84 320.363C460.682 319.762 457.685 318.205 456.154 315.261C454.814 312.687 454.642 309.703 454.186 306.889C453.79 303.97 452.685 301.192 450.969 298.799C449.065 296.362 446.761 294.268 444.155 292.605C438.347 288.767 431.972 285.866 425.263 284.008C417.617 281.846 409.659 281.007 401.731 281.529C401.24 281.561 401.384 282.314 401.872 282.282Z" fill="white"/>
<path d="M438.928 289.886C439.932 287.666 440.114 285.162 439.442 282.82C438.769 280.479 437.287 278.453 435.259 277.103C434.848 276.832 434.406 277.458 434.818 277.73C436.709 278.983 438.09 280.871 438.711 283.052C439.332 285.234 439.154 287.566 438.207 289.627C438.001 290.075 438.724 290.331 438.928 289.886Z" fill="white"/>
<path d="M453.315 305.221C448.672 307.02 443.521 307.003 438.89 305.173C438.431 304.991 438.173 305.713 438.631 305.894C443.454 307.79 448.814 307.797 453.642 305.914C454.102 305.734 453.772 305.042 453.315 305.221Z" fill="white"/>
<path d="M417.752 282.853C417.543 283.792 417.103 284.665 416.473 285.393C415.843 286.121 415.042 286.681 414.142 287.023C413.679 287.197 414.01 287.888 414.469 287.716C415.462 287.333 416.346 286.714 417.044 285.911C417.742 285.109 418.233 284.147 418.473 283.111C418.504 283.015 418.497 282.911 418.454 282.82C418.411 282.729 418.335 282.658 418.242 282.621C418.146 282.588 418.041 282.593 417.949 282.636C417.858 282.68 417.787 282.757 417.752 282.853Z" fill="white"/>
<path d="M353.962 324.974C357.519 324.974 360.402 322.091 360.402 318.534C360.402 314.977 357.519 312.094 353.962 312.094C350.406 312.094 347.522 314.977 347.522 318.534C347.522 322.091 350.406 324.974 353.962 324.974Z" fill="#FF4D4D"/>
<path d="M376.774 215.287C380.331 215.287 383.214 212.404 383.214 208.847C383.214 205.29 380.331 202.407 376.774 202.407C373.217 202.407 370.334 205.29 370.334 208.847C370.334 212.404 373.217 215.287 376.774 215.287Z" fill="#E6E6E6"/>
<path d="M256.942 36.6551C260.499 36.6551 263.382 33.7718 263.382 30.2151C263.382 26.6584 260.499 23.7751 256.942 23.7751C253.385 23.7751 250.502 26.6584 250.502 30.2151C250.502 33.7718 253.385 36.6551 256.942 36.6551Z" fill="#E6E6E6"/>
<path d="M121.989 277.251C121.989 278.89 122.043 280.53 122.158 282.155C122.279 284.098 122.489 286.028 122.772 287.944C123.724 294.395 125.544 300.688 128.182 306.651C128.317 306.948 128.452 307.245 128.587 307.541L128.79 307.987C128.857 308.135 128.931 308.284 128.999 308.425C129.093 308.621 129.181 308.81 129.275 308.999C129.39 309.235 129.505 309.471 129.626 309.707C129.64 309.734 129.653 309.768 129.673 309.801C129.774 310.004 129.869 310.199 129.977 310.402C129.997 310.446 130.019 310.489 130.044 310.53C130.159 310.759 130.28 310.995 130.402 311.225C130.537 311.468 130.665 311.717 130.8 311.96C131.124 312.561 131.461 313.154 131.805 313.748C131.906 313.923 132.007 314.099 132.115 314.274C132.21 314.436 132.304 314.598 132.405 314.76C132.473 314.868 132.54 314.983 132.608 315.09C132.716 315.273 132.824 315.448 132.938 315.63C133.188 316.028 133.444 316.426 133.694 316.824H133.701C133.815 317.006 133.937 317.189 134.058 317.364V317.371C134.416 317.91 134.787 318.45 135.158 318.983L135.161 318.983L135.163 318.985L135.164 318.987L135.165 318.99C135.462 319.421 135.772 319.84 136.075 320.258V320.265C136.278 320.528 136.473 320.798 136.676 321.061C136.838 321.277 137.006 321.499 137.175 321.715C137.209 321.762 137.249 321.803 137.283 321.85V321.857C137.33 321.918 137.377 321.972 137.425 322.032C138.14 322.95 138.877 323.847 139.637 324.724L139.759 324.866C139.799 324.913 139.847 324.96 139.887 325.014C139.955 325.088 140.015 325.163 140.083 325.237C140.143 325.311 140.211 325.385 140.278 325.459C144.24 329.923 148.733 333.885 153.656 337.259C154.31 337.711 154.978 338.149 155.646 338.574C155.815 338.682 155.984 338.79 156.152 338.891C156.199 338.925 156.253 338.959 156.301 338.992C156.395 339.046 156.483 339.1 156.577 339.161C156.665 339.215 156.753 339.269 156.847 339.323C157.205 339.545 157.569 339.761 157.933 339.977C158.021 340.031 158.115 340.085 158.21 340.139C158.298 340.186 158.392 340.24 158.486 340.294C158.486 340.301 158.486 340.301 158.493 340.301H158.5V340.308H158.507C158.959 340.571 159.417 340.827 159.883 341.077C160.132 341.212 160.389 341.353 160.645 341.482C161.225 341.799 161.812 342.102 162.399 342.392C162.608 342.494 162.824 342.595 163.033 342.703C163.209 342.784 163.384 342.871 163.56 342.952C163.614 342.979 163.661 343 163.708 343.027C163.856 343.094 163.998 343.161 164.146 343.229C164.308 343.303 164.47 343.377 164.625 343.452C164.808 343.532 164.983 343.613 165.165 343.688C165.84 343.991 166.521 344.281 167.203 344.558C169.644 345.559 172.14 346.424 174.677 347.148C174.792 347.182 174.913 347.216 175.035 347.25C176.121 347.553 177.214 347.83 178.314 348.079C180.236 348.525 182.177 348.889 184.136 349.172H184.149C184.385 349.206 184.615 349.24 184.851 349.274C184.871 349.274 184.891 349.28 184.918 349.28C184.918 349.287 184.918 349.287 184.925 349.28C185.181 349.314 185.444 349.348 185.701 349.381C185.718 349.387 185.736 349.389 185.755 349.388C185.998 349.422 186.247 349.449 186.49 349.476C186.753 349.503 187.016 349.53 187.279 349.557C187.482 349.577 187.684 349.597 187.886 349.618C187.904 349.624 187.922 349.626 187.94 349.624C188.123 349.638 188.305 349.658 188.487 349.672H188.514C188.669 349.685 188.831 349.699 188.986 349.712C190.868 349.861 192.757 349.928 194.673 349.928C196.744 349.928 198.802 349.847 200.832 349.672H200.853C201.291 349.631 201.723 349.591 202.155 349.55C202.269 349.537 202.377 349.53 202.492 349.516C202.512 349.516 202.539 349.51 202.56 349.51C202.593 349.503 202.627 349.503 202.667 349.496C202.686 349.497 202.704 349.495 202.721 349.489C202.87 349.476 203.018 349.456 203.173 349.442L203.679 349.381C203.848 349.361 204.017 349.334 204.185 349.314C204.226 349.307 204.26 349.307 204.3 349.3C204.421 349.287 204.543 349.267 204.664 349.247C204.725 349.24 204.786 349.233 204.84 349.226C204.961 349.206 205.076 349.193 205.197 349.172H205.204C208.906 348.639 212.56 347.816 216.133 346.71C216.322 346.649 216.511 346.595 216.7 346.535C216.706 346.535 216.713 346.528 216.72 346.528C216.774 346.508 216.834 346.494 216.888 346.474C217.394 346.312 217.894 346.143 218.393 345.968C219.081 345.739 219.762 345.489 220.444 345.233C220.626 345.158 220.808 345.091 220.99 345.017C221.361 344.875 221.726 344.727 222.09 344.578C222.71 344.329 223.331 344.065 223.945 343.796C224.518 343.539 225.085 343.283 225.652 343.013C225.665 343.006 225.686 343.006 225.699 342.993C225.827 342.932 225.955 342.871 226.077 342.811H226.084C229.19 341.32 232.187 339.609 235.049 337.69C235.967 337.076 236.871 336.442 237.761 335.788C238.476 335.255 239.178 334.715 239.88 334.162C243.341 331.409 246.545 328.347 249.452 325.014V325.007C249.662 324.778 249.857 324.542 250.06 324.306C250.093 324.272 250.12 324.238 250.147 324.211C250.276 324.056 250.397 323.908 250.525 323.759V323.753C250.694 323.557 250.862 323.355 251.024 323.152C251.065 323.105 251.099 323.065 251.132 323.024V323.017C251.267 322.855 251.395 322.693 251.53 322.525C251.598 322.444 251.658 322.363 251.726 322.282V322.275C252.124 321.776 252.509 321.277 252.893 320.764C252.994 320.629 253.095 320.487 253.203 320.346C253.689 319.691 254.161 319.024 254.62 318.356V318.349C254.796 318.099 254.964 317.843 255.14 317.593C255.308 317.337 255.477 317.081 255.646 316.824C255.814 316.554 255.99 316.291 256.158 316.021L256.178 315.981C256.347 315.725 256.516 315.455 256.678 315.192C256.806 314.976 256.934 314.767 257.062 314.558C257.143 314.416 257.231 314.274 257.312 314.126C257.344 314.08 257.373 314.033 257.4 313.984C257.588 313.654 257.777 313.323 257.966 312.992C258.189 312.608 258.405 312.217 258.621 311.825C258.702 311.663 258.789 311.502 258.877 311.34C258.911 311.286 258.938 311.232 258.965 311.178C259.066 310.989 259.167 310.793 259.261 310.598C259.363 310.409 259.464 310.213 259.565 310.017C259.659 309.828 259.761 309.633 259.855 309.437C259.929 309.289 259.997 309.14 260.071 308.992C260.076 308.98 260.083 308.969 260.091 308.958C260.125 308.884 260.159 308.817 260.186 308.749C260.194 308.739 260.201 308.727 260.206 308.715C260.28 308.567 260.348 308.412 260.422 308.263C260.516 308.068 260.604 307.865 260.698 307.67C260.759 307.535 260.827 307.393 260.887 307.251C260.975 307.056 261.07 306.86 261.15 306.658C261.245 306.455 261.333 306.253 261.42 306.044C261.446 305.993 261.468 305.942 261.488 305.889C261.535 305.794 261.569 305.7 261.609 305.605C261.717 305.356 261.825 305.099 261.926 304.85C262.048 304.566 262.162 304.276 262.27 303.993C262.378 303.73 262.479 303.46 262.581 303.19L262.621 303.096C264.193 298.956 265.385 294.681 266.183 290.325V290.318C266.633 287.831 266.955 285.323 267.148 282.803C267.155 282.661 267.168 282.527 267.175 282.392C267.296 280.685 267.35 278.971 267.35 277.251C267.35 276.489 267.337 275.733 267.316 274.978C266.846 259.175 261.211 243.963 251.274 231.667C251.058 231.397 250.842 231.127 250.62 230.857C250.397 230.587 250.168 230.324 249.945 230.061C242.55 221.4 233.223 214.599 222.716 210.204C212.21 205.809 200.817 203.945 189.458 204.761C178.099 205.577 167.09 209.05 157.32 214.902C147.549 220.753 139.29 228.818 133.208 238.447C132.878 238.973 132.547 239.506 132.23 240.039C131.906 240.579 131.596 241.118 131.286 241.665C125.174 252.528 121.972 264.786 121.989 277.251Z" fill="#F2F2F2"/>
<path d="M191.784 229.713C203.735 232.779 215.983 234.547 228.313 234.985C230.178 235.087 232.047 235.074 233.91 234.947C238.004 234.603 241.511 233.316 245.417 232.613C247.295 232.276 249.387 232.029 251.277 231.665C250.84 231.123 250.395 230.587 249.943 230.059C245.867 230.403 241.727 231.531 237.602 232.054C230.59 232.946 222.733 231.951 217.417 229.497C214.838 228.306 212.862 226.82 210.292 225.624C209.943 225.444 209.564 225.328 209.174 225.281C208.433 225.259 207.701 225.449 207.064 225.829C202.753 228.005 196.492 229.774 190.682 228.801C190.249 229.14 191.071 229.526 191.784 229.713Z" fill="white"/>
<path d="M166.071 237.373C166.017 237.363 165.964 237.356 165.911 237.347C166.134 237.208 166.345 237.05 166.539 236.874L166.071 237.373Z" fill="white"/>
<path d="M131.287 241.668C133.714 241.861 136.153 242.006 138.606 242.101C140.47 242.201 142.339 242.189 144.203 242.063C148.297 241.716 151.804 240.431 155.71 239.728C159.289 239.085 163.639 238.775 165.912 237.347C160.038 236.33 153.952 238.4 147.894 239.17C142.995 239.772 138.028 239.527 133.212 238.445C132.541 239.5 131.9 240.574 131.287 241.668Z" fill="white"/>
<path d="M160.645 341.482C161.225 341.799 161.812 342.102 162.399 342.392C162.608 342.494 162.824 342.595 163.033 342.703C163.208 342.784 163.384 342.871 163.559 342.952C163.613 342.979 163.66 343 163.707 343.027C163.856 343.094 163.997 343.162 164.146 343.229C164.308 343.303 164.47 343.377 164.625 343.452C164.807 343.533 164.982 343.614 165.165 343.688C165.839 343.991 166.52 344.281 167.202 344.558C169.644 345.559 172.139 346.424 174.677 347.149C174.791 347.182 174.913 347.216 175.034 347.25C176.12 347.553 177.213 347.83 178.313 348.08C180.236 348.525 182.176 348.889 184.135 349.172H184.148C184.385 349.206 184.614 349.24 184.85 349.274C184.87 349.274 184.891 349.28 184.917 349.28C184.917 349.287 184.917 349.287 184.924 349.28C185.181 349.314 185.444 349.348 185.7 349.382C185.718 349.387 185.736 349.389 185.754 349.388C185.997 349.422 186.246 349.449 186.489 349.476C186.752 349.503 187.016 349.53 187.279 349.557C187.481 349.577 187.683 349.597 187.886 349.618C187.903 349.624 187.922 349.626 187.94 349.624C188.122 349.638 188.304 349.658 188.486 349.672H188.513C188.668 349.685 188.83 349.699 188.985 349.712C190.868 349.861 192.757 349.928 194.673 349.928C196.744 349.928 198.801 349.847 200.832 349.672H200.852C201.291 349.631 201.722 349.591 202.154 349.55C202.269 349.537 202.377 349.53 202.491 349.516C202.512 349.516 202.539 349.51 202.559 349.51C202.593 349.503 202.626 349.503 202.667 349.496C202.685 349.497 202.703 349.495 202.721 349.489C202.869 349.476 203.018 349.456 203.173 349.442L203.679 349.382C203.847 349.361 204.016 349.334 204.185 349.314C204.225 349.307 204.259 349.307 204.299 349.301C204.421 349.287 204.542 349.267 204.664 349.247C204.724 349.24 204.785 349.233 204.839 349.226C204.961 349.206 205.075 349.193 205.197 349.172H205.203C208.905 348.64 212.559 347.816 216.132 346.71C216.321 346.649 216.51 346.595 216.699 346.535C215.828 342.472 214.035 338.665 211.458 335.406C208.881 332.147 205.589 329.524 201.837 327.74C202.765 326.856 203.407 325.714 203.679 324.461C203.854 323.654 203.868 322.82 203.72 322.007C203.571 321.194 203.264 320.419 202.815 319.725C201.94 318.381 200.566 317.439 198.997 317.108L188.999 315.016C187.389 314.703 185.721 315.037 184.357 315.946C182.993 316.856 182.042 318.267 181.713 319.874C181.611 320.366 181.566 320.869 181.578 321.371C171.951 327.78 165.023 334.425 160.645 341.482Z" fill="#00954A"/>
<path d="M190.165 311.067C201.669 311.067 210.995 301.742 210.995 290.238C210.995 278.734 201.669 269.409 190.165 269.409C178.662 269.409 169.336 278.734 169.336 290.238C169.336 301.742 178.662 311.067 190.165 311.067Z" fill="#FFB8B8"/>
<path d="M177.182 308.196C174.961 306.679 172.693 303.763 171.179 301.578C169.172 298.706 167.791 295.444 167.126 292.004C166.461 288.564 166.526 285.022 167.316 281.609C167.569 280.244 168.189 278.974 169.109 277.935C170.091 276.964 171.693 276.504 172.89 277.191C172.563 276.316 172.42 275.383 172.467 274.45C172.515 273.517 172.753 272.604 173.168 271.767C174.009 270.096 175.229 268.643 176.729 267.525C179.599 265.315 183.014 263.923 186.611 263.498C190.208 263.072 193.853 263.628 197.159 265.106C198.46 265.709 196.323 261.053 197.685 261.502C199.038 262.026 200.542 261.999 201.876 261.428C203.157 260.784 207.402 264.614 206.911 263.267C207.883 263.708 208.727 264.388 209.366 265.244C210.004 266.1 210.416 267.103 210.562 268.16C210.708 269.218 210.584 270.295 210.202 271.292C209.82 272.289 209.192 273.172 208.376 273.861C207.301 274.768 205.959 275.291 204.782 276.061C202.719 277.512 201.26 279.668 200.678 282.121C200.097 284.575 200.434 287.156 201.625 289.379C200.387 288.583 199.028 287.992 197.601 287.63C196.886 287.455 196.138 287.454 195.422 287.626C194.706 287.799 194.041 288.14 193.483 288.621C193.017 289.154 192.664 289.777 192.448 290.452C192.231 291.127 192.155 291.839 192.223 292.544C192.27 293.958 192.606 295.35 192.644 296.764C192.755 300.912 194.976 308.799 191.76 311.004C189.222 312.744 180.215 310.268 177.182 308.196Z" fill="#2F2E41"/>
<path d="M204.487 185.982C204.049 185.981 203.615 185.893 203.21 185.723C202.606 185.481 202.089 185.061 201.728 184.52C201.366 183.979 201.177 183.342 201.183 182.691V179.394C201.183 178.702 200.908 178.039 200.419 177.55C199.93 177.061 199.267 176.786 198.575 176.785C197.705 176.784 196.87 176.438 196.255 175.823C195.639 175.207 195.293 174.373 195.292 173.502V128.333C195.293 127.462 195.639 126.628 196.255 126.012C196.87 125.397 197.704 125.051 198.575 125.05H348.224C349.094 125.051 349.929 125.397 350.545 126.012C351.16 126.628 351.506 127.462 351.507 128.333V173.502C351.506 174.373 351.16 175.207 350.545 175.823C349.929 176.438 349.094 176.784 348.224 176.785H216.096C215.753 176.784 215.413 176.851 215.097 176.983C214.78 177.114 214.493 177.306 214.251 177.549L206.788 185.012C206.488 185.318 206.13 185.561 205.735 185.728C205.34 185.894 204.916 185.98 204.487 185.982Z" fill="white"/>
<path d="M204.487 186.656C203.96 186.656 203.438 186.55 202.951 186.347C202.223 186.054 201.601 185.548 201.165 184.896C200.729 184.244 200.5 183.475 200.509 182.691V179.394C200.508 178.881 200.304 178.39 199.942 178.027C199.579 177.665 199.088 177.461 198.575 177.46C197.526 177.459 196.52 177.041 195.778 176.299C195.036 175.557 194.618 174.551 194.617 173.502V128.333C194.618 127.284 195.036 126.278 195.778 125.536C196.519 124.794 197.525 124.376 198.575 124.375H348.224C349.273 124.376 350.279 124.794 351.021 125.536C351.763 126.278 352.18 127.283 352.182 128.333V173.502C352.181 174.551 351.763 175.557 351.021 176.299C350.279 177.041 349.273 177.459 348.224 177.46H216.095C215.841 177.459 215.59 177.509 215.355 177.606C215.12 177.703 214.907 177.846 214.728 178.027L207.265 185.489C206.902 185.858 206.47 186.151 205.993 186.351C205.516 186.551 205.004 186.655 204.487 186.656ZM198.575 125.724C197.883 125.725 197.22 126 196.731 126.489C196.242 126.978 195.967 127.641 195.966 128.333V173.502C195.967 174.194 196.242 174.857 196.731 175.346C197.22 175.835 197.883 176.11 198.575 176.111C199.445 176.112 200.28 176.458 200.895 177.074C201.511 177.689 201.857 178.524 201.858 179.394V182.691C201.858 183.207 202.011 183.711 202.298 184.14C202.584 184.569 202.992 184.903 203.468 185.1C203.945 185.298 204.469 185.349 204.975 185.249C205.481 185.148 205.946 184.9 206.311 184.535L213.774 177.073C214.078 176.767 214.44 176.524 214.838 176.359C215.237 176.194 215.664 176.11 216.095 176.111H348.224C348.916 176.11 349.579 175.835 350.068 175.346C350.557 174.857 350.832 174.194 350.832 173.502V128.333C350.832 127.641 350.557 126.978 350.068 126.489C349.579 126 348.915 125.725 348.224 125.724L198.575 125.724Z" fill="#3F3D56"/>
<path d="M335.364 145.499H214.014C213.551 145.499 213.106 145.315 212.779 144.987C212.451 144.659 212.267 144.215 212.267 143.751C212.267 143.288 212.451 142.843 212.779 142.515C213.106 142.188 213.551 142.003 214.014 142.003H335.364C335.828 142.003 336.272 142.188 336.6 142.515C336.928 142.843 337.112 143.288 337.112 143.751C337.112 144.215 336.928 144.659 336.6 144.987C336.272 145.315 335.828 145.499 335.364 145.499Z" fill="#2F2E41"/>
<path d="M335.141 152.924H214.014C213.551 152.924 213.106 152.74 212.779 152.412C212.451 152.085 212.267 151.64 212.267 151.177C212.267 150.713 212.451 150.268 212.779 149.941C213.106 149.613 213.551 149.429 214.014 149.429H335.141C335.605 149.429 336.049 149.613 336.377 149.941C336.705 150.268 336.889 150.713 336.889 151.177C336.889 151.64 336.705 152.085 336.377 152.412C336.049 152.74 335.605 152.924 335.141 152.924Z" fill="#E6E6E6"/>
<path d="M335.021 160.35H214.014C213.551 160.35 213.106 160.165 212.779 159.838C212.451 159.51 212.267 159.065 212.267 158.602C212.267 158.138 212.451 157.694 212.779 157.366C213.106 157.038 213.551 156.854 214.014 156.854H335.021C335.484 156.854 335.929 157.038 336.257 157.366C336.585 157.694 336.769 158.138 336.769 158.602C336.769 159.065 336.585 159.51 336.257 159.838C335.929 160.165 335.484 160.35 335.021 160.35Z" fill="#E6E6E6"/>
<path d="M526.465 118.04C526.465 119.679 526.411 121.319 526.297 122.944C526.175 124.887 525.966 126.817 525.683 128.733C524.731 135.184 522.911 141.477 520.272 147.44C520.137 147.737 520.003 148.034 519.868 148.331L519.665 148.776C519.598 148.924 519.524 149.073 519.456 149.214C519.362 149.41 519.274 149.599 519.179 149.788C519.065 150.024 518.95 150.26 518.829 150.496C518.815 150.523 518.802 150.557 518.781 150.591C518.68 150.793 518.586 150.989 518.478 151.191C518.458 151.235 518.436 151.278 518.41 151.319C518.296 151.548 518.174 151.785 518.053 152.014C517.918 152.257 517.79 152.506 517.655 152.749C517.331 153.35 516.994 153.943 516.65 154.537C516.548 154.712 516.447 154.888 516.339 155.063C516.245 155.225 516.15 155.387 516.049 155.549C515.982 155.657 515.914 155.772 515.847 155.88C515.739 156.062 515.631 156.237 515.516 156.419C515.267 156.817 515.01 157.215 514.761 157.613H514.754C514.639 157.795 514.518 157.978 514.396 158.153V158.16C514.039 158.699 513.668 159.239 513.297 159.772C513.296 159.772 513.295 159.772 513.294 159.773C513.293 159.773 513.293 159.773 513.292 159.774C513.291 159.775 513.291 159.775 513.29 159.776C513.29 159.777 513.29 159.778 513.29 159.779C512.993 160.211 512.683 160.629 512.379 161.047V161.054C512.177 161.317 511.981 161.587 511.779 161.85C511.617 162.066 511.448 162.288 511.28 162.504C511.246 162.551 511.205 162.592 511.172 162.639V162.646C511.124 162.707 511.077 162.761 511.03 162.821C510.315 163.739 509.577 164.636 508.817 165.513L508.696 165.655C508.655 165.702 508.608 165.749 508.568 165.803C508.5 165.877 508.439 165.952 508.372 166.026C508.311 166.1 508.244 166.174 508.176 166.248C504.214 170.712 499.722 174.674 494.799 178.048C494.144 178.5 493.476 178.938 492.808 179.363C492.64 179.471 492.471 179.579 492.303 179.68C492.255 179.714 492.201 179.748 492.154 179.781C492.06 179.835 491.972 179.889 491.878 179.95C491.79 180.004 491.702 180.058 491.608 180.112C491.25 180.335 490.886 180.55 490.522 180.766C490.434 180.82 490.339 180.874 490.245 180.928C490.157 180.975 490.063 181.029 489.968 181.083C489.968 181.09 489.968 181.09 489.962 181.09H489.955V181.097H489.948C489.496 181.36 489.037 181.616 488.572 181.866C488.322 182.001 488.066 182.143 487.81 182.271C487.229 182.588 486.642 182.891 486.056 183.181C485.846 183.283 485.631 183.384 485.421 183.492C485.246 183.573 485.071 183.66 484.895 183.741C484.841 183.768 484.794 183.789 484.747 183.816C484.598 183.883 484.457 183.951 484.308 184.018C484.146 184.092 483.984 184.166 483.829 184.241C483.647 184.322 483.472 184.403 483.29 184.477C482.615 184.78 481.934 185.07 481.252 185.347C478.81 186.348 476.315 187.213 473.777 187.938C473.663 187.971 473.541 188.005 473.42 188.039C472.334 188.342 471.241 188.619 470.141 188.869C468.218 189.314 466.278 189.678 464.319 189.961H464.306C464.07 189.995 463.84 190.029 463.604 190.063C463.584 190.063 463.564 190.069 463.537 190.069C463.537 190.076 463.537 190.076 463.53 190.069C463.273 190.103 463.01 190.137 462.754 190.171C462.737 190.176 462.718 190.178 462.7 190.177C462.457 190.211 462.208 190.238 461.965 190.265C461.702 190.292 461.439 190.319 461.175 190.346C460.973 190.366 460.771 190.386 460.568 190.407C460.551 190.413 460.533 190.415 460.514 190.413C460.332 190.427 460.15 190.447 459.968 190.461H459.941C459.786 190.474 459.624 190.488 459.469 190.501C457.586 190.65 455.697 190.717 453.782 190.717C451.71 190.717 449.653 190.636 447.622 190.461H447.602C447.164 190.42 446.732 190.38 446.3 190.339C446.185 190.326 446.077 190.319 445.963 190.305C445.942 190.305 445.915 190.299 445.895 190.299C445.861 190.292 445.828 190.292 445.787 190.285C445.769 190.286 445.751 190.284 445.733 190.278C445.585 190.265 445.436 190.245 445.281 190.231L444.775 190.171C444.607 190.15 444.438 190.123 444.269 190.103C444.229 190.096 444.195 190.096 444.155 190.09C444.033 190.076 443.912 190.056 443.79 190.036C443.73 190.029 443.669 190.022 443.615 190.015C443.494 189.995 443.379 189.982 443.257 189.961H443.251C439.549 189.429 435.895 188.605 432.322 187.499C432.133 187.438 431.944 187.384 431.755 187.324C431.748 187.324 431.742 187.317 431.735 187.317C431.681 187.297 431.62 187.283 431.566 187.263C431.06 187.101 430.561 186.932 430.062 186.757C429.374 186.528 428.692 186.278 428.011 186.022C427.829 185.947 427.647 185.88 427.465 185.806C427.094 185.664 426.729 185.516 426.365 185.367C425.744 185.118 425.124 184.855 424.51 184.585C423.936 184.328 423.37 184.072 422.803 183.802C422.789 183.795 422.769 183.795 422.756 183.782C422.627 183.721 422.499 183.66 422.378 183.6H422.371C419.264 182.109 416.268 180.398 413.405 178.479C412.488 177.865 411.584 177.231 410.693 176.577C409.978 176.044 409.277 175.504 408.575 174.951C405.114 172.198 401.91 169.136 399.002 165.803V165.796C398.793 165.567 398.597 165.331 398.395 165.095C398.361 165.061 398.334 165.027 398.307 165C398.179 164.845 398.058 164.697 397.93 164.548V164.542C397.761 164.346 397.592 164.144 397.43 163.941C397.39 163.894 397.356 163.854 397.322 163.813V163.806C397.187 163.644 397.059 163.483 396.924 163.314C396.857 163.233 396.796 163.152 396.729 163.071V163.064C396.331 162.565 395.946 162.066 395.562 161.553C395.46 161.418 395.359 161.277 395.251 161.135C394.766 160.48 394.293 159.813 393.835 159.145V159.138C393.659 158.888 393.491 158.632 393.315 158.382C393.146 158.126 392.978 157.87 392.809 157.613C392.641 157.344 392.465 157.08 392.296 156.811L392.276 156.77C392.108 156.514 391.939 156.244 391.777 155.981C391.649 155.765 391.521 155.556 391.392 155.347C391.312 155.205 391.224 155.063 391.143 154.915C391.111 154.869 391.082 154.822 391.055 154.773C390.866 154.443 390.677 154.112 390.488 153.782C390.266 153.397 390.05 153.006 389.834 152.614C389.753 152.453 389.665 152.291 389.578 152.129C389.544 152.075 389.517 152.021 389.49 151.967C389.389 151.778 389.288 151.582 389.193 151.387C389.092 151.198 388.991 151.002 388.89 150.806C388.795 150.618 388.694 150.422 388.6 150.226C388.525 150.078 388.458 149.929 388.384 149.781C388.378 149.769 388.372 149.758 388.363 149.747C388.33 149.673 388.296 149.606 388.269 149.538C388.261 149.528 388.254 149.517 388.249 149.504C388.175 149.356 388.107 149.201 388.033 149.052C387.938 148.857 387.851 148.654 387.756 148.459C387.696 148.324 387.628 148.182 387.567 148.04C387.48 147.845 387.385 147.649 387.304 147.447C387.21 147.244 387.122 147.042 387.034 146.833C387.009 146.782 386.987 146.731 386.967 146.678C386.92 146.583 386.886 146.489 386.846 146.394C386.738 146.145 386.63 145.888 386.528 145.639C386.407 145.355 386.292 145.065 386.184 144.782C386.076 144.519 385.975 144.249 385.874 143.979L385.834 143.885C384.262 139.745 383.069 135.47 382.272 131.114V131.107C381.822 128.621 381.5 126.112 381.307 123.592C381.3 123.45 381.287 123.316 381.28 123.181C381.158 121.474 381.104 119.76 381.104 118.04C381.104 117.278 381.118 116.522 381.138 115.767C381.609 99.9645 387.244 84.7517 397.181 72.4558C397.397 72.186 397.612 71.9161 397.835 71.6463C398.058 71.3764 398.287 71.1133 398.51 70.8502C405.905 62.1895 415.232 55.3877 425.739 50.993C436.245 46.5984 447.637 44.7339 458.997 45.5499C470.356 46.3658 481.365 49.8395 491.135 55.6907C500.906 61.5419 509.165 69.607 515.246 79.2358C515.577 79.762 515.907 80.2949 516.225 80.8279C516.548 81.3676 516.859 81.9073 517.169 82.4538C523.281 93.3173 526.483 105.575 526.465 118.04Z" fill="#F2F2F2"/>
<path d="M456.67 70.502C444.719 73.5687 432.471 75.3364 420.14 75.7744C418.276 75.8759 416.407 75.8632 414.544 75.7363C410.449 75.3919 406.942 74.1051 403.036 73.4019C401.159 73.0648 399.067 72.8183 397.177 72.454C397.614 71.9121 398.058 71.3768 398.511 70.8482C402.587 71.1925 406.726 72.3199 410.852 72.8437C417.864 73.7354 425.721 72.7403 431.037 70.2863C433.616 69.0955 435.591 67.6093 438.161 66.4131C438.511 66.2337 438.889 66.1177 439.28 66.0706C440.021 66.0484 440.753 66.2383 441.389 66.6179C445.701 68.7947 451.961 70.5636 457.772 69.5903C458.205 69.9293 457.382 70.3153 456.67 70.502Z" fill="white"/>
<path d="M482.384 78.1624C482.437 78.1527 482.49 78.1451 482.543 78.136C482.32 77.9976 482.11 77.8393 481.915 77.6628L482.384 78.1624Z" fill="white"/>
<path d="M517.168 82.4568C514.741 82.6507 512.301 82.7951 509.849 82.89C507.984 82.9906 506.115 82.9779 504.252 82.8519C500.158 82.5057 496.651 81.2207 492.745 80.5175C489.166 79.8741 484.816 79.5642 482.543 78.136C488.417 77.1192 494.503 79.189 500.56 79.9593C505.46 80.5617 510.427 80.3165 515.243 79.2343C515.914 80.2891 516.555 81.3633 517.168 82.4568Z" fill="white"/>
<path d="M445.588 149.843C457.644 149.843 467.417 139.851 467.417 127.526C467.417 115.202 457.644 105.21 445.588 105.21C433.531 105.21 423.758 115.202 423.758 127.526C423.758 139.851 433.531 149.843 445.588 149.843Z" fill="#FFB6B6"/>
<path d="M487.809 182.271C487.229 182.588 486.642 182.891 486.055 183.182C485.846 183.283 485.63 183.384 485.421 183.492C485.246 183.573 485.07 183.661 484.895 183.741C484.841 183.768 484.794 183.789 484.746 183.816C484.598 183.883 484.456 183.951 484.308 184.018C484.146 184.092 483.984 184.166 483.829 184.241C483.647 184.322 483.471 184.403 483.289 184.477C482.615 184.78 481.933 185.07 481.252 185.347C478.81 186.348 476.315 187.213 473.777 187.938C473.662 187.971 473.541 188.005 473.42 188.039C472.333 188.342 471.241 188.619 470.141 188.869C468.218 189.314 466.278 189.678 464.319 189.962H464.305C464.069 189.995 463.84 190.029 463.604 190.063C463.584 190.063 463.563 190.069 463.536 190.069C463.536 190.076 463.536 190.076 463.53 190.069C463.273 190.103 463.01 190.137 462.754 190.171C462.736 190.176 462.718 190.178 462.7 190.177C462.457 190.211 462.207 190.238 461.964 190.265C461.701 190.292 461.438 190.319 461.175 190.346C460.973 190.366 460.77 190.387 460.568 190.407C460.551 190.413 460.532 190.415 460.514 190.414C460.332 190.427 460.15 190.447 459.968 190.461H459.941C459.785 190.474 459.624 190.488 459.468 190.501C457.586 190.65 455.697 190.717 453.781 190.717C451.71 190.717 449.653 190.636 447.622 190.461H447.602C447.163 190.42 446.731 190.38 446.3 190.339C446.185 190.326 446.077 190.319 445.962 190.306C445.942 190.306 445.915 190.299 445.895 190.299C445.861 190.292 445.827 190.292 445.787 190.285C445.769 190.286 445.751 190.284 445.733 190.279C445.585 190.265 445.436 190.245 445.281 190.231L444.775 190.171C444.606 190.15 444.438 190.123 444.269 190.103C444.229 190.096 444.195 190.096 444.154 190.09C444.033 190.076 443.912 190.056 443.79 190.036C443.729 190.029 443.669 190.022 443.615 190.015C443.493 189.995 443.379 189.982 443.257 189.962H443.25C439.549 189.429 435.894 188.605 432.322 187.499C432.133 187.438 431.944 187.384 431.755 187.324C432.626 183.261 434.419 179.454 436.996 176.195C439.573 172.936 442.865 170.313 446.617 168.529C445.689 167.645 445.047 166.503 444.775 165.25C444.6 164.443 444.586 163.609 444.734 162.796C444.882 161.983 445.19 161.208 445.639 160.514C446.514 159.17 447.887 158.229 449.457 157.897L459.455 155.805C461.064 155.492 462.733 155.826 464.097 156.735C465.461 157.645 466.411 159.056 466.741 160.663C466.843 161.155 466.888 161.658 466.876 162.16C476.503 168.569 483.431 175.214 487.809 182.271Z" fill="#F0B518"/>
<path d="M504.002 117.848C500.291 113.521 498.527 107.78 495.561 102.866C492.595 97.9524 487.433 93.5546 481.979 94.6981C478.22 95.4864 475.315 98.8036 473.844 102.502C472.373 106.2 472.098 110.279 471.84 114.274C471.931 106.063 466.521 98.1032 459.07 95.4832C451.618 92.8633 442.7 95.7857 438.018 102.382C435.975 100.488 433.307 99.4099 430.522 99.3515C427.736 99.293 425.026 100.259 422.905 102.065C418.717 105.808 417.79 112.933 420.87 117.708C423.95 122.482 430.621 124.261 435.516 121.613L437.247 123.205C436.273 126.612 438.162 130.636 441.337 131.919C443.912 132.959 447.547 132.786 448.511 135.488C449.184 137.376 447.926 139.391 446.587 140.842C445.248 142.293 443.659 143.791 443.498 145.799C443.255 148.828 446.386 150.951 449.231 151.59C456.093 153.131 463.707 149.953 467.662 143.898C467.738 143.781 467.821 143.664 467.911 143.547C470.129 140.709 471.746 137.449 472.663 133.965C473.579 130.482 473.776 126.848 473.24 123.286C473.018 121.886 473.242 120.845 474.207 120.513C478.378 119.081 490.064 122.088 493.6 124.805C497.137 127.523 499.969 131.119 503.375 134.012C506.782 136.905 511.123 139.137 515.449 138.349C518.913 137.718 521.86 135.203 523.842 132.17C525.824 129.136 526.965 125.6 527.987 122.086C520.327 126.511 509.843 124.659 504.002 117.848Z" fill="#2F2E41"/>
<path d="M55.876 72.8405C55.876 74.4799 55.93 76.1192 56.0447 77.745C56.1661 79.6879 56.3753 81.6174 56.6586 83.5333C57.6108 89.9844 59.4308 96.2771 62.0691 102.241C62.204 102.537 62.3389 102.834 62.4739 103.131L62.6762 103.576C62.7437 103.725 62.8179 103.873 62.8854 104.015C62.9798 104.21 63.0675 104.399 63.162 104.588C63.2766 104.824 63.3913 105.06 63.5128 105.297C63.5262 105.324 63.5397 105.357 63.56 105.391C63.6612 105.593 63.7556 105.789 63.8636 105.991C63.8834 106.036 63.9059 106.078 63.931 106.12C64.0457 106.349 64.1672 106.585 64.2886 106.814C64.4235 107.057 64.5517 107.307 64.6866 107.55C65.0104 108.15 65.3477 108.744 65.6918 109.338C65.793 109.513 65.8942 109.688 66.0021 109.864C66.0966 110.026 66.191 110.188 66.2922 110.35C66.3597 110.457 66.4271 110.572 66.4946 110.68C66.6025 110.862 66.7105 111.038 66.8252 111.22C67.0748 111.618 67.3311 112.016 67.5807 112.414H67.5875C67.7022 112.596 67.8236 112.778 67.945 112.954V112.96C68.3026 113.5 68.6736 114.04 69.0447 114.573C69.0456 114.573 69.0464 114.573 69.0473 114.573C69.0481 114.573 69.0489 114.574 69.0495 114.575C69.0501 114.575 69.0506 114.576 69.0509 114.577C69.0513 114.578 69.0514 114.578 69.0514 114.579C69.3483 115.011 69.6586 115.429 69.9621 115.848V115.854C70.1645 116.117 70.3602 116.387 70.5626 116.65C70.7245 116.866 70.8931 117.089 71.0618 117.305C71.0955 117.352 71.136 117.392 71.1697 117.44V117.446C71.2169 117.507 71.2642 117.561 71.3114 117.622C72.0265 118.539 72.7641 119.437 73.5242 120.314L73.6456 120.455C73.6861 120.503 73.7333 120.55 73.7738 120.604C73.8412 120.678 73.9019 120.752 73.9694 120.826C74.0301 120.901 74.0976 120.975 74.165 121.049C78.1272 125.512 82.6197 129.475 87.5428 132.848C88.1972 133.3 88.8651 133.739 89.5329 134.164C89.7016 134.272 89.8703 134.38 90.0389 134.481C90.0861 134.514 90.1401 134.548 90.1873 134.582C90.2818 134.636 90.3695 134.69 90.4639 134.751C90.5516 134.805 90.6393 134.858 90.7338 134.912C91.0913 135.135 91.4556 135.351 91.8199 135.567C91.9076 135.621 92.0021 135.675 92.0965 135.729C92.1842 135.776 92.2787 135.83 92.3731 135.884C92.3731 135.891 92.3731 135.891 92.3799 135.891H92.3866V135.897H92.3933C92.8454 136.161 93.3041 136.417 93.7696 136.666C94.0192 136.801 94.2755 136.943 94.5319 137.071C95.1121 137.388 95.699 137.692 96.2859 137.982C96.4951 138.083 96.7109 138.184 96.9201 138.292C97.0955 138.373 97.2709 138.461 97.4463 138.542C97.5002 138.569 97.5475 138.589 97.5947 138.616C97.7431 138.684 97.8848 138.751 98.0332 138.819C98.1951 138.893 98.357 138.967 98.5122 139.041C98.6943 139.122 98.8697 139.203 99.0519 139.277C99.7265 139.581 100.408 139.871 101.089 140.148C103.531 141.148 106.026 142.013 108.564 142.738C108.679 142.772 108.8 142.806 108.922 142.839C110.008 143.143 111.101 143.419 112.2 143.669C114.123 144.114 116.064 144.479 118.022 144.762H118.036C118.272 144.796 118.501 144.829 118.737 144.863C118.758 144.863 118.778 144.87 118.805 144.87C118.805 144.877 118.805 144.877 118.812 144.87C119.068 144.904 119.331 144.937 119.587 144.971C119.605 144.976 119.623 144.979 119.641 144.978C119.884 145.012 120.134 145.039 120.377 145.066C120.64 145.093 120.903 145.12 121.166 145.146C121.368 145.167 121.571 145.187 121.773 145.207C121.791 145.213 121.809 145.215 121.827 145.214C122.009 145.227 122.191 145.248 122.374 145.261H122.401C122.556 145.275 122.718 145.288 122.873 145.302C124.755 145.45 126.644 145.518 128.56 145.518C130.631 145.518 132.689 145.437 134.719 145.261H134.739C135.178 145.221 135.61 145.18 136.041 145.14C136.156 145.126 136.264 145.12 136.379 145.106C136.399 145.106 136.426 145.099 136.446 145.099C136.48 145.093 136.514 145.093 136.554 145.086C136.572 145.086 136.591 145.084 136.608 145.079C136.757 145.066 136.905 145.045 137.06 145.032L137.566 144.971C137.735 144.951 137.903 144.924 138.072 144.904C138.113 144.897 138.146 144.897 138.187 144.89C138.308 144.877 138.43 144.856 138.551 144.836C138.612 144.829 138.672 144.823 138.726 144.816C138.848 144.796 138.963 144.782 139.084 144.762H139.091C142.793 144.229 146.447 143.406 150.02 142.3C150.209 142.239 150.397 142.185 150.586 142.124C150.593 142.124 150.6 142.117 150.607 142.117C150.661 142.097 150.721 142.084 150.775 142.063C151.281 141.902 151.78 141.733 152.28 141.558C152.968 141.328 153.649 141.079 154.33 140.822C154.513 140.748 154.695 140.681 154.877 140.606C155.248 140.465 155.612 140.316 155.977 140.168C156.597 139.918 157.218 139.655 157.832 139.385C158.405 139.129 158.972 138.873 159.539 138.603C159.552 138.596 159.572 138.596 159.586 138.582C159.714 138.522 159.842 138.461 159.964 138.4H159.97C163.077 136.909 166.073 135.198 168.936 133.28C169.854 132.666 170.758 132.032 171.648 131.377C172.363 130.845 173.065 130.305 173.766 129.752C177.228 126.998 180.432 123.937 183.339 120.604V120.597C183.548 120.368 183.744 120.132 183.946 119.895C183.98 119.862 184.007 119.828 184.034 119.801C184.162 119.646 184.284 119.497 184.412 119.349V119.342C184.581 119.147 184.749 118.944 184.911 118.742C184.952 118.695 184.985 118.654 185.019 118.614V118.607C185.154 118.445 185.282 118.283 185.417 118.114C185.485 118.033 185.545 117.952 185.613 117.872V117.865C186.011 117.366 186.395 116.866 186.78 116.354C186.881 116.219 186.982 116.077 187.09 115.935C187.576 115.281 188.048 114.613 188.507 113.945V113.939C188.682 113.689 188.851 113.433 189.026 113.183C189.195 112.927 189.364 112.67 189.532 112.414C189.701 112.144 189.876 111.881 190.045 111.611L190.065 111.571C190.234 111.314 190.402 111.044 190.564 110.781C190.693 110.565 190.821 110.356 190.949 110.147C191.03 110.005 191.118 109.864 191.199 109.715C191.23 109.67 191.259 109.622 191.286 109.574C191.475 109.243 191.664 108.913 191.853 108.582C192.076 108.198 192.291 107.806 192.507 107.415C192.588 107.253 192.676 107.091 192.764 106.929C192.797 106.875 192.824 106.821 192.851 106.767C192.953 106.578 193.054 106.383 193.148 106.187C193.249 105.998 193.351 105.803 193.452 105.607C193.546 105.418 193.647 105.222 193.742 105.027C193.816 104.878 193.884 104.73 193.958 104.582C193.963 104.569 193.97 104.558 193.978 104.548C194.012 104.474 194.045 104.406 194.072 104.339C194.081 104.328 194.087 104.317 194.093 104.305C194.167 104.157 194.234 104.001 194.309 103.853C194.403 103.657 194.491 103.455 194.585 103.259C194.646 103.124 194.713 102.983 194.774 102.841C194.862 102.645 194.956 102.45 195.037 102.247C195.132 102.045 195.219 101.843 195.307 101.633C195.332 101.583 195.355 101.531 195.374 101.478C195.422 101.384 195.455 101.289 195.496 101.195C195.604 100.945 195.712 100.689 195.813 100.439C195.934 100.156 196.049 99.8659 196.157 99.5826C196.265 99.3195 196.366 99.0496 196.467 98.7798L196.508 98.6853C198.08 94.5452 199.272 90.2708 200.07 85.9147V85.908C200.52 83.4211 200.842 80.9127 201.035 78.3927C201.041 78.251 201.055 78.1161 201.062 77.9812C201.183 76.2744 201.237 74.5609 201.237 72.8406C201.237 72.0782 201.223 71.3227 201.203 70.5671C200.732 54.765 195.097 39.5523 185.161 27.2564C184.945 26.9865 184.729 26.7167 184.506 26.4468C184.284 26.177 184.054 25.9139 183.832 25.6508C176.436 16.9901 167.109 10.1882 156.603 5.79357C146.096 1.39892 134.704 -0.465571 123.345 0.350405C111.985 1.16638 100.977 4.63998 91.2062 10.4912C81.4357 16.3424 73.1767 24.4075 67.095 34.0363C66.7645 34.5625 66.4339 35.0955 66.1169 35.6285C65.793 36.1682 65.4827 36.7078 65.1724 37.2543C59.0607 48.1179 55.8585 60.3758 55.876 72.8405Z" fill="#F2F2F2"/>
<path d="M125.67 25.3023C137.622 28.3689 149.869 30.1367 162.2 30.5747C164.065 30.6762 165.934 30.6635 167.797 30.5366C171.891 30.1922 175.398 28.9054 179.304 28.2022C181.182 27.8651 183.273 27.6186 185.164 27.2543C184.727 26.7124 184.282 26.1771 183.83 25.6485C179.753 25.9928 175.614 27.1202 171.489 27.644C164.476 28.5357 156.62 27.5406 151.304 25.0866C148.725 23.8958 146.749 22.4096 144.179 21.2134C143.83 21.034 143.451 20.918 143.061 20.8709C142.32 20.8487 141.588 21.0385 140.951 21.4182C136.639 23.595 130.379 25.3639 124.569 24.3906C124.135 24.7296 124.958 25.1156 125.67 25.3023Z" fill="white"/>
<path d="M99.9582 32.9625C99.9051 32.9528 99.8519 32.9452 99.7988 32.936C100.022 32.7977 100.232 32.6393 100.427 32.4629L99.9582 32.9625Z" fill="white"/>
<path d="M65.1738 37.2571C67.6007 37.451 70.0402 37.5954 72.4924 37.6903C74.3571 37.7909 76.2261 37.7782 78.0892 37.6522C82.1835 37.306 85.6906 36.021 89.5964 35.3178C93.1759 34.6744 97.5258 34.3645 99.7986 32.9363C93.9245 31.9195 87.8383 33.9893 81.7811 34.7596C76.8816 35.362 71.915 35.1168 67.0986 34.0346C66.428 35.0894 65.7864 36.1636 65.1738 37.2571Z" fill="white"/>
<path d="M94.5322 137.071C95.1124 137.388 95.6993 137.692 96.2862 137.982C96.4954 138.083 96.7113 138.184 96.9204 138.292C97.0958 138.373 97.2712 138.461 97.4466 138.542C97.5006 138.569 97.5478 138.589 97.595 138.616C97.7434 138.683 97.8851 138.751 98.0335 138.818C98.1954 138.893 98.3574 138.967 98.5125 139.041C98.6947 139.122 98.8701 139.203 99.0522 139.277C99.7268 139.581 100.408 139.871 101.09 140.147C103.531 141.148 106.027 142.013 108.564 142.738C108.679 142.772 108.8 142.805 108.922 142.839C110.008 143.143 111.101 143.419 112.201 143.669C114.123 144.114 116.064 144.478 118.023 144.762H118.036C118.272 144.796 118.502 144.829 118.738 144.863C118.758 144.863 118.778 144.87 118.805 144.87C118.805 144.876 118.805 144.876 118.812 144.87C119.068 144.903 119.331 144.937 119.588 144.971C119.605 144.976 119.623 144.978 119.642 144.978C119.885 145.011 120.134 145.038 120.377 145.065C120.64 145.092 120.903 145.119 121.166 145.146C121.369 145.167 121.571 145.187 121.774 145.207C121.791 145.213 121.809 145.215 121.827 145.214C122.01 145.227 122.192 145.248 122.374 145.261H122.401C122.556 145.275 122.718 145.288 122.873 145.302C124.755 145.45 126.644 145.517 128.56 145.517C130.631 145.517 132.689 145.436 134.72 145.261H134.74C135.178 145.221 135.61 145.18 136.042 145.14C136.156 145.126 136.264 145.119 136.379 145.106C136.399 145.106 136.426 145.099 136.447 145.099C136.48 145.092 136.514 145.092 136.554 145.086C136.573 145.086 136.591 145.084 136.608 145.079C136.757 145.065 136.905 145.045 137.06 145.032L137.566 144.971C137.735 144.951 137.904 144.924 138.072 144.903C138.113 144.897 138.147 144.897 138.187 144.89C138.308 144.876 138.43 144.856 138.551 144.836C138.612 144.829 138.673 144.823 138.727 144.816C138.848 144.796 138.963 144.782 139.084 144.762H139.091C142.793 144.229 146.447 143.406 150.02 142.299C150.209 142.239 150.398 142.185 150.587 142.124C149.716 138.062 147.922 134.254 145.345 130.995C142.768 127.736 139.477 125.113 135.725 123.329C136.653 122.445 137.294 121.303 137.566 120.05C137.742 119.243 137.755 118.409 137.607 117.596C137.459 116.784 137.152 116.008 136.703 115.315C135.827 113.97 134.454 113.029 132.885 112.697L122.887 110.606C121.277 110.292 119.609 110.626 118.245 111.536C116.88 112.445 115.93 113.857 115.601 115.463C115.499 115.955 115.453 116.458 115.466 116.961C105.839 123.37 98.9105 130.015 94.5322 137.071Z" fill="#0153AD"/>
<path d="M134.084 103.857C147.524 103.857 158.42 92.9616 158.42 79.5213C158.42 66.081 147.524 55.1855 134.084 55.1855C120.644 55.1855 109.748 66.081 109.748 79.5213C109.748 92.9616 120.644 103.857 134.084 103.857Z" fill="#9E616A"/>
<path d="M130.625 102.556C124.533 104.202 117.816 102.014 113.062 97.8646C108.307 93.715 105.333 87.835 103.619 81.7614C102.364 77.3132 101.769 72.3756 103.75 68.1996C105.73 64.0236 111.061 61.2062 115.173 63.3156C112.636 60.3599 113.903 55.4713 116.866 52.9428C119.829 50.4143 123.898 49.6893 127.773 49.2931C133.396 48.718 139.205 48.6536 144.557 50.4755C149.908 52.2974 154.77 56.2805 156.445 61.6797C158.155 62.4761 160.082 62.6827 161.922 62.2672C163.763 61.8516 165.413 60.8374 166.616 59.3833C166.926 61.0533 166.677 62.7789 165.907 64.2932C165.138 65.8075 163.891 67.026 162.359 67.7601L170.558 65.1019C171.968 68.0866 169.498 71.7807 166.338 72.7365C163.178 73.6923 159.768 72.6476 156.769 71.2667C153.771 69.8858 150.865 68.14 147.608 67.6014C144.352 67.0629 140.526 68.1094 139.02 71.0466C138.23 72.585 138.189 74.3868 137.731 76.054C137.273 77.7212 136.113 79.4497 134.389 79.5861C133.3 79.6723 132.234 79.0923 131.148 79.2109C130.482 79.3421 129.868 79.6648 129.382 80.1395C128.896 80.6142 128.56 81.2202 128.413 81.8833C128.142 83.2142 128.139 84.5855 128.403 85.9176L130.486 101.837L130.625 102.556Z" fill="#2F2E41"/>
</g>
<defs>
<clipPath id="clip0_1181_2650">
<rect width="528" height="350" fill="white"/>
</clipPath>
</defs>
</svg>
