<svg width="539" height="353" viewBox="0 0 539 353" fill="none" xmlns="http://www.w3.org/2000/svg">
<g clip-path="url(#clip0_1181_2768)">
<rect x="50" width="458" height="169" rx="10" fill="#F2F2F2"/>
<path d="M497.307 170.452H60.237C54.3785 170.452 49.6123 165.686 49.6123 159.827V10.6246C49.6123 4.76618 54.3785 0 60.237 0H497.307C503.165 0 507.931 4.76618 507.931 10.6246V159.827C507.931 165.686 503.165 170.452 497.307 170.452ZM60.237 1.26669C55.0771 1.26669 50.879 5.46479 50.879 10.6246V159.827C50.879 164.987 55.0771 169.185 60.237 169.185H497.307C502.466 169.185 506.664 164.987 506.664 159.827V10.6246C506.664 5.46479 502.466 1.26669 497.307 1.26669H60.237Z" fill="#3F3D56"/>
<path d="M457.876 28H102.124C100.765 28 99.4617 27.6839 98.5007 27.1213C97.5398 26.5587 97 25.7956 97 25C97 24.2044 97.5398 23.4413 98.5007 22.8787C99.4617 22.3161 100.765 22 102.124 22H457.876C459.235 22 460.538 22.3161 461.499 22.8787C462.46 23.4413 463 24.2044 463 25C463 25.7956 462.46 26.5587 461.499 27.1213C460.538 27.6839 459.235 28 457.876 28Z" fill="#2F2E41"/>
<path d="M455.895 44H102.105C100.751 44 99.4526 43.5786 98.4952 42.8284C97.5378 42.0783 97 41.0609 97 40C97 38.9391 97.5378 37.9217 98.4952 37.1716C99.4526 36.4215 100.751 36 102.105 36H455.895C457.249 36 458.547 36.4215 459.505 37.1716C460.462 37.9217 461 38.9391 461 40C461 41.0609 460.462 42.0783 459.505 42.8284C458.547 43.5786 457.249 44 455.895 44Z" fill="#E6E6E6"/>
<path d="M455.89 58H102.11C100.755 58 99.455 57.6839 98.4967 57.1213C97.5383 56.5587 97 55.7956 97 55C97 54.2044 97.5383 53.4413 98.4967 52.8787C99.455 52.3161 100.755 52 102.11 52H455.89C457.245 52 458.545 52.3161 459.503 52.8787C460.462 53.4413 461 54.2044 461 55C461 55.7956 460.462 56.5587 459.503 57.1213C458.545 57.6839 457.245 58 455.89 58Z" fill="#E6E6E6"/>
<path d="M539 348.694H0V349.76H539V348.694Z" fill="#E6E6E6"/>
<path d="M539 294.226H0V295.292H539V294.226Z" fill="#E6E6E6"/>
<path d="M514.694 222.31L484.09 212.941C483.413 212.734 482.702 212.658 481.997 212.718L326.889 225.919C324.678 226.107 324.122 229.09 326.117 230.062L331.086 232.483H330.953V348.354H335.635V234.699L351.206 242.285C352.398 242.865 353.727 243.102 355.046 242.969L356.702 242.802V348.354H361.384V242.329L481.353 230.211V348.354H486.034V229.738L505.931 227.728V348.354H510.613V227.255L514.243 226.888C516.791 226.631 517.143 223.059 514.694 222.31Z" fill="#3F3D56"/>
<path d="M371.918 225.46C374.844 225.46 418.15 220.193 418.15 220.193L424.587 228.972L379.526 237.75L371.918 225.46Z" fill="white"/>
<path d="M419.447 343.854L411.923 343.841L408.394 314.814L419.498 314.834L419.447 343.854Z" fill="#A0616A"/>
<path d="M393.669 343.64C393.434 344.034 393.308 345.307 393.308 345.766C393.305 347.176 394.447 348.321 395.857 348.324L419.157 348.364C420.119 348.365 420.901 347.587 420.902 346.625L420.904 345.655C420.904 345.655 422.062 342.741 419.695 339.143C419.695 339.143 416.74 341.952 412.341 337.537L411.045 335.181L401.626 342.045L396.41 342.678C395.269 342.816 394.258 342.652 393.669 343.64Z" fill="#2F2E41"/>
<path d="M459.828 330.356L453.891 334.834L433.796 314.068L442.557 307.46L459.828 330.356Z" fill="#A0616A"/>
<path d="M439.39 345.563C439.44 346.014 440.1 347.092 440.373 347.454C441.212 348.567 442.795 348.788 443.908 347.949L462.29 334.082C463.049 333.509 463.2 332.429 462.628 331.67L462.05 330.905C462.05 330.905 461.224 327.919 457.213 326.496C457.213 326.496 456.561 330.471 450.461 329.617L448.035 328.533L444.707 339.561L440.975 343.17C440.159 343.96 439.264 344.434 439.39 345.563Z" fill="#2F2E41"/>
<path d="M444.103 180.339C444.103 187.277 438.478 192.902 431.54 192.902C424.602 192.902 418.978 187.277 418.978 180.339C418.978 173.401 424.602 167.776 431.54 167.776C438.478 167.776 444.103 173.401 444.103 180.339Z" fill="#A0616A"/>
<path d="M442.92 252.773C442.92 252.773 396.665 250.155 394.047 255.391C391.429 260.627 408.201 332.554 408.201 332.554L423.165 329.418L415.865 278.955C415.865 278.955 454.464 289.177 459.7 276.959C464.936 264.74 463.429 260.191 463.429 260.191L442.92 252.773Z" fill="#2F2E41"/>
<path d="M454.77 243.983C454.77 243.983 409.471 253.694 408.331 259.437C407.191 265.179 442.393 330.107 442.393 330.107L455.994 323.124L435.605 276.389C435.605 276.389 475.533 276.037 477.35 262.869C479.168 249.701 476.511 245.712 476.511 245.712L454.77 243.983Z" fill="#2F2E41"/>
<path d="M459.938 194.736H438.174L423.283 219.173C423.283 219.173 419.792 234.964 423.283 236.668C426.774 238.373 426.774 256.7 426.774 256.7L463.428 260.191C463.428 260.191 468.665 205.209 466.919 199.973C465.174 194.736 459.938 194.736 459.938 194.736Z" fill="#F0B518"/>
<path d="M425.465 210.882L423.283 236.668L398.743 226.253L392.886 223.308C391.739 221.812 390.25 220.612 388.544 219.81C384.302 217.743 379.799 218.255 378.484 220.953C377.169 223.651 379.54 227.514 383.781 229.58C385.464 230.429 387.327 230.863 389.212 230.845L406.35 240.578L406.37 240.54L406.446 240.675L433.32 251.9L439.503 218.048L425.465 210.882Z" fill="#A0616A"/>
<path d="M422.847 182.082C422.847 182.082 409.756 183.827 414.992 172.482C414.992 172.482 414.194 166.332 418.084 165.916C421.974 165.5 427.21 158.518 427.21 158.518C427.21 158.518 439.216 152.409 445.431 158.518C451.647 164.627 469.974 200.409 469.974 200.409L457.756 213.5C457.756 213.5 450.41 194.19 441.865 196.427C433.319 198.664 425.465 205.333 425.465 205.333C425.465 205.333 416.793 200.993 420.692 197.21C424.592 193.427 422.847 182.082 422.847 182.082Z" fill="#2F2E41"/>
<path d="M440.301 201.282C440.301 201.282 434.192 193.427 429.828 199.536C425.465 205.645 421.974 213.5 421.974 213.5L439.428 219.609L440.301 201.282Z" fill="#F0B518"/>
<path d="M506.574 346.617L486.294 282.162L486.297 282.161H486.344L486.262 282.056L486.26 282.054L484.816 277.463L484.817 277.462C487.017 275.566 488.515 272.857 488.814 269.737L479.544 218.754C480.182 212.059 475.05 206.207 468.325 205.967L447.41 205.914C441.464 205.703 436.314 209.999 435.448 215.886L434.986 219.011L428.578 262.604C428.344 264.172 428.437 265.717 428.806 267.162L424.195 267.765L422.796 267.952L417.266 268.672L417.248 268.678L416.558 268.766H415.809V287.493H415.855V347.348C415.855 347.734 416.171 348.05 416.558 348.05C416.95 348.05 417.266 347.734 417.266 347.348V287.493H425.47L433.658 347.278C433.71 347.629 434.009 347.886 434.36 347.886C434.389 347.886 434.424 347.887 434.453 347.881C434.84 347.828 435.109 347.471 435.056 347.085L426.898 287.493H466.266C470.174 287.493 473.796 286.252 476.746 284.128L492.354 347.168C492.436 347.487 492.722 347.699 493.037 347.699C493.094 347.699 493.153 347.692 493.211 347.678C493.589 347.582 493.817 347.198 493.721 346.821L477.961 283.171C478.171 282.996 478.38 282.81 478.578 282.618L484.844 282.249L505.229 347.041C505.323 347.342 505.601 347.534 505.901 347.534C505.971 347.534 506.042 347.524 506.113 347.502C506.484 347.385 506.69 346.989 506.574 346.617ZM483.477 278.463C483.529 278.434 483.576 278.398 483.623 278.369L483.774 278.848L483.477 278.463Z" fill="#E6E6E6"/>
<path d="M108.66 237.362L122.308 228.683L127.857 232.03L108.66 254.088V237.362Z" fill="#FFB6B6"/>
<path d="M89.9963 203.769C89.9963 203.769 80.9312 205.901 85.1971 218.166C89.463 230.431 103.327 256.026 107.593 254.426C111.859 252.827 112.392 236.829 112.392 236.829C112.392 236.829 111.859 237.363 109.726 235.23C107.593 233.097 107.593 234.071 107.593 231.717C107.593 229.364 105.849 227.619 105.849 227.619L103.861 223.498C103.861 223.498 103.861 204.302 95.8619 203.235C87.8633 202.169 89.9963 203.769 89.9963 203.769Z" fill="#00954A"/>
<path d="M132.349 231.457C135.889 227.917 136.986 223.274 134.8 221.088C132.613 218.901 127.971 219.999 124.43 223.539C120.89 227.079 119.793 231.721 121.98 233.908C124.166 236.094 128.809 234.997 132.349 231.457Z" fill="#FFB6B6"/>
<path d="M54.6885 274.423L64.0013 289.837L118.272 286.626L103.821 268L54.6885 274.423Z" fill="#E6E6E6"/>
<path d="M70.9045 346.517C70.5884 346.517 70.3131 346.284 70.269 345.962L54.0519 227.522C54.0038 227.17 54.2496 226.846 54.601 226.798C54.9523 226.747 55.2762 226.996 55.3245 227.347L71.5416 345.788C71.5898 346.139 71.3439 346.463 70.9925 346.511C70.9629 346.515 70.9335 346.517 70.9045 346.517Z" fill="#E6E6E6"/>
<path d="M54.6882 346.668C54.3335 346.668 54.0459 346.38 54.0459 346.025V227.457C54.0459 227.103 54.3335 226.815 54.6882 226.815C55.0428 226.815 55.3304 227.103 55.3304 227.457V346.025C55.3304 346.38 55.0428 346.668 54.6882 346.668Z" fill="#E6E6E6"/>
<path d="M136.514 346C136.307 346 136.116 345.877 136.051 345.686L107.023 260.583C106.942 260.347 107.084 260.095 107.34 260.021C107.596 259.947 107.869 260.078 107.949 260.314L136.977 345.417C137.058 345.653 136.916 345.905 136.66 345.979C136.611 345.993 136.562 346 136.514 346Z" fill="#E6E6E6"/>
<path d="M124.373 346.346C124.086 346.346 123.825 346.153 123.751 345.862L97.0971 238.213C97.0097 237.869 97.2175 237.519 97.5612 237.432C97.906 237.345 98.2546 237.552 98.3421 237.896L124.996 345.546C125.083 345.889 124.876 346.239 124.532 346.326C124.479 346.34 124.425 346.346 124.373 346.346Z" fill="#E6E6E6"/>
<path d="M54.6885 229.346L99.1651 228.662L107.354 275.387H55.3307L54.6885 229.346Z" fill="#E6E6E6"/>
<path d="M123.037 298.051L111.828 317.785L124.843 320.65L130.268 306.614L123.037 298.051Z" fill="#FFB6B6"/>
<path d="M115.854 314.059C115.854 314.059 115.419 310.841 112.858 311.862C110.297 312.884 102.907 316.679 102.907 316.679C102.907 316.679 122.182 347.998 125.84 346.539C129.498 345.081 125.119 336.227 125.119 336.227L126.086 320.578L115.854 314.059Z" fill="#2F2E41"/>
<path d="M73.4659 259.759C73.4659 259.759 69.4666 278.155 81.7312 284.554C93.9957 290.953 135.855 275.223 135.855 275.223L116.658 303.986L129.989 309.35C129.989 309.35 160.384 269.357 158.251 262.958C156.118 256.559 141.721 256.026 141.721 256.026L109.193 257.626L100.661 254.959L73.4659 259.759Z" fill="#2F2E41"/>
<path d="M106.454 306.81L88.833 321.112L99.9126 328.517L110.074 317.417L106.454 306.81Z" fill="#FFB6B6"/>
<path d="M93.9393 319.106C93.9393 319.106 94.7046 315.95 91.948 315.97C89.1913 315.989 80.9268 316.835 80.9268 316.835C80.9268 316.835 87.4838 353.022 91.4219 352.994C95.36 352.966 94.5028 343.126 94.5028 343.126L101.097 328.902L93.9393 319.106Z" fill="#2F2E41"/>
<path d="M74.2156 253.104C74.2156 253.104 63.7962 268.784 72.8915 279.207C81.9868 289.63 126.701 290.21 126.701 290.21L98.3534 310.016L108.819 319.864C108.819 319.864 151.682 293.672 152.024 286.936C152.366 280.2 139.149 274.464 139.149 274.464L108.27 264.118L101.293 258.53L74.2156 253.104Z" fill="#2F2E41"/>
<path d="M100.983 216.785C100.983 216.785 90.8512 213.052 86.052 213.052C85.5934 213.052 85.1402 213.106 84.6869 213.202C81.6155 213.852 78.7893 216.492 77.4349 217.931C76.9069 218.497 76.603 218.875 76.603 218.875C76.603 218.875 76.635 218.507 76.699 217.862C77.0136 214.471 78.1761 203.342 80.261 196.218C81.0076 193.674 81.8661 191.643 82.8526 190.656C85.1509 188.353 86.212 185.59 86.7026 183.532C87.1185 181.767 87.1185 180.525 87.1185 180.525L83.2312 178.85L82.5113 174.147C82.3833 174.702 81.7914 175.784 79.8025 177.858C79.6318 178.034 79.4452 178.184 79.2479 178.312C76.379 180.114 70.5294 176.978 67.3779 175.005C68.6897 170.446 71.068 166.276 75.3872 165.594C85.5188 163.994 85.5188 158.128 91.9177 164.527C92.4456 165.055 92.9788 165.562 93.5121 166.052C95.5597 169.966 96.3062 175.213 96.5729 178.861C96.7648 181.415 96.7168 183.191 96.7168 183.191C96.7168 183.191 99.383 199.188 103.649 202.387C107.915 205.587 100.983 216.785 100.983 216.785Z" fill="#2F2E41"/>
<path d="M81.2529 191.189L74.0479 201.758L90.318 206.12V191.189H81.2529Z" fill="#FFB6B6"/>
<path opacity="0.1" d="M81.2529 191.189L74.0479 201.758L90.318 206.12V191.189H81.2529Z" fill="black"/>
<path d="M91.3295 201.369L75.8655 194.97C75.8655 194.97 55.0691 204.035 56.6688 221.632C58.2686 239.229 73.1993 269.623 73.1993 269.623L103.061 256.826L99.8613 222.698L91.3295 201.369Z" fill="#00954A"/>
<path d="M84.6996 195.907C92.2344 195.907 98.3426 189.799 98.3426 182.265C98.3426 174.73 92.2344 168.622 84.6996 168.622C77.1648 168.622 71.0566 174.73 71.0566 182.265C71.0566 189.799 77.1648 195.907 84.6996 195.907Z" fill="#FFB6B6"/>
<path d="M103.115 177.325C100.449 179.991 98.3161 182.658 98.3161 182.658L97.2496 178.392C97.2496 178.392 97.0043 178.573 96.5724 178.861C94.882 180.013 90.3441 182.908 86.7021 183.532C85.081 183.809 83.6413 183.633 82.7028 182.658C80.7138 180.583 80.1219 179.501 79.9939 178.946L79.274 183.649L75.3867 185.324C75.3867 185.324 75.3867 191.179 79.6527 195.455C79.8606 195.663 80.0633 195.919 80.2606 196.218C82.2975 199.289 83.7586 206.808 84.6864 213.201C85.5076 218.886 85.9022 223.674 85.9022 223.674C85.9022 223.674 81.8656 218.619 77.4344 217.931C77.1891 217.894 76.9438 217.867 76.6985 217.862C76.6185 217.851 76.5332 217.851 76.4532 217.851C71.654 217.851 61.5225 221.584 61.5225 221.584C61.5225 221.584 54.5904 210.386 58.8563 207.187C63.1222 203.987 65.7884 187.99 65.7884 187.99C65.7884 187.99 65.6124 181.143 67.3775 175.005C68.6892 170.446 71.0675 166.276 75.3867 165.594C85.5183 163.994 85.5183 158.128 91.9172 164.527C92.4451 165.055 92.9783 165.562 93.5116 166.052C99.4732 171.534 105.563 174.878 103.115 177.325Z" fill="#2F2E41"/>
<path d="M43.2787 248.905H38.2119V348.974H43.2787V248.905Z" fill="#3F3D56"/>
<path d="M166.148 248.905H161.081V348.974H166.148V248.905Z" fill="#3F3D56"/>
<path d="M133.848 206.471H100.28V240.039H133.848V206.471Z" fill="#E6E6E6"/>
<path d="M80.9316 242.162L94.5797 233.482L100.128 236.829L80.9316 258.887V242.162Z" fill="#FFB6B6"/>
<path d="M62.2678 208.568C62.2678 208.568 53.2027 210.701 57.4686 222.965C61.7345 235.23 75.5988 260.825 79.8647 259.226C84.1306 257.626 84.6639 241.629 84.6639 241.629C84.6639 241.629 84.1306 242.162 81.9977 240.029C79.8647 237.896 79.8647 238.87 79.8647 236.517C79.8647 234.163 78.1201 232.419 78.1201 232.419L76.132 228.298C76.132 228.298 76.132 209.101 68.1334 208.035C60.1348 206.968 62.2678 208.568 62.2678 208.568Z" fill="#00954A"/>
<path d="M104.62 236.256C108.16 232.716 109.258 228.074 107.071 225.887C104.885 223.701 100.242 224.798 96.702 228.338C93.1618 231.878 92.0645 236.521 94.2511 238.707C96.4376 240.894 101.08 239.796 104.62 236.256Z" fill="#FFB6B6"/>
<path d="M176.282 245.105H23.0117V256.506H176.282V245.105Z" fill="#3F3D56"/>
<path d="M332.003 153.903H309.367C307.573 153.903 306.118 155.358 306.118 157.152V166.488C306.118 168.282 307.573 169.737 309.367 169.737H332.003C333.798 169.737 335.252 168.282 335.252 166.488V157.152C335.252 155.358 333.798 153.903 332.003 153.903Z" fill="#3F3D56"/>
<path d="M379.504 163.239H356.868C355.074 163.239 353.619 164.693 353.619 166.488V166.488C353.619 168.282 355.074 169.737 356.868 169.737H379.504C381.298 169.737 382.753 168.282 382.753 166.488V166.488C382.753 164.693 381.298 163.239 379.504 163.239Z" fill="#0153AD"/>
</g>
<defs>
<clipPath id="clip0_1181_2768">
<rect width="539" height="352.994" fill="white"/>
</clipPath>
</defs>
</svg>
