<svg width="547" height="293" viewBox="0 0 547 293" fill="none" xmlns="http://www.w3.org/2000/svg">
<g clip-path="url(#clip0_1180_2356)">
<path d="M547 173.019C547 148.757 527.319 91.1841 503.04 91.1841C478.762 91.1841 459.08 148.757 459.08 173.019C459.089 184.672 463.724 195.845 471.967 204.083C480.21 212.32 491.387 216.947 503.04 216.947C514.694 216.947 525.87 212.32 534.113 204.083C542.356 195.845 546.992 184.672 547 173.019Z" fill="#F2F2F2"/>
<path d="M503.04 270.364C502.906 270.364 502.779 270.311 502.684 270.217C502.59 270.122 502.537 269.995 502.537 269.861V167.24C502.537 167.107 502.59 166.979 502.684 166.885C502.779 166.791 502.906 166.738 503.04 166.738C503.173 166.738 503.301 166.791 503.395 166.885C503.49 166.979 503.542 167.107 503.542 167.24V269.861C503.542 269.995 503.49 270.122 503.395 270.217C503.301 270.311 503.173 270.364 503.04 270.364Z" fill="#CCCCCC"/>
<path d="M503.04 186.413C502.968 186.414 502.896 186.398 502.831 186.368C502.765 186.338 502.707 186.295 502.66 186.24L477.377 157.084C477.29 156.983 477.247 156.852 477.256 156.719C477.266 156.586 477.328 156.462 477.428 156.375C477.529 156.288 477.66 156.244 477.793 156.253C477.926 156.263 478.049 156.324 478.137 156.425L503.419 185.581C503.482 185.654 503.523 185.744 503.537 185.839C503.551 185.934 503.537 186.032 503.497 186.119C503.457 186.207 503.392 186.281 503.311 186.333C503.23 186.386 503.136 186.413 503.04 186.413Z" fill="#CCCCCC"/>
<path d="M503.04 203.24C502.94 203.24 502.843 203.211 502.76 203.155C502.678 203.1 502.613 203.022 502.575 202.93C502.537 202.838 502.527 202.737 502.547 202.639C502.566 202.542 502.614 202.452 502.684 202.382L517.05 188.016C517.145 187.922 517.272 187.869 517.405 187.87C517.538 187.87 517.666 187.923 517.76 188.017C517.854 188.111 517.907 188.238 517.907 188.372C517.907 188.505 517.855 188.632 517.761 188.727L503.395 203.093C503.349 203.14 503.293 203.177 503.232 203.202C503.171 203.227 503.106 203.24 503.04 203.24Z" fill="#CCCCCC"/>
<path d="M62.2606 215.547C62.2606 201.884 51.1775 169.464 37.5058 169.464C23.834 169.464 12.751 201.884 12.751 215.547C12.7546 222.11 15.3643 228.403 20.0064 233.042C24.6484 237.682 30.9428 240.288 37.5058 240.288C44.0688 240.288 50.3632 237.682 55.0052 233.042C59.6473 228.403 62.2569 222.11 62.2606 215.547Z" fill="#F2F2F2"/>
<path d="M37.5057 270.364C37.4307 270.364 37.3587 270.334 37.3056 270.281C37.2525 270.228 37.2227 270.156 37.2227 270.081V212.293C37.2227 212.218 37.2525 212.146 37.3056 212.093C37.3587 212.04 37.4307 212.01 37.5057 212.01C37.5808 212.01 37.6528 212.04 37.7059 212.093C37.759 212.146 37.7888 212.218 37.7888 212.293V270.081C37.7888 270.156 37.759 270.228 37.7059 270.281C37.6528 270.334 37.5808 270.364 37.5057 270.364Z" fill="#CCCCCC"/>
<path d="M37.5059 223.09C37.4653 223.09 37.4252 223.081 37.3882 223.064C37.3513 223.047 37.3184 223.023 37.2918 222.992L23.0548 206.573C23.006 206.517 22.9816 206.443 22.9871 206.368C22.9926 206.293 23.0274 206.224 23.084 206.175C23.1405 206.126 23.2142 206.101 23.2889 206.106C23.3637 206.112 23.4333 206.146 23.4826 206.202L37.7197 222.621C37.7552 222.662 37.7782 222.712 37.7859 222.766C37.7937 222.82 37.7858 222.875 37.7633 222.924C37.7408 222.973 37.7045 223.015 37.6589 223.045C37.6133 223.074 37.5602 223.09 37.5059 223.09Z" fill="#CCCCCC"/>
<path d="M37.5057 232.565C37.4497 232.565 37.395 232.549 37.3484 232.517C37.3019 232.486 37.2656 232.442 37.2442 232.39C37.2228 232.339 37.2172 232.282 37.2281 232.227C37.239 232.172 37.266 232.122 37.3055 232.082L45.3953 223.992C45.4484 223.939 45.5203 223.909 45.5954 223.909C45.6705 223.909 45.7425 223.939 45.7956 223.992C45.8487 224.045 45.8785 224.117 45.8785 224.192C45.8785 224.267 45.8487 224.339 45.7956 224.392L37.7058 232.482C37.6796 232.509 37.6484 232.529 37.614 232.544C37.5797 232.558 37.5428 232.565 37.5057 232.565Z" fill="#CCCCCC"/>
<path d="M10.6934 269.989C10.6934 267.248 11.7822 264.62 13.7203 262.681C15.6584 260.743 18.287 259.655 21.0279 259.655C23.7688 259.655 26.3974 260.743 28.3355 262.681C30.2736 264.62 31.3624 267.248 31.3624 269.989" fill="#F2F2F2"/>
<path d="M21.0283 269.989C20.9543 269.989 20.8832 269.96 20.8308 269.907C20.7784 269.855 20.749 269.784 20.749 269.71V264.263C20.749 264.189 20.7784 264.118 20.8308 264.066C20.8832 264.013 20.9543 263.984 21.0283 263.984C21.1024 263.984 21.1734 264.013 21.2258 264.066C21.2782 264.118 21.3076 264.189 21.3076 264.263V269.71C21.3076 269.784 21.2782 269.855 21.2258 269.907C21.1734 269.96 21.1024 269.989 21.0283 269.989Z" fill="#CCCCCC"/>
<path d="M21.028 268.117C20.9613 268.117 20.8968 268.093 20.8462 268.05L17.4945 265.173C17.4666 265.149 17.4436 265.12 17.4269 265.087C17.4102 265.055 17.4002 265.019 17.3973 264.982C17.3945 264.946 17.3989 264.909 17.4103 264.874C17.4217 264.839 17.4399 264.807 17.4639 264.779C17.4878 264.751 17.517 264.728 17.5498 264.711C17.5826 264.695 17.6183 264.685 17.655 264.682C17.6916 264.679 17.7285 264.684 17.7634 264.695C17.7983 264.707 17.8306 264.725 17.8584 264.749L21.2101 267.626C21.2534 267.663 21.2843 267.713 21.2986 267.768C21.3129 267.823 21.3099 267.882 21.2901 267.935C21.2703 267.989 21.2345 268.035 21.1877 268.067C21.1408 268.1 21.0851 268.117 21.028 268.117Z" fill="#CCCCCC"/>
<path d="M42.5352 269.989C42.5352 267.248 43.624 264.62 45.5621 262.681C47.5002 260.743 50.1288 259.655 52.8697 259.655C55.6106 259.655 58.2392 260.743 60.1773 262.681C62.1154 264.62 63.2042 267.248 63.2042 269.989" fill="#F2F2F2"/>
<path d="M52.8701 269.989C52.7961 269.989 52.725 269.96 52.6726 269.907C52.6202 269.855 52.5908 269.784 52.5908 269.71V264.263C52.5908 264.189 52.6202 264.118 52.6726 264.066C52.725 264.013 52.7961 263.984 52.8701 263.984C52.9442 263.984 53.0152 264.013 53.0676 264.066C53.12 264.118 53.1494 264.189 53.1494 264.263V269.71C53.1494 269.784 53.12 269.855 53.0676 269.907C53.0152 269.96 52.9442 269.989 52.8701 269.989Z" fill="#CCCCCC"/>
<path d="M52.8692 268.117C52.8025 268.118 52.738 268.094 52.6874 268.05L49.3357 265.173C49.2794 265.125 49.2447 265.057 49.2391 264.983C49.2335 264.909 49.2574 264.836 49.3057 264.78C49.3539 264.723 49.4225 264.689 49.4964 264.683C49.5703 264.677 49.6433 264.701 49.6995 264.75L53.0513 267.626C53.0946 267.663 53.1255 267.713 53.1397 267.768C53.154 267.823 53.1511 267.882 53.1312 267.935C53.1114 267.989 53.0757 268.035 53.0288 268.067C52.982 268.1 52.9263 268.117 52.8692 268.117Z" fill="#CCCCCC"/>
<path d="M234.179 228.926C171.064 228.926 119.716 177.578 119.716 114.463C119.716 51.3481 171.064 0 234.179 0C297.294 0 348.642 51.3481 348.642 114.463C348.642 177.578 297.294 228.926 234.179 228.926ZM234.179 1.53642C171.911 1.53642 121.252 52.195 121.252 114.463C121.252 176.731 171.911 227.39 234.179 227.39C296.447 227.39 347.106 176.731 347.106 114.463C347.106 52.195 296.447 1.53642 234.179 1.53642Z" fill="#CCCCCC"/>
<path d="M234.178 106.013C233.975 106.013 233.779 105.932 233.635 105.788C233.491 105.644 233.41 105.448 233.41 105.245V0.768209C233.41 0.564467 233.491 0.369081 233.635 0.225014C233.779 0.0809472 233.975 0 234.178 0C234.382 0 234.577 0.0809472 234.722 0.225014C234.866 0.369081 234.947 0.564467 234.947 0.768209V105.245C234.947 105.448 234.866 105.644 234.722 105.788C234.577 105.932 234.382 106.013 234.178 106.013Z" fill="#CCCCCC"/>
<path d="M347.873 115.231H243.397C243.193 115.231 242.998 115.15 242.854 115.006C242.71 114.862 242.629 114.667 242.629 114.463C242.629 114.259 242.71 114.064 242.854 113.92C242.998 113.776 243.193 113.695 243.397 113.695H347.873C348.077 113.695 348.273 113.776 348.417 113.92C348.561 114.064 348.642 114.259 348.642 114.463C348.642 114.667 348.561 114.862 348.417 115.006C348.273 115.15 348.077 115.231 347.873 115.231Z" fill="#CCCCCC"/>
<path d="M224.961 115.231H120.534C120.33 115.231 120.135 115.15 119.991 115.006C119.847 114.862 119.766 114.667 119.766 114.463C119.766 114.259 119.847 114.064 119.991 113.92C120.135 113.776 120.33 113.695 120.534 113.695H224.961C225.164 113.695 225.36 113.776 225.504 113.92C225.648 114.064 225.729 114.259 225.729 114.463C225.729 114.667 225.648 114.862 225.504 115.006C225.36 115.15 225.164 115.231 224.961 115.231Z" fill="#CCCCCC"/>
<path d="M234.178 228.926C233.975 228.926 233.779 228.845 233.635 228.701C233.491 228.557 233.41 228.362 233.41 228.158V123.682C233.41 123.478 233.491 123.282 233.635 123.138C233.779 122.994 233.975 122.913 234.178 122.913C234.382 122.913 234.577 122.994 234.722 123.138C234.866 123.282 234.947 123.478 234.947 123.682V228.158C234.947 228.362 234.866 228.557 234.722 228.701C234.577 228.845 234.382 228.926 234.178 228.926Z" fill="#CCCCCC"/>
<path d="M240.952 108.989C240.8 108.989 240.651 108.944 240.525 108.859C240.399 108.775 240.3 108.655 240.242 108.515C240.184 108.374 240.169 108.22 240.198 108.071C240.228 107.922 240.301 107.785 240.409 107.677L313.959 34.1263C314.031 34.055 314.115 33.9984 314.209 33.9598C314.302 33.9212 314.402 33.9014 314.503 33.9014C314.603 33.9014 314.703 33.9212 314.796 33.9598C314.89 33.9984 314.974 34.055 315.046 34.1263C315.117 34.1977 315.174 34.2823 315.212 34.3755C315.251 34.4687 315.271 34.5686 315.271 34.6695C315.271 34.7704 315.251 34.8703 315.212 34.9634C315.174 35.0566 315.117 35.1413 315.046 35.2127L241.495 108.764C241.424 108.835 241.339 108.892 241.246 108.93C241.152 108.969 241.053 108.989 240.952 108.989Z" fill="#CCCCCC"/>
<path d="M227.406 108.989C227.305 108.989 227.205 108.969 227.112 108.93C227.019 108.892 226.934 108.835 226.863 108.764L153.312 35.2127C153.168 35.0686 153.087 34.8732 153.087 34.6695C153.087 34.4658 153.168 34.2704 153.312 34.1263C153.456 33.9823 153.651 33.9014 153.855 33.9014C154.059 33.9014 154.254 33.9823 154.398 34.1263L227.949 107.677C228.057 107.785 228.13 107.922 228.159 108.071C228.189 108.22 228.174 108.374 228.116 108.515C228.058 108.655 227.959 108.775 227.833 108.859C227.707 108.944 227.558 108.989 227.406 108.989Z" fill="#CCCCCC"/>
<path d="M314.503 195.025C314.402 195.025 314.302 195.005 314.209 194.966C314.115 194.928 314.031 194.871 313.959 194.8L240.409 121.249C240.265 121.104 240.184 120.909 240.184 120.705C240.184 120.502 240.265 120.306 240.409 120.162C240.553 120.018 240.748 119.937 240.952 119.937C241.155 119.937 241.351 120.018 241.495 120.162L315.046 193.713C315.153 193.821 315.226 193.958 315.256 194.107C315.286 194.256 315.27 194.41 315.212 194.55C315.154 194.691 315.056 194.811 314.929 194.895C314.803 194.98 314.655 195.025 314.503 195.025Z" fill="#CCCCCC"/>
<path d="M153.855 195.025C153.703 195.025 153.555 194.98 153.428 194.895C153.302 194.811 153.204 194.691 153.145 194.551C153.087 194.41 153.072 194.256 153.102 194.107C153.131 193.958 153.204 193.821 153.312 193.714L226.863 120.162C226.934 120.091 227.019 120.035 227.112 119.996C227.205 119.957 227.305 119.938 227.406 119.938C227.507 119.937 227.607 119.957 227.7 119.996C227.793 120.035 227.878 120.091 227.949 120.162C228.021 120.234 228.077 120.318 228.116 120.412C228.154 120.505 228.174 120.605 228.174 120.706C228.174 120.806 228.154 120.906 228.116 121C228.077 121.093 228.021 121.177 227.949 121.249L154.398 194.8C154.327 194.871 154.242 194.928 154.149 194.967C154.056 195.005 153.956 195.025 153.855 195.025Z" fill="#CCCCCC"/>
<path d="M234.179 193.204C218.605 193.204 203.381 188.586 190.433 179.934C177.484 171.282 167.391 158.984 161.431 144.596C155.472 130.208 153.912 114.376 156.951 99.1014C159.989 83.8271 167.488 69.7967 178.5 58.7845C189.513 47.7724 203.543 40.273 218.817 37.2347C234.092 34.1965 249.924 35.7558 264.312 41.7156C278.7 47.6753 290.998 57.7678 299.65 70.7167C308.302 83.6657 312.92 98.8895 312.92 114.463C312.897 135.339 304.593 155.354 289.831 170.116C275.07 184.877 255.055 193.181 234.179 193.204ZM234.179 37.2581C218.909 37.2581 203.982 41.7861 191.286 50.2695C178.59 58.7529 168.694 70.8107 162.851 84.918C157.007 99.0254 155.478 114.549 158.457 129.525C161.436 144.501 168.789 158.258 179.587 169.055C190.384 179.853 204.141 187.206 219.117 190.185C234.093 193.164 249.617 191.635 263.724 185.791C277.831 179.948 289.889 170.052 298.372 157.356C306.856 144.66 311.384 129.733 311.384 114.463C311.361 93.9942 303.219 74.3702 288.745 59.8965C274.272 45.4228 254.648 37.2813 234.179 37.2581Z" fill="#CCCCCC"/>
<path d="M234.179 123.682C239.271 123.682 243.398 119.554 243.398 114.463C243.398 109.372 239.271 105.245 234.179 105.245C229.088 105.245 224.961 109.372 224.961 114.463C224.961 119.554 229.088 123.682 234.179 123.682Z" fill="#3F3D56"/>
<path d="M198.491 270.175L190.392 270.409L229.921 110.856L237.269 113.098L198.491 270.175Z" fill="#3F3D56"/>
<path d="M269.867 270.175L277.966 270.409L238.437 110.856L231.089 113.098L269.867 270.175Z" fill="#3F3D56"/>
<path d="M246.47 23.8145H221.119V37.6422H246.47V23.8145Z" fill="#CCCCCC"/>
<path d="M232.643 26.8872H222.656V37.6421H232.643V26.8872Z" fill="white"/>
<path d="M244.934 26.8872H234.947V37.6421H244.934V26.8872Z" fill="white"/>
<path d="M233.795 52.6223C229.925 52.6179 226.215 51.0787 223.479 48.3424C220.743 45.6061 219.204 41.8961 219.199 38.0263V37.6422C219.2 36.7257 219.565 35.847 220.213 35.199C220.861 34.5509 221.74 34.1863 222.656 34.1853H244.934C245.851 34.1863 246.729 34.5509 247.377 35.199C248.026 35.847 248.39 36.7257 248.391 37.6422V38.0263C248.387 41.8961 246.848 45.6061 244.111 48.3424C241.375 51.0787 237.665 52.6179 233.795 52.6223Z" fill="#CCCCCC"/>
<path d="M245.521 27.2715H222.069C221.742 27.2715 221.42 27.1878 221.134 27.0284C220.848 26.869 220.607 26.6391 220.435 26.3607C220.263 26.0822 220.165 25.7643 220.15 25.4372C220.136 25.1102 220.205 24.7848 220.351 24.492L224.961 15.2735C225.119 14.9537 225.364 14.6847 225.668 14.4971C225.971 14.3095 226.321 14.2107 226.678 14.2119H240.912C241.268 14.2107 241.619 14.3095 241.922 14.4971C242.226 14.6847 242.471 14.9537 242.629 15.2735L247.239 24.492C247.385 24.7848 247.454 25.1102 247.439 25.4372C247.425 25.7643 247.327 26.0821 247.155 26.3606C246.982 26.6391 246.742 26.869 246.456 27.0284C246.17 27.1878 245.848 27.2715 245.521 27.2715Z" fill="#00954A"/>
<path d="M314.841 54.5427H289.49V68.3705H314.841V54.5427Z" fill="#CCCCCC"/>
<path d="M301.013 57.6157H291.026V68.3706H301.013V57.6157Z" fill="white"/>
<path d="M313.304 57.6157H303.317V68.3706H313.304V57.6157Z" fill="white"/>
<path d="M302.165 83.3506C298.296 83.3462 294.586 81.807 291.849 79.0707C289.113 76.3343 287.574 72.6244 287.569 68.7546V68.3705C287.57 67.454 287.935 66.5753 288.583 65.9272C289.231 65.2792 290.11 64.9146 291.026 64.9136H313.304C314.221 64.9146 315.1 65.2792 315.748 65.9272C316.396 66.5753 316.76 67.454 316.761 68.3705V68.7546C316.757 72.6244 315.218 76.3343 312.481 79.0707C309.745 81.807 306.035 83.3462 302.165 83.3506Z" fill="#CCCCCC"/>
<path d="M295.049 45.7085C294.835 45.7078 294.625 45.7671 294.442 45.8797C294.26 45.9922 294.113 46.1536 294.018 46.3454L289.409 55.5639C289.321 55.7396 289.279 55.9348 289.288 56.1311C289.297 56.3273 289.356 56.518 289.459 56.6852C289.562 56.8523 289.707 56.9902 289.878 57.0858C290.05 57.1815 290.243 57.2317 290.439 57.2316H313.891C314.088 57.2317 314.281 57.1815 314.452 57.0858C314.624 56.9902 314.768 56.8523 314.871 56.6852C314.975 56.518 315.034 56.3273 315.042 56.1311C315.051 55.9348 315.01 55.7396 314.922 55.5639L310.313 46.3454C310.217 46.1536 310.07 45.9922 309.888 45.8797C309.706 45.7671 309.496 45.7078 309.282 45.7085H295.049Z" fill="black"/>
<path d="M341.728 123.682H316.377V137.509H341.728V123.682Z" fill="#CCCCCC"/>
<path d="M327.901 126.754H317.914V137.509H327.901V126.754Z" fill="white"/>
<path d="M340.192 126.754H330.205V137.509H340.192V126.754Z" fill="white"/>
<path d="M329.053 152.489C325.183 152.485 321.473 150.946 318.737 148.209C316.001 145.473 314.461 141.763 314.457 137.893V137.509C314.458 136.593 314.823 135.714 315.471 135.066C316.119 134.418 316.997 134.053 317.914 134.052H340.192C341.109 134.053 341.987 134.418 342.635 135.066C343.283 135.714 343.648 136.593 343.649 137.509V137.893C343.645 141.763 342.105 145.473 339.369 148.209C336.633 150.946 332.923 152.485 329.053 152.489Z" fill="#CCCCCC"/>
<path d="M340.779 127.138H317.327C316.999 127.138 316.678 127.055 316.392 126.895C316.106 126.736 315.865 126.506 315.693 126.228C315.521 125.949 315.423 125.631 315.408 125.304C315.393 124.977 315.463 124.652 315.609 124.359L320.218 115.14C320.377 114.821 320.622 114.552 320.925 114.364C321.229 114.176 321.579 114.078 321.936 114.079H336.169C336.526 114.078 336.876 114.176 337.18 114.364C337.484 114.552 337.729 114.821 337.887 115.14L342.496 124.359C342.643 124.652 342.712 124.977 342.697 125.304C342.683 125.631 342.585 125.949 342.412 126.228C342.24 126.506 342 126.736 341.714 126.895C341.428 127.055 341.106 127.138 340.779 127.138Z" fill="#A0616A"/>
<path d="M313.304 188.211H287.953V202.039H313.304V188.211Z" fill="#CCCCCC"/>
<path d="M299.477 191.284H289.49V202.039H299.477V191.284Z" fill="white"/>
<path d="M311.768 191.284H301.781V202.039H311.768V191.284Z" fill="white"/>
<path d="M300.629 217.019C296.759 217.014 293.049 215.475 290.313 212.739C287.577 210.003 286.038 206.293 286.033 202.423V202.039C286.034 201.122 286.399 200.243 287.047 199.595C287.695 198.947 288.574 198.583 289.49 198.582H311.768C312.685 198.583 313.563 198.947 314.211 199.595C314.86 200.243 315.224 201.122 315.225 202.039V202.423C315.221 206.293 313.682 210.003 310.945 212.739C308.209 215.475 304.499 217.014 300.629 217.019Z" fill="#CCCCCC"/>
<path d="M312.355 191.668H288.903C288.576 191.668 288.254 191.584 287.968 191.425C287.682 191.265 287.441 191.036 287.269 190.757C287.097 190.479 286.999 190.161 286.984 189.834C286.97 189.507 287.039 189.181 287.185 188.888L291.795 179.67C291.953 179.35 292.198 179.081 292.502 178.894C292.805 178.706 293.155 178.607 293.512 178.608H307.746C308.102 178.607 308.453 178.706 308.756 178.894C309.06 179.081 309.305 179.35 309.463 179.67L314.073 188.888C314.219 189.181 314.288 189.507 314.273 189.834C314.259 190.161 314.161 190.479 313.989 190.757C313.816 191.036 313.576 191.265 313.29 191.425C313.004 191.584 312.682 191.668 312.355 191.668Z" fill="#2F2E41"/>
<path d="M153.517 68.3706H178.868V54.5429H153.517V68.3706Z" fill="#CCCCCC"/>
<path d="M167.344 68.3706H177.331V57.6157H167.344V68.3706Z" fill="white"/>
<path d="M155.053 68.3706H165.04V57.6157H155.053V68.3706Z" fill="white"/>
<path d="M166.193 83.3506C162.323 83.3462 158.613 81.807 155.877 79.0707C153.14 76.3343 151.601 72.6244 151.597 68.7546V68.3705C151.598 67.454 151.962 66.5753 152.61 65.9272C153.258 65.2792 154.137 64.9146 155.054 64.9136H177.332C178.248 64.9146 179.127 65.2792 179.775 65.9272C180.423 66.5753 180.788 67.454 180.789 68.3705V68.7546C180.784 72.6244 179.245 76.3343 176.509 79.0707C173.772 81.807 170.062 83.3462 166.193 83.3506Z" fill="#CCCCCC"/>
<path d="M177.918 57.9997H154.467C154.139 57.9998 153.817 57.9161 153.531 57.7567C153.245 57.5973 153.005 57.3674 152.833 57.0889C152.661 56.8104 152.563 56.4925 152.548 56.1655C152.533 55.8384 152.602 55.513 152.749 55.2202L157.358 46.0017C157.517 45.682 157.761 45.413 158.065 45.2254C158.369 45.0377 158.719 44.9389 159.076 44.9402H173.309C173.666 44.9389 174.016 45.0377 174.32 45.2254C174.623 45.413 174.868 45.682 175.027 46.0017L179.636 55.2202C179.782 55.513 179.852 55.8384 179.837 56.1655C179.822 56.4925 179.724 56.8104 179.552 57.0889C179.38 57.3674 179.14 57.5973 178.854 57.7567C178.568 57.9161 178.246 57.9998 177.918 57.9997Z" fill="#0153AD"/>
<path d="M126.63 137.509H151.98V123.682H126.63V137.509Z" fill="#CCCCCC"/>
<path d="M140.458 137.509H150.444V126.754H140.458V137.509Z" fill="white"/>
<path d="M128.167 137.509H138.153V126.754H128.167V137.509Z" fill="white"/>
<path d="M139.305 152.489C135.435 152.485 131.725 150.946 128.989 148.209C126.253 145.473 124.713 141.763 124.709 137.893V137.509C124.71 136.593 125.075 135.714 125.723 135.066C126.371 134.418 127.249 134.053 128.166 134.052H150.444C151.36 134.053 152.239 134.418 152.887 135.066C153.535 135.714 153.9 136.593 153.901 137.509V137.893C153.897 141.763 152.357 145.473 149.621 148.209C146.885 150.946 143.175 152.485 139.305 152.489Z" fill="#CCCCCC"/>
<path d="M151.031 127.138H127.579C127.251 127.138 126.929 127.055 126.644 126.895C126.358 126.736 126.117 126.506 125.945 126.228C125.773 125.949 125.675 125.631 125.66 125.304C125.645 124.977 125.715 124.652 125.861 124.359L130.47 115.14C130.629 114.821 130.874 114.552 131.177 114.364C131.481 114.176 131.831 114.078 132.188 114.079H146.421C146.778 114.078 147.128 114.176 147.432 114.364C147.736 114.552 147.981 114.821 148.139 115.14L152.748 124.359C152.895 124.652 152.964 124.977 152.949 125.304C152.935 125.631 152.836 125.949 152.664 126.228C152.492 126.506 152.252 126.736 151.966 126.895C151.68 127.055 151.358 127.138 151.031 127.138Z" fill="#F0B518"/>
<path d="M155.053 202.039H180.404V188.211H155.053V202.039Z" fill="#CCCCCC"/>
<path d="M168.881 202.039H178.868V191.284H168.881V202.039Z" fill="white"/>
<path d="M156.589 202.039H166.576V191.284H156.589V202.039Z" fill="white"/>
<path d="M167.729 217.019C163.859 217.014 160.149 215.475 157.413 212.739C154.676 210.003 153.137 206.293 153.133 202.423V202.039C153.134 201.122 153.498 200.243 154.146 199.595C154.795 198.947 155.673 198.583 156.59 198.582H178.868C179.784 198.583 180.663 198.947 181.311 199.595C181.959 200.243 182.324 201.122 182.325 202.039V202.423C182.32 206.293 180.781 210.003 178.045 212.739C175.308 215.475 171.599 217.014 167.729 217.019Z" fill="#CCCCCC"/>
<path d="M179.454 191.668H156.003C155.675 191.668 155.353 191.584 155.067 191.425C154.781 191.265 154.541 191.036 154.369 190.757C154.197 190.479 154.099 190.161 154.084 189.834C154.069 189.507 154.138 189.181 154.285 188.888L158.894 179.67C159.053 179.35 159.298 179.081 159.601 178.894C159.905 178.706 160.255 178.607 160.612 178.608H174.845C175.202 178.607 175.552 178.706 175.856 178.894C176.159 179.081 176.404 179.35 176.563 179.67L181.172 188.888C181.319 189.181 181.388 189.507 181.373 189.834C181.358 190.161 181.26 190.479 181.088 190.757C180.916 191.036 180.676 191.265 180.39 191.425C180.104 191.584 179.782 191.668 179.454 191.668Z" fill="#FF6565"/>
<path d="M246.47 217.403H221.119V231.231H246.47V217.403Z" fill="#CCCCCC"/>
<path d="M232.643 220.476H222.656V231.231H232.643V220.476Z" fill="white"/>
<path d="M244.934 220.476H234.947V231.231H244.934V220.476Z" fill="white"/>
<path d="M222.656 228.542C221.943 228.543 221.259 228.826 220.755 229.33C220.251 229.834 219.968 230.518 219.967 231.231V231.615C219.967 235.282 221.424 238.799 224.017 241.393C226.61 243.986 230.127 245.443 233.795 245.443C237.462 245.443 240.979 243.986 243.572 241.393C246.165 238.799 247.622 235.282 247.622 231.615V231.231C247.621 230.518 247.338 229.834 246.834 229.33C246.33 228.826 245.646 228.543 244.934 228.542H222.656Z" fill="#CCCCCC"/>
<path d="M226.679 208.569C226.464 208.568 226.254 208.627 226.072 208.74C225.89 208.852 225.743 209.014 225.648 209.206L221.039 218.424C220.951 218.6 220.909 218.795 220.918 218.991C220.927 219.187 220.986 219.378 221.089 219.545C221.192 219.712 221.337 219.85 221.508 219.946C221.68 220.042 221.873 220.092 222.069 220.092H245.521C245.718 220.092 245.911 220.042 246.082 219.946C246.254 219.85 246.398 219.712 246.501 219.545C246.605 219.378 246.663 219.187 246.672 218.991C246.681 218.795 246.64 218.6 246.552 218.424L241.942 209.206C241.847 209.014 241.7 208.852 241.518 208.74C241.336 208.627 241.126 208.568 240.912 208.569H226.679Z" fill="#6C59E5"/>
<path d="M406.418 247.363C406.622 247.363 406.817 247.282 406.961 247.138C407.105 246.994 407.186 246.799 407.186 246.595C407.186 246.391 407.105 246.196 406.961 246.052C406.817 245.908 406.622 245.827 406.418 245.827H399.12V242.754H406.418C406.622 242.754 406.817 242.673 406.961 242.529C407.105 242.385 407.186 242.189 407.186 241.986C407.186 241.782 407.105 241.587 406.961 241.442C406.817 241.298 406.622 241.218 406.418 241.218H344.193C343.989 241.218 343.794 241.298 343.65 241.442C343.506 241.587 343.425 241.782 343.425 241.986C343.425 242.189 343.506 242.385 343.65 242.529C343.794 242.673 343.989 242.754 344.193 242.754H351.491V245.827H344.193C343.989 245.827 343.794 245.908 343.65 246.052C343.506 246.196 343.425 246.391 343.425 246.595C343.425 246.799 343.506 246.994 343.65 247.138C343.794 247.282 343.989 247.363 344.193 247.363H351.491V250.436H344.193C343.989 250.436 343.794 250.517 343.65 250.661C343.506 250.805 343.425 251 343.425 251.204C343.425 251.408 343.506 251.603 343.65 251.747C343.794 251.891 343.989 251.972 344.193 251.972H351.491V255.045H344.961C344.554 255.045 344.163 255.207 343.875 255.495C343.587 255.783 343.425 256.174 343.425 256.582C343.425 256.989 343.587 257.38 343.875 257.668C344.163 257.956 344.554 258.118 344.961 258.118H351.177C351.132 258.241 351.108 258.371 351.107 258.502V269.257C351.107 269.563 351.228 269.856 351.444 270.072C351.66 270.288 351.954 270.409 352.259 270.409C352.565 270.409 352.858 270.288 353.074 270.072C353.29 269.856 353.412 269.563 353.412 269.257V258.502C353.41 258.371 353.386 258.241 353.341 258.118H397.27C397.225 258.241 397.201 258.371 397.199 258.502V269.257C397.199 269.563 397.321 269.856 397.537 270.072C397.753 270.288 398.046 270.409 398.352 270.409C398.657 270.409 398.95 270.288 399.167 270.072C399.383 269.856 399.504 269.563 399.504 269.257V258.502C399.503 258.371 399.479 258.241 399.433 258.118H405.65C406.057 258.118 406.448 257.956 406.736 257.668C407.024 257.38 407.186 256.989 407.186 256.582C407.186 256.174 407.024 255.783 406.736 255.495C406.448 255.207 406.057 255.045 405.65 255.045H399.12V251.972H406.418C406.622 251.972 406.817 251.891 406.961 251.747C407.105 251.603 407.186 251.408 407.186 251.204C407.186 251 407.105 250.805 406.961 250.661C406.817 250.517 406.622 250.436 406.418 250.436H399.12V247.363H406.418ZM353.027 242.754H397.583V245.827H353.027V242.754ZM397.583 255.045H353.027V251.972H397.583V255.045ZM397.583 250.436H353.027V247.363H397.583V250.436Z" fill="#3F3D56"/>
<path d="M145.227 247.363C145.431 247.363 145.627 247.282 145.771 247.138C145.915 246.994 145.996 246.799 145.996 246.595C145.996 246.391 145.915 246.196 145.771 246.052C145.627 245.908 145.431 245.827 145.227 245.827H137.929V242.754H145.227C145.431 242.754 145.627 242.673 145.771 242.529C145.915 242.385 145.996 242.189 145.996 241.986C145.996 241.782 145.915 241.587 145.771 241.442C145.627 241.298 145.431 241.218 145.227 241.218H83.0026C82.7988 241.218 82.6035 241.298 82.4594 241.442C82.3153 241.587 82.2344 241.782 82.2344 241.986C82.2344 242.189 82.3153 242.385 82.4594 242.529C82.6035 242.673 82.7988 242.754 83.0026 242.754H90.3006V245.827H83.0026C82.7988 245.827 82.6035 245.908 82.4594 246.052C82.3153 246.196 82.2344 246.391 82.2344 246.595C82.2344 246.799 82.3153 246.994 82.4594 247.138C82.6035 247.282 82.7988 247.363 83.0026 247.363H90.3006V250.436H83.0026C82.7988 250.436 82.6035 250.517 82.4594 250.661C82.3153 250.805 82.2344 251 82.2344 251.204C82.2344 251.408 82.3153 251.603 82.4594 251.747C82.6035 251.891 82.7988 251.972 83.0026 251.972H90.3006V255.045H83.7708C83.3633 255.045 82.9725 255.207 82.6844 255.495C82.3962 255.783 82.2344 256.174 82.2344 256.582C82.2344 256.989 82.3962 257.38 82.6844 257.668C82.9725 257.956 83.3633 258.118 83.7708 258.118H89.987C89.9417 258.241 89.9178 258.371 89.9165 258.502V269.257C89.9165 269.563 90.0379 269.856 90.254 270.072C90.4701 270.288 90.7632 270.409 91.0688 270.409C91.3744 270.409 91.6675 270.288 91.8836 270.072C92.0997 269.856 92.2211 269.563 92.2211 269.257V258.502C92.2198 258.371 92.1959 258.241 92.1506 258.118H136.079C136.034 258.241 136.01 258.371 136.009 258.502V269.257C136.009 269.563 136.13 269.856 136.346 270.072C136.563 270.288 136.856 270.409 137.161 270.409C137.467 270.409 137.76 270.288 137.976 270.072C138.192 269.856 138.314 269.563 138.314 269.257V258.502C138.312 258.371 138.288 258.241 138.243 258.118H144.459C144.867 258.118 145.258 257.956 145.546 257.668C145.834 257.38 145.996 256.989 145.996 256.582C145.996 256.174 145.834 255.783 145.546 255.495C145.258 255.207 144.867 255.045 144.459 255.045H137.93V251.972H145.227C145.431 251.972 145.627 251.891 145.771 251.747C145.915 251.603 145.996 251.408 145.996 251.204C145.996 251 145.915 250.805 145.771 250.661C145.627 250.517 145.431 250.436 145.227 250.436H137.93V247.363H145.227ZM91.837 242.754H136.393V245.827H91.837V242.754ZM136.393 255.045H91.837V251.972H136.393V255.045ZM136.393 250.436H91.837V247.363H136.393V250.436Z" fill="#3F3D56"/>
<path d="M387.213 243.138H384.908C384.603 243.138 384.31 243.016 384.094 242.8C383.878 242.584 383.756 242.291 383.756 241.986V239.681C383.756 239.376 383.878 239.083 384.094 238.867C384.31 238.651 384.603 238.529 384.908 238.529H387.213C387.518 238.529 387.811 238.651 388.027 238.867C388.243 239.083 388.365 239.376 388.365 239.681V241.986C388.365 242.291 388.243 242.584 388.027 242.8C387.811 243.016 387.518 243.138 387.213 243.138Z" fill="#CCCCCC"/>
<path d="M386.103 240.598C386.059 240.599 386.015 240.595 385.972 240.587C385.873 240.57 385.778 240.534 385.692 240.48C385.607 240.426 385.533 240.356 385.475 240.274C385.417 240.191 385.375 240.098 385.353 240C385.331 239.901 385.328 239.799 385.345 239.7L392.942 195.492C392.977 195.292 393.09 195.114 393.257 194.996C393.423 194.879 393.629 194.833 393.829 194.867C394.03 194.902 394.209 195.014 394.326 195.18C394.444 195.346 394.491 195.552 394.457 195.753L386.859 239.96C386.829 240.139 386.736 240.301 386.598 240.417C386.459 240.534 386.284 240.598 386.103 240.598Z" fill="#CCCCCC"/>
<path d="M386.102 240.599C385.921 240.598 385.746 240.534 385.607 240.417C385.469 240.301 385.376 240.139 385.346 239.961L377.748 195.753C377.714 195.552 377.761 195.346 377.878 195.179C377.996 195.013 378.175 194.9 378.375 194.866C378.576 194.831 378.782 194.878 378.949 194.995C379.115 195.113 379.228 195.292 379.263 195.493L386.86 239.7C386.877 239.8 386.874 239.901 386.852 240C386.83 240.098 386.788 240.191 386.73 240.274C386.672 240.356 386.598 240.426 386.513 240.48C386.427 240.534 386.332 240.57 386.233 240.587C386.19 240.595 386.146 240.599 386.102 240.599Z" fill="#CCCCCC"/>
<path d="M402.458 187.925C403.198 182.679 400.397 177.946 396.199 177.353C392.002 176.761 388 180.534 387.259 185.78C386.634 190.205 388.535 194.254 391.662 195.772L391.484 197.034L395.283 197.57L395.461 196.309C398.886 195.715 401.833 192.35 402.458 187.925Z" fill="#FF6565"/>
<path d="M384.815 185.538C383.906 180.318 379.784 176.677 375.608 177.404C371.432 178.131 368.784 182.952 369.693 188.172C370.46 192.574 373.514 195.843 376.956 196.326L377.175 197.58L380.955 196.922L380.737 195.667C383.813 194.049 385.582 189.94 384.815 185.538Z" fill="#CCCCCC"/>
<path d="M386.06 239.681C385.856 239.681 385.661 239.6 385.517 239.456C385.373 239.312 385.292 239.117 385.292 238.913V193.467C385.292 193.264 385.373 193.068 385.517 192.924C385.661 192.78 385.856 192.699 386.06 192.699C386.264 192.699 386.459 192.78 386.603 192.924C386.747 193.068 386.828 193.264 386.828 193.467V238.913C386.828 239.117 386.747 239.312 386.603 239.456C386.459 239.6 386.264 239.681 386.06 239.681Z" fill="#CCCCCC"/>
<path d="M393.259 184.738C393.259 179.44 389.823 175.145 385.584 175.145C381.345 175.145 377.909 179.44 377.909 184.738C377.909 189.207 380.357 192.951 383.665 194.017V195.291H387.503V194.017C390.811 192.951 393.259 189.207 393.259 184.738Z" fill="#6C59E5"/>
<path d="M545.8 271.59H0.914686C0.672095 271.59 0.439442 271.494 0.267905 271.322C0.096367 271.151 0 270.918 0 270.675C0 270.433 0.096367 270.2 0.267905 270.029C0.439442 269.857 0.672095 269.761 0.914686 269.761H545.8C546.043 269.761 546.276 269.857 546.447 270.029C546.619 270.2 546.715 270.433 546.715 270.675C546.715 270.918 546.619 271.151 546.447 271.322C546.276 271.494 546.043 271.59 545.8 271.59Z" fill="#CCCCCC"/>
<path d="M425.184 269.954L423.437 269.953L422.605 263.214H425.184V269.954Z" fill="#A0616A"/>
<path d="M421.939 269.454H425.558V271.576H420.066V271.327C420.066 271.081 420.115 270.837 420.209 270.61C420.303 270.383 420.441 270.177 420.615 270.003C420.789 269.829 420.995 269.691 421.223 269.597C421.45 269.503 421.693 269.454 421.939 269.454Z" fill="#2F2E41"/>
<path d="M437.862 267.974L436.273 268.7L432.717 262.915L435.062 261.844L437.862 267.974Z" fill="#A0616A"/>
<path d="M434.704 268.868L437.995 267.364L438.877 269.294L433.881 271.576L433.778 271.35C433.676 271.126 433.619 270.884 433.61 270.638C433.601 270.393 433.641 270.148 433.727 269.917C433.813 269.687 433.943 269.475 434.111 269.295C434.278 269.115 434.48 268.97 434.704 268.868Z" fill="#2F2E41"/>
<path d="M425.072 268.176H423.403C423.241 268.176 423.086 268.114 422.967 268.004C422.848 267.894 422.776 267.743 422.763 267.582L421.853 243.273C421.846 243.18 421.86 243.086 421.893 242.999C421.926 242.912 421.978 242.833 422.045 242.767C422.112 242.702 422.192 242.652 422.28 242.621C422.368 242.59 422.462 242.579 422.555 242.588L432.209 243.613C432.365 243.629 432.511 243.701 432.618 243.816C432.724 243.932 432.785 244.082 432.788 244.24L432.99 254.962C432.991 255.021 433.003 255.078 433.024 255.132L436.984 265.402C437.014 265.481 437.029 265.566 437.026 265.651C437.024 265.736 437.005 265.819 436.97 265.897C436.934 265.974 436.884 266.044 436.822 266.102C436.76 266.16 436.687 266.205 436.607 266.234L434.915 266.857C434.768 266.911 434.607 266.91 434.461 266.853C434.315 266.796 434.195 266.688 434.123 266.549L429.259 257.09C429.232 257.038 429.213 256.984 429.201 256.927L428.37 252.923C428.346 252.807 428.281 252.703 428.188 252.63C428.094 252.558 427.978 252.521 427.859 252.526C427.741 252.531 427.628 252.579 427.541 252.66C427.455 252.741 427.4 252.85 427.386 252.967L425.71 267.608C425.692 267.765 425.617 267.909 425.499 268.014C425.382 268.119 425.23 268.176 425.072 268.176Z" fill="#2F2E41"/>
<path d="M425.904 224.266C427.837 224.266 429.404 222.699 429.404 220.766C429.404 218.832 427.837 217.265 425.904 217.265C423.971 217.265 422.403 218.832 422.403 220.766C422.403 222.699 423.971 224.266 425.904 224.266Z" fill="#A0616A"/>
<path d="M428.317 245.491C426.06 245.463 423.85 244.832 421.919 243.662C421.819 243.601 421.738 243.514 421.685 243.41C421.632 243.306 421.608 243.189 421.617 243.073L422.468 230.905C422.523 230.084 422.769 229.287 423.187 228.578C423.604 227.869 424.182 227.267 424.874 226.821C425.535 226.384 426.289 226.107 427.076 226.014C427.863 225.92 428.661 226.012 429.406 226.281C429.734 226.395 430.045 226.556 430.327 226.759C431.234 227.405 431.946 228.288 432.386 229.311C432.825 230.334 432.976 231.459 432.821 232.561C432.197 237.296 432.904 243.682 432.986 244.395L432.992 244.446L432.945 244.468C431.496 245.142 429.916 245.491 428.317 245.491Z" fill="#0153AD"/>
<path d="M432.774 247.229C432.941 247.103 433.079 246.942 433.177 246.757C433.276 246.572 433.332 246.368 433.343 246.158C433.354 245.949 433.319 245.74 433.24 245.546C433.162 245.352 433.041 245.177 432.888 245.035L434.942 240.374L432.333 240.816L430.782 245.174C430.56 245.448 430.445 245.794 430.46 246.146C430.476 246.498 430.62 246.833 430.865 247.086C431.111 247.34 431.441 247.494 431.792 247.52C432.144 247.547 432.493 247.443 432.774 247.229Z" fill="#A0616A"/>
<path d="M432.97 244.35C432.881 244.35 432.793 244.332 432.712 244.296C432.631 244.26 432.558 244.208 432.498 244.142L431.732 243.307C431.658 243.225 431.606 243.126 431.581 243.018C431.556 242.91 431.559 242.798 431.59 242.692L433.344 236.756L430.675 231.153C430.558 230.906 430.53 230.627 430.594 230.362C430.651 230.13 430.777 229.92 430.956 229.76C431.134 229.601 431.357 229.499 431.595 229.469C431.832 229.438 432.073 229.481 432.286 229.59C432.499 229.7 432.674 229.871 432.787 230.082L436.394 235.935C436.535 236.162 436.617 236.421 436.634 236.688C436.651 236.954 436.603 237.221 436.493 237.464L433.555 243.973C433.512 244.07 433.445 244.154 433.361 244.219C433.276 244.283 433.177 244.325 433.072 244.342C433.038 244.348 433.004 244.35 432.97 244.35Z" fill="#0153AD"/>
<path d="M428.787 223.852C428.425 223.914 428.126 223.409 428.081 223.053C428.084 222.702 428.117 222.351 428.179 222.005C428.2 221.821 428.16 221.635 428.067 221.475C427.973 221.315 427.83 221.19 427.66 221.118C427.276 221.008 426.919 221.316 426.526 221.279C425.977 221.228 425.702 220.586 425.635 220.067C425.569 219.547 425.517 218.933 425.042 218.637C424.568 218.341 423.983 218.556 423.439 218.565C422.973 218.56 422.522 218.407 422.15 218.128C421.778 217.849 421.504 217.459 421.368 217.014C421.48 217.046 421.599 217.04 421.707 216.997C421.814 216.954 421.905 216.876 421.963 216.776C422.009 216.669 422.019 216.55 421.99 216.437C421.961 216.324 421.896 216.224 421.804 216.152L422.847 216.662C422.82 216.59 422.809 216.514 422.813 216.437C422.818 216.361 422.838 216.286 422.873 216.217C422.907 216.149 422.955 216.088 423.014 216.039C423.073 215.99 423.142 215.954 423.215 215.933C423.532 215.849 423.865 215.845 424.183 215.923C425.815 216.176 427.705 216.051 428.787 217.296C429.604 218.305 430.056 219.56 430.07 220.859C429.811 221.92 429.377 222.932 428.787 223.852Z" fill="#2F2E41"/>
<path d="M410.226 229.819C410.408 229.715 410.611 229.653 410.82 229.636C411.028 229.619 411.239 229.648 411.435 229.721C411.631 229.794 411.809 229.909 411.956 230.059C412.103 230.208 412.216 230.388 412.286 230.585L417.379 230.548L415.938 232.768L411.323 232.463C410.983 232.558 410.62 232.526 410.303 232.373C409.985 232.219 409.735 231.954 409.6 231.628C409.465 231.302 409.454 230.938 409.569 230.605C409.685 230.271 409.919 229.992 410.226 229.819Z" fill="#A0616A"/>
<path d="M412.877 232.239C412.859 232.152 412.859 232.062 412.877 231.975C412.896 231.888 412.932 231.806 412.984 231.734L413.646 230.814C413.711 230.725 413.797 230.653 413.898 230.607C413.998 230.561 414.109 230.541 414.219 230.55L420.176 230.3L425.329 227.301C425.546 227.137 425.814 227.052 426.086 227.061C426.326 227.069 426.557 227.15 426.749 227.292C426.942 227.434 427.087 227.632 427.165 227.858C427.243 228.084 427.251 228.329 427.187 228.56C427.123 228.79 426.991 228.996 426.808 229.151L421.813 233.875C421.619 234.059 421.383 234.193 421.126 234.264C420.868 234.335 420.597 234.342 420.336 234.284L413.366 232.735C413.262 232.712 413.166 232.664 413.085 232.594C413.005 232.525 412.943 232.437 412.906 232.337C412.893 232.305 412.884 232.272 412.877 232.239Z" fill="#0153AD"/>
<path d="M325.3 267.083C325.373 266.88 325.399 266.663 325.379 266.449C325.358 266.234 325.29 266.026 325.181 265.84C325.071 265.655 324.922 265.495 324.745 265.373C324.567 265.251 324.364 265.169 324.151 265.134L323.267 259.965L321.277 261.828L322.423 266.451C322.387 266.812 322.485 267.174 322.699 267.468C322.912 267.762 323.226 267.967 323.58 268.045C323.935 268.123 324.306 268.068 324.623 267.891C324.94 267.714 325.181 267.426 325.3 267.083Z" fill="#FFB8B8"/>
<path d="M323.978 264.61L322.025 265.123C321.932 265.147 321.834 265.134 321.751 265.086C321.667 265.038 321.606 264.96 321.579 264.868L318.07 252.434L317.01 249.262C316.908 248.957 316.884 248.63 316.942 248.313C317 247.996 317.137 247.699 317.341 247.449C317.545 247.199 317.808 247.005 318.107 246.885C318.406 246.764 318.731 246.721 319.05 246.76C319.421 246.804 319.77 246.956 320.055 247.197C320.34 247.438 320.548 247.757 320.654 248.114L323.458 257.593L324.249 264.212C324.258 264.286 324.244 264.36 324.21 264.426C324.175 264.491 324.122 264.545 324.057 264.58C324.032 264.593 324.005 264.603 323.978 264.61Z" fill="#00954A"/>
<path d="M316.841 244.662C318.832 244.662 320.446 243.049 320.446 241.058C320.446 239.068 318.832 237.454 316.841 237.454C314.851 237.454 313.237 239.068 313.237 241.058C313.237 243.049 314.851 244.662 316.841 244.662Z" fill="#FFB8B8"/>
<path d="M306.23 290.364L304.505 289.851L305.663 282.956L308.208 283.713L306.23 290.364Z" fill="#FFB8B8"/>
<path d="M306.172 292.166L300.612 290.512L300.633 290.442C300.718 290.157 300.857 289.893 301.044 289.663C301.231 289.432 301.462 289.241 301.722 289.1C301.983 288.959 302.269 288.87 302.564 288.84C302.859 288.809 303.157 288.837 303.441 288.921L306.837 289.932L306.172 292.166Z" fill="#2F2E41"/>
<path d="M325.121 290.276L323.322 290.275L322.466 283.336L324.24 283.337L325.121 290.276Z" fill="#FFB8B8"/>
<path d="M325.58 292.019L319.779 292.019V291.946C319.779 291.649 319.838 291.356 319.951 291.082C320.065 290.808 320.231 290.559 320.441 290.349C320.65 290.14 320.899 289.973 321.173 289.86C321.447 289.746 321.741 289.688 322.037 289.688L325.58 289.688L325.58 292.019Z" fill="#2F2E41"/>
<path d="M306.893 288.324H305.086C304.989 288.324 304.894 288.303 304.806 288.261C304.718 288.22 304.641 288.16 304.579 288.086C304.517 288.012 304.472 287.925 304.447 287.831C304.423 287.737 304.419 287.639 304.437 287.544C303.285 287.032 309.487 257.288 310.952 257.864L311.001 257.795L318.38 258.397C321.685 265.012 323.778 275.958 325.735 287.385C325.759 287.48 325.762 287.579 325.743 287.675C325.724 287.771 325.684 287.862 325.626 287.94C325.568 288.019 325.493 288.084 325.407 288.13C325.321 288.176 325.225 288.203 325.127 288.207L323.098 288.306C322.96 288.313 322.824 288.277 322.709 288.202C322.593 288.128 322.503 288.019 322.453 287.891L314.677 268.453C314.661 268.41 314.633 268.374 314.595 268.349C314.557 268.324 314.512 268.312 314.467 268.314C314.422 268.315 314.379 268.329 314.342 268.356C314.306 268.382 314.279 268.419 314.264 268.462L307.516 287.88C307.471 288.01 307.387 288.122 307.275 288.202C307.163 288.281 307.03 288.324 306.893 288.324Z" fill="#2F2E41"/>
<path d="M318.534 258.979L318.478 258.975L310.621 258.382L311.999 249.617C312.15 248.639 312.614 247.735 313.321 247.042C314.027 246.349 314.939 245.903 315.921 245.77C315.981 245.762 316.042 245.753 316.103 245.745C316.874 245.644 317.657 245.742 318.379 246.031C319.101 246.32 319.736 246.79 320.224 247.395C320.724 248.003 321.059 248.73 321.196 249.506C321.334 250.281 321.27 251.079 321.01 251.822L318.534 258.979Z" fill="#00954A"/>
<path d="M323.84 245.181C321.362 246.315 318 246.112 314.155 245.181C314.687 243.724 315.102 242.316 314.632 241.283C314.442 240.893 314.334 240.468 314.317 240.035C314.299 239.601 314.371 239.169 314.528 238.765C314.897 237.883 315.518 237.13 316.313 236.601C317.108 236.072 318.042 235.789 318.998 235.789C320.282 235.789 321.514 236.3 322.422 237.208C323.33 238.116 323.84 239.348 323.84 240.632L323.84 245.181Z" fill="#2F2E41"/>
<path d="M315.89 236.119H318.557V239.909H312.101C312.101 239.411 312.199 238.918 312.389 238.458C312.579 237.998 312.859 237.581 313.211 237.229C313.562 236.877 313.98 236.598 314.44 236.407C314.9 236.217 315.393 236.119 315.89 236.119Z" fill="#2F2E41"/>
<path d="M310.452 267.899C310.611 267.753 310.736 267.574 310.819 267.375C310.901 267.175 310.939 266.96 310.929 266.745C310.92 266.529 310.863 266.318 310.763 266.127C310.663 265.936 310.522 265.769 310.351 265.638L311.991 260.657L309.361 261.371L308.207 265.991C308.006 266.294 307.923 266.659 307.974 267.019C308.024 267.379 308.205 267.707 308.482 267.942C308.759 268.177 309.112 268.303 309.476 268.295C309.839 268.287 310.186 268.146 310.452 267.899Z" fill="#FFB8B8"/>
<path d="M310.443 265.095L308.478 264.632C308.385 264.61 308.304 264.552 308.252 264.471C308.201 264.39 308.183 264.292 308.203 264.198L310.93 251.569L311.48 248.27C311.533 247.953 311.665 247.653 311.865 247.4C312.065 247.148 312.325 246.949 312.622 246.824C312.919 246.699 313.243 246.651 313.563 246.684C313.884 246.718 314.191 246.832 314.455 247.016C314.762 247.229 314.999 247.527 315.138 247.873C315.277 248.219 315.311 248.599 315.237 248.964L313.272 258.652L310.869 264.87C310.843 264.939 310.795 264.998 310.734 265.04C310.673 265.082 310.601 265.104 310.527 265.104C310.499 265.104 310.471 265.101 310.443 265.095Z" fill="#00954A"/>
<path d="M371.182 237.648C371.106 237.668 371.032 237.693 370.96 237.724L365.055 233.915L365.137 232.21L362.579 231.751L362.142 234.755C362.106 234.998 362.151 235.246 362.268 235.461C362.385 235.676 362.57 235.848 362.793 235.95L370.065 239.27C370.101 239.569 370.228 239.851 370.428 240.077C370.628 240.303 370.893 240.463 371.186 240.535C371.479 240.608 371.787 240.589 372.07 240.482C372.352 240.375 372.595 240.184 372.766 239.935C372.938 239.686 373.029 239.391 373.029 239.089C373.029 238.787 372.936 238.493 372.764 238.244C372.592 237.996 372.349 237.806 372.066 237.7C371.783 237.593 371.475 237.575 371.182 237.648Z" fill="#FFB8B8"/>
<path d="M364.815 233.81L361.648 233.226C361.558 233.209 361.472 233.173 361.397 233.12C361.322 233.068 361.259 233 361.213 232.92C361.167 232.841 361.138 232.753 361.129 232.662C361.12 232.571 361.131 232.479 361.16 232.392L362.2 229.355C362.286 228.893 362.553 228.485 362.94 228.22C363.328 227.954 363.805 227.854 364.266 227.941C364.728 228.027 365.136 228.294 365.401 228.681C365.667 229.069 365.767 229.546 365.68 230.008L365.567 233.206C365.564 233.297 365.541 233.387 365.5 233.469C365.459 233.551 365.401 233.623 365.329 233.68C365.258 233.738 365.175 233.779 365.086 233.801C364.997 233.824 364.905 233.827 364.815 233.81Z" fill="#3F3D56"/>
<path d="M375.825 225.571C375.808 225.647 375.797 225.725 375.791 225.803L369.705 229.315L368.226 228.463L366.648 230.528L369.121 232.29C369.321 232.432 369.561 232.506 369.806 232.5C370.052 232.494 370.288 232.409 370.481 232.257L376.757 227.305C377.04 227.41 377.349 227.426 377.641 227.352C377.934 227.277 378.197 227.115 378.395 226.887C378.594 226.659 378.718 226.376 378.752 226.076C378.785 225.776 378.727 225.473 378.584 225.207C378.441 224.941 378.22 224.725 377.951 224.587C377.683 224.449 377.378 224.397 377.079 224.436C376.779 224.476 376.499 224.605 376.275 224.808C376.051 225.011 375.894 225.277 375.825 225.571Z" fill="#FFB8B8"/>
<path d="M369.502 229.481L367.535 232.031C367.479 232.103 367.408 232.163 367.327 232.205C367.246 232.248 367.157 232.273 367.065 232.278C366.974 232.283 366.882 232.268 366.797 232.234C366.712 232.201 366.635 232.149 366.571 232.083L364.344 229.771C363.973 229.483 363.732 229.059 363.673 228.593C363.614 228.127 363.743 227.657 364.031 227.286C364.319 226.915 364.743 226.674 365.209 226.615C365.675 226.557 366.145 226.685 366.516 226.973L369.309 228.535C369.389 228.58 369.458 228.641 369.512 228.715C369.566 228.789 369.604 228.874 369.622 228.964C369.64 229.053 369.639 229.146 369.619 229.235C369.598 229.325 369.558 229.408 369.502 229.481Z" fill="#CCCCCC"/>
<path d="M361.446 223.394C363.368 223.394 364.926 221.836 364.926 219.914C364.926 217.992 363.368 216.434 361.446 216.434C359.524 216.434 357.966 217.992 357.966 219.914C357.966 221.836 359.524 223.394 361.446 223.394Z" fill="#FFB8B8"/>
<path d="M364.731 269.741H366.468L367.294 263.041H364.73L364.731 269.741Z" fill="#FFB8B8"/>
<path d="M364.288 269.174L367.709 269.174C367.995 269.174 368.279 269.23 368.543 269.34C368.808 269.449 369.048 269.61 369.251 269.812C369.453 270.015 369.614 270.255 369.723 270.519C369.833 270.784 369.889 271.067 369.889 271.354V271.424L364.288 271.425L364.288 269.174Z" fill="#2F2E41"/>
<path d="M358.78 269.741H360.517L361.344 263.041H358.78V269.741Z" fill="#FFB8B8"/>
<path d="M358.337 269.174L361.758 269.174C362.044 269.174 362.328 269.23 362.592 269.34C362.857 269.449 363.097 269.61 363.299 269.812C363.502 270.015 363.662 270.255 363.772 270.519C363.882 270.784 363.938 271.067 363.938 271.354V271.424L358.337 271.425L358.337 269.174Z" fill="#2F2E41"/>
<path d="M364.21 267.198L362.438 253.489C362.437 253.471 362.429 253.454 362.415 253.441C362.402 253.429 362.384 253.422 362.366 253.423C362.357 253.423 362.348 253.424 362.339 253.427C362.331 253.431 362.323 253.436 362.316 253.442C362.31 253.448 362.305 253.456 362.301 253.465C362.298 253.473 362.296 253.482 362.296 253.491L361.787 267.001C361.781 267.166 361.712 267.322 361.593 267.437C361.474 267.551 361.315 267.615 361.15 267.615H359.046C358.879 267.616 358.719 267.551 358.599 267.434C358.48 267.318 358.412 267.159 358.408 266.992L357.862 244.483L367.278 244.577L367.513 267.159C367.511 267.249 367.49 267.337 367.452 267.418C367.413 267.499 367.358 267.571 367.29 267.629C367.223 267.687 367.145 267.73 367.06 267.755C366.976 267.78 366.887 267.788 366.8 267.777L364.759 267.782C364.615 267.762 364.481 267.694 364.381 267.587C364.281 267.481 364.221 267.344 364.21 267.198Z" fill="#2F2E41"/>
<path d="M357.723 245.099C357.617 245.059 357.525 244.991 357.454 244.903C357.383 244.815 357.337 244.71 357.32 244.599L357.226 232.228C356.81 229.474 356.318 226.775 358.726 225.379L358.938 224.742C358.961 224.674 359.005 224.614 359.063 224.57C359.122 224.527 359.192 224.503 359.264 224.5L363.833 224.37C363.904 224.367 363.974 224.387 364.034 224.425C364.094 224.463 364.141 224.519 364.168 224.584L364.508 225.377L364.629 225.446C365.777 226.1 366.706 227.078 367.301 228.258C367.895 229.438 368.129 230.767 367.972 232.078L367.711 234.284L367.526 244.59C367.523 244.703 367.491 244.813 367.432 244.91C367.373 245.007 367.29 245.086 367.191 245.14C365.899 245.812 364.458 246.148 363.002 246.116C361.197 246.083 359.411 245.739 357.723 245.099Z" fill="#CCCCCC"/>
<path d="M361.333 223.522C360.809 223.534 360.289 223.434 359.807 223.23C359.324 223.026 358.89 222.722 358.534 222.338C358.177 221.955 357.905 221.5 357.737 221.004C357.569 220.508 357.507 219.982 357.557 219.46C357.606 218.939 357.765 218.433 358.024 217.978C358.282 217.522 358.634 217.126 359.057 216.817C359.479 216.507 359.962 216.29 360.475 216.18C360.987 216.07 361.517 216.07 362.029 216.179C362.783 215.683 363.674 215.439 364.576 215.482C365.024 215.51 365.456 215.658 365.827 215.912C366.198 216.165 366.494 216.514 366.683 216.921C366.851 217.337 366.857 217.801 366.699 218.22C366.54 218.64 366.23 218.984 365.829 219.185C365.275 219.345 364.688 219.354 364.13 219.209C363.569 219.066 362.976 219.118 362.45 219.358C361.956 219.651 361.734 220.435 362.176 220.801C362.411 221.003 362.578 221.271 362.656 221.571C362.734 221.87 362.719 222.186 362.613 222.476C362.51 222.747 362.337 222.986 362.112 223.169C361.888 223.353 361.619 223.475 361.333 223.522Z" fill="#2F2E41"/>
<path d="M159.53 290.21H161.223L162.028 283.68H159.529L159.53 290.21Z" fill="#FFB8B8"/>
<path d="M158.783 292.166L158.783 289.343L162.432 289.342C163.079 289.343 163.699 289.6 164.157 290.058C164.614 290.515 164.871 291.135 164.872 291.782V292.166L158.783 292.166Z" fill="#2F2E41"/>
<path d="M150.405 290.21H152.097L152.903 283.68H150.404L150.405 290.21Z" fill="#FFB8B8"/>
<path d="M149.658 292.166L149.658 289.343L153.307 289.342C153.954 289.343 154.574 289.6 155.032 290.058C155.489 290.515 155.746 291.135 155.747 291.782V292.166L149.658 292.166Z" fill="#2F2E41"/>
<path d="M155.363 243.79C157.371 243.79 159 242.162 159 240.153C159 238.145 157.371 236.516 155.363 236.516C153.354 236.516 151.726 238.145 151.726 240.153C151.726 242.162 153.354 243.79 155.363 243.79Z" fill="#FFB8B8"/>
<path d="M167.8 263.873C167.774 263.671 167.705 263.478 167.597 263.306C167.488 263.134 167.344 262.989 167.173 262.879C167.002 262.769 166.81 262.698 166.609 262.671C166.407 262.643 166.203 262.66 166.009 262.721L163.976 260.284L162.194 261.158L165.113 264.559C165.236 264.878 165.472 265.14 165.776 265.297C166.079 265.454 166.43 265.494 166.761 265.409C167.092 265.324 167.381 265.121 167.572 264.838C167.764 264.555 167.845 264.212 167.8 263.873Z" fill="#FFB8B8"/>
<path d="M150.306 266.337C150.393 266.153 150.438 265.953 150.439 265.75C150.44 265.547 150.396 265.346 150.311 265.162C150.226 264.978 150.101 264.814 149.946 264.684C149.791 264.553 149.609 264.457 149.413 264.404L149.005 261.257L147.032 261.039L147.671 265.475C147.604 265.81 147.662 266.158 147.834 266.453C148.006 266.748 148.281 266.97 148.606 267.076C148.93 267.183 149.283 267.166 149.596 267.03C149.91 266.894 150.162 266.647 150.306 266.337Z" fill="#FFB8B8"/>
<path d="M152.323 247.023C152.129 246.775 151.874 246.582 151.582 246.464C151.29 246.346 150.973 246.307 150.661 246.351C150.349 246.395 150.055 246.52 149.807 246.714C149.559 246.909 149.367 247.165 149.25 247.457L146.269 254.896C145.964 255.657 145.867 256.484 145.988 257.294L146.959 263.833C146.971 263.918 147.002 263.999 147.048 264.07C147.095 264.141 147.156 264.202 147.229 264.247C147.301 264.293 147.382 264.322 147.466 264.334C147.551 264.345 147.637 264.338 147.718 264.313L148.998 263.92C149.13 263.879 149.244 263.793 149.32 263.677C149.396 263.561 149.428 263.422 149.412 263.285C148.961 259.435 149.557 255.535 151.139 251.996L152.545 248.853C152.677 248.556 152.727 248.229 152.687 247.907C152.648 247.585 152.522 247.279 152.323 247.023Z" fill="#CCCCCC"/>
<path d="M154.477 243.79C153.93 243.802 153.386 243.698 152.882 243.485C152.377 243.271 151.924 242.954 151.551 242.553C151.178 242.152 150.895 241.676 150.719 241.158C150.543 240.639 150.478 240.09 150.53 239.545C150.582 239 150.748 238.472 151.018 237.995C151.288 237.519 151.656 237.106 152.098 236.782C152.539 236.458 153.044 236.231 153.58 236.116C154.115 236.002 154.669 236.001 155.204 236.116C155.992 235.597 156.924 235.342 157.866 235.387C158.334 235.416 158.786 235.571 159.174 235.836C159.561 236.101 159.87 236.466 160.068 236.891C160.244 237.326 160.25 237.81 160.085 238.249C159.919 238.687 159.595 239.047 159.176 239.257C158.597 239.425 157.983 239.433 157.4 239.283C156.814 239.132 156.194 239.187 155.644 239.438C155.128 239.744 154.896 240.564 155.358 240.946C155.603 241.157 155.778 241.438 155.86 241.75C155.941 242.063 155.926 242.393 155.815 242.697C155.706 242.98 155.526 243.23 155.291 243.421C155.057 243.613 154.776 243.74 154.477 243.79Z" fill="#2F2E41"/>
<path d="M149.965 263.729L149.32 288.213C149.317 288.294 149.332 288.375 149.363 288.451C149.394 288.527 149.44 288.595 149.498 288.652C149.556 288.709 149.626 288.754 149.702 288.783C149.779 288.811 149.86 288.824 149.942 288.82L152.067 288.711C152.203 288.705 152.332 288.651 152.433 288.56C152.534 288.47 152.601 288.347 152.622 288.213L155.15 272.311C155.161 272.243 155.195 272.18 155.247 272.135C155.298 272.089 155.364 272.063 155.433 272.061C155.502 272.059 155.569 272.081 155.624 272.123C155.678 272.165 155.716 272.225 155.731 272.292L159.153 287.604C159.171 287.685 159.207 287.762 159.257 287.83C159.307 287.897 159.371 287.952 159.445 287.993C159.518 288.033 159.599 288.058 159.683 288.065C159.767 288.072 159.851 288.061 159.93 288.032L162.039 287.904C162.161 287.86 162.265 287.778 162.336 287.67C162.407 287.561 162.44 287.433 162.431 287.303L160.59 263.497L149.965 263.729Z" fill="#2F2E41"/>
<path d="M148.929 252.1C148.839 251.217 148.926 250.325 149.184 249.477C149.443 248.628 149.868 247.839 150.435 247.156C151.002 246.474 151.7 245.911 152.487 245.501C153.274 245.092 154.135 244.843 155.019 244.77C156.621 244.656 159.108 244.616 159.928 246.715C162.397 253.04 158.074 252.887 159.564 258.367C161.053 263.847 162.369 264.161 160.325 264.557C158.281 264.952 149.091 267.288 149.468 263.431C149.7 261.06 149.284 255.801 148.929 252.1Z" fill="#CCCCCC"/>
<path d="M159.491 246.072C159.197 245.958 158.879 245.924 158.568 245.973C158.257 246.021 157.965 246.151 157.72 246.349C157.475 246.547 157.287 246.806 157.174 247.1C157.062 247.394 157.028 247.712 157.078 248.023L158.239 255.278C158.437 256.518 158.962 257.684 159.759 258.655L163.529 263.249C163.583 263.315 163.651 263.369 163.728 263.406C163.804 263.443 163.888 263.464 163.973 263.466C164.059 263.468 164.143 263.451 164.222 263.417C164.3 263.384 164.37 263.333 164.427 263.27L165.323 262.275C165.415 262.172 165.469 262.04 165.474 261.902C165.48 261.763 165.436 261.627 165.352 261.517L165.088 261.175C162.895 258.329 161.511 254.943 161.083 251.375L160.622 247.527C160.583 247.205 160.457 246.899 160.258 246.643C160.059 246.386 159.794 246.189 159.491 246.072Z" fill="#CCCCCC"/>
<path d="M167.973 265.559C168.159 265.466 168.324 265.333 168.453 265.17C168.583 265.007 168.676 264.817 168.724 264.614C168.773 264.412 168.777 264.201 168.735 263.996C168.693 263.792 168.607 263.599 168.483 263.432L169.549 253.004H167.244L166.397 263.186C166.129 263.414 165.955 263.731 165.906 264.079C165.857 264.426 165.937 264.78 166.131 265.072C166.325 265.365 166.62 265.576 166.96 265.665C167.299 265.755 167.66 265.717 167.973 265.559Z" fill="#A0616A"/>
<path d="M170.089 247.249C171.89 247.249 173.35 245.789 173.35 243.988C173.35 242.188 171.89 240.728 170.089 240.728C168.288 240.728 166.828 242.188 166.828 243.988C166.828 245.789 168.288 247.249 170.089 247.249Z" fill="#A0616A"/>
<path d="M170.703 259.077C170.572 259.077 170.445 259.034 170.341 258.955C170.238 258.876 170.163 258.765 170.128 258.639C169.581 256.998 168.905 255.403 168.108 253.869C167.864 253.368 167.729 252.821 167.712 252.264C167.695 251.707 167.795 251.153 168.007 250.638C168.219 250.123 168.537 249.658 168.941 249.275C169.345 248.891 169.826 248.598 170.352 248.413C170.85 248.237 171.378 248.163 171.905 248.195C172.432 248.227 172.948 248.364 173.421 248.599C173.894 248.833 174.315 249.16 174.66 249.561C175.004 249.961 175.265 250.426 175.427 250.929C176.039 253.045 176.289 255.248 176.167 257.447C176.16 257.578 176.11 257.703 176.025 257.803C175.941 257.903 175.826 257.972 175.698 258L170.831 259.063C170.789 259.072 170.746 259.077 170.703 259.077Z" fill="#F0B518"/>
<path d="M175.416 290.042H177.044L177.818 283.764H175.415L175.416 290.042Z" fill="#A0616A"/>
<path d="M180.567 291.938H174.683L174.683 289.193H178.207C178.517 289.193 178.824 289.254 179.11 289.373C179.396 289.491 179.656 289.665 179.876 289.885C180.095 290.104 180.269 290.364 180.387 290.65C180.506 290.937 180.567 291.244 180.567 291.554L180.567 291.938Z" fill="#2F2E41"/>
<path d="M159.139 287.933L160.565 288.717L164.269 283.589L162.164 282.431L159.139 287.933Z" fill="#A0616A"/>
<path d="M162.74 292.076L157.584 289.241L158.906 286.835L161.994 288.533C162.542 288.835 162.949 289.342 163.123 289.943C163.298 290.544 163.227 291.19 162.925 291.739L162.74 292.076Z" fill="#2F2E41"/>
<path d="M175.34 286.558C175.195 286.558 175.055 286.505 174.946 286.409C174.837 286.313 174.766 286.181 174.748 286.037L172.712 270.351C172.703 270.281 172.672 270.216 172.624 270.166C172.576 270.115 172.514 270.08 172.445 270.067C172.376 270.054 172.305 270.063 172.242 270.093C172.178 270.123 172.126 270.172 172.092 270.233L163.609 285.625C163.539 285.751 163.426 285.847 163.291 285.897C163.156 285.946 163.007 285.946 162.873 285.895L161.023 285.191C160.949 285.162 160.881 285.119 160.824 285.064C160.766 285.009 160.72 284.943 160.688 284.87C160.656 284.797 160.64 284.719 160.639 284.639C160.638 284.56 160.653 284.481 160.683 284.407L166.56 269.97C166.575 269.933 166.585 269.895 166.59 269.856C167.386 263.695 169.411 260.562 170.013 259.748C170.057 259.689 170.086 259.619 170.097 259.546C170.108 259.472 170.102 259.397 170.079 259.327L169.996 259.079C169.963 258.98 169.956 258.875 169.976 258.773C169.996 258.671 170.043 258.576 170.111 258.498C172.279 256.028 176.058 257.376 176.096 257.39L176.115 257.397L176.127 257.413C180.365 263.224 178.798 282.1 178.441 285.825C178.427 285.965 178.365 286.096 178.265 286.194C178.164 286.293 178.032 286.353 177.892 286.363L175.386 286.556C175.371 286.557 175.355 286.558 175.34 286.558Z" fill="#2F2E41"/>
<path d="M182.766 247.776C182.75 247.848 182.739 247.921 182.735 247.994L177.031 251.284L175.645 250.486L174.167 252.421L176.484 254.072C176.671 254.206 176.896 254.275 177.126 254.269C177.356 254.264 177.578 254.184 177.758 254.041L183.639 249.402C183.905 249.5 184.194 249.515 184.468 249.445C184.742 249.375 184.989 249.223 185.174 249.01C185.36 248.796 185.477 248.531 185.508 248.25C185.54 247.969 185.485 247.684 185.351 247.435C185.217 247.186 185.01 246.983 184.759 246.854C184.507 246.725 184.221 246.676 183.941 246.713C183.66 246.75 183.398 246.872 183.188 247.062C182.978 247.251 182.831 247.501 182.766 247.776Z" fill="#A0616A"/>
<path d="M176.84 251.44L174.997 253.829C174.944 253.897 174.878 253.953 174.802 253.993C174.726 254.033 174.642 254.056 174.556 254.061C174.471 254.066 174.385 254.052 174.305 254.02C174.225 253.989 174.153 253.941 174.093 253.879L172.007 251.712C171.661 251.441 171.436 251.045 171.382 250.609C171.328 250.173 171.448 249.734 171.718 249.387C171.987 249.04 172.383 248.814 172.818 248.758C173.254 248.703 173.694 248.822 174.042 249.09L176.659 250.554C176.734 250.596 176.799 250.653 176.849 250.723C176.9 250.792 176.935 250.871 176.952 250.956C176.97 251.04 176.969 251.126 176.949 251.21C176.93 251.294 176.893 251.372 176.84 251.44Z" fill="#F0B518"/>
<path d="M169.696 255.591L166.727 255.055C166.642 255.039 166.562 255.006 166.491 254.957C166.421 254.908 166.362 254.844 166.318 254.77C166.275 254.696 166.247 254.614 166.239 254.529C166.23 254.443 166.239 254.357 166.267 254.275L167.229 251.425C167.31 250.993 167.558 250.611 167.92 250.362C168.282 250.113 168.728 250.018 169.16 250.097C169.592 250.177 169.975 250.424 170.225 250.785C170.475 251.147 170.572 251.592 170.493 252.025L170.399 255.022C170.397 255.107 170.376 255.192 170.337 255.269C170.299 255.346 170.245 255.413 170.178 255.467C170.111 255.521 170.034 255.56 169.951 255.582C169.867 255.603 169.781 255.606 169.696 255.591Z" fill="#6C59E5"/>
<path d="M170.605 243.238C171.443 243.812 172.543 244.402 173.399 243.791C173.667 243.587 173.862 243.302 173.954 242.978C174.046 242.654 174.031 242.309 173.911 241.995C173.501 240.823 172.374 240.307 171.298 239.911C169.929 239.293 168.407 239.1 166.928 239.356C165.483 239.724 164.205 241.124 164.466 242.592C164.676 243.773 165.79 244.756 165.632 245.945C165.473 247.141 164.127 247.771 162.939 247.985C161.751 248.199 160.422 248.267 159.568 249.121C158.479 250.209 158.751 252.155 159.776 253.304C160.895 254.376 162.315 255.083 163.846 255.329C165.831 255.798 167.979 256.044 169.864 255.266C171.75 254.487 173.218 252.391 172.671 250.425C172.384 249.61 171.943 248.858 171.372 248.21C170.801 247.561 170.372 246.799 170.114 245.974C170.022 245.626 170.011 245.261 170.084 244.908C170.157 244.555 170.311 244.224 170.534 243.941C170.618 243.849 170.671 243.733 170.685 243.609C170.699 243.486 170.674 243.36 170.613 243.252L170.605 243.238Z" fill="#2F2E41"/>
</g>
<defs>
<clipPath id="clip0_1180_2356">
<rect width="547" height="292.166" fill="white"/>
</clipPath>
</defs>
</svg>
