<svg width="396" height="217" viewBox="0 0 396 217" fill="none" xmlns="http://www.w3.org/2000/svg">
<g clip-path="url(#clip0_1177_2144)">
<path d="M53.2509 112.844H40.5777C40.1321 112.844 39.7047 113.021 39.3896 113.336C39.0745 113.652 38.8975 114.079 38.8975 114.525V120.087C38.8975 120.533 39.0745 120.96 39.3896 121.275C39.7047 121.59 40.1321 121.767 40.5777 121.767H42.6778V130.102H51.1508V121.767H53.2509C53.6966 121.767 54.1239 121.59 54.439 121.275C54.7541 120.96 54.9311 120.533 54.9311 120.087V114.525C54.9311 114.079 54.7541 113.652 54.439 113.336C54.1239 113.021 53.6966 112.844 53.2509 112.844Z" fill="#E4E4E4"/>
<path d="M65.9449 163.754C58.1834 152.397 54.2156 138.874 54.6098 125.124C54.6169 124.807 54.5139 124.497 54.3184 124.247C54.1229 123.997 53.8468 123.822 53.5372 123.753V121.349H40.1526V123.719H39.9681C39.7794 123.72 39.5927 123.759 39.4197 123.834C39.2467 123.91 39.0912 124.021 38.9629 124.159C38.8345 124.297 38.7361 124.461 38.6737 124.639C38.6113 124.817 38.5863 125.006 38.6003 125.195C39.6548 139.893 36.0941 153.075 27.9183 164.74C27.4479 165.41 27.2075 166.215 27.2333 167.033L28.6969 212.305C28.732 213.315 29.1559 214.272 29.8798 214.977C30.6038 215.682 31.572 216.079 32.5824 216.087H62.8565C63.8783 216.079 64.8566 215.672 65.5828 214.953C66.309 214.234 66.7258 213.26 66.7443 212.238L67.3083 168.283C67.325 166.67 66.8494 165.09 65.9449 163.754Z" fill="#00954A"/>
<path opacity="0.2" d="M50.6094 114.657C50.6094 115.618 50.2275 116.54 49.5477 117.22C48.8678 117.9 47.9458 118.282 46.9844 118.282C46.023 118.282 45.1009 117.9 44.4211 117.22C43.7413 116.54 43.3594 115.618 43.3594 114.657" fill="#151515"/>
<path d="M61.1523 178.792H57.4864C57.1364 176.52 55.9852 174.45 54.241 172.954C52.4968 171.458 50.2747 170.635 47.9769 170.635C45.679 170.635 43.457 171.458 41.7127 172.954C39.9685 174.45 38.8173 176.52 38.4673 178.792H34.8011C34.4111 178.792 34.0256 178.876 33.6712 179.039C33.3168 179.202 33.0018 179.439 32.7478 179.735C32.4938 180.031 32.3069 180.379 32.1997 180.754C32.0926 181.129 32.0679 181.523 32.1272 181.908L36.1092 207.792H58.9747L63.8114 181.996C63.8847 181.605 63.8709 181.203 63.7712 180.818C63.6714 180.433 63.4881 180.075 63.2342 179.769C62.9803 179.463 62.6622 179.217 62.3023 179.048C61.9425 178.879 61.5499 178.792 61.1523 178.792Z" fill="#E4E4E4"/>
<path d="M369.222 137.188L368.343 172.335L367.254 215.918H330.185L328.909 164.855L328.217 137.188H369.222Z" fill="#E6E6E6"/>
<path d="M351.179 118.49H345.931V188.035H351.179V118.49Z" fill="#F0B518"/>
<path d="M366.597 163.671L365.604 213.626H331.816L330.653 155.098C333.697 154.243 336.885 154.024 340.017 154.455C343.15 154.886 346.16 155.957 348.86 157.602C354.505 160.941 360.847 162.739 366.597 163.671Z" fill="black"/>
<path d="M340.181 169.294H335.365V174.111H340.181V169.294Z" fill="#E6E6E6"/>
<path d="M343.462 159.453H338.646V164.269H343.462V159.453Z" fill="#E6E6E6"/>
<path d="M353.804 166.266L349.936 163.397L347.067 167.265L350.935 170.134L353.804 166.266Z" fill="#E6E6E6"/>
<path d="M362.505 174.8L358.637 171.931L355.768 175.799L359.636 178.668L362.505 174.8Z" fill="#E6E6E6"/>
<path d="M347.743 179.72L343.875 176.851L341.006 180.72L344.874 183.589L347.743 179.72Z" fill="#E6E6E6"/>
<path d="M359.052 157.527C359.596 157.527 360.037 157.086 360.037 156.543C360.037 155.999 359.596 155.558 359.052 155.558C358.509 155.558 358.068 155.999 358.068 156.543C358.068 157.086 358.509 157.527 359.052 157.527Z" fill="#3F3D56"/>
<path d="M339.042 150.966C339.585 150.966 340.026 150.525 340.026 149.982C340.026 149.438 339.585 148.998 339.042 148.998C338.498 148.998 338.058 149.438 338.058 149.982C338.058 150.525 338.498 150.966 339.042 150.966Z" fill="#3F3D56"/>
<path d="M355.772 144.077C356.316 144.077 356.756 143.636 356.756 143.093C356.756 142.549 356.316 142.109 355.772 142.109C355.229 142.109 354.788 142.549 354.788 143.093C354.788 143.636 355.229 144.077 355.772 144.077Z" fill="#3F3D56"/>
<path d="M198.226 215.618C257.768 215.618 306.035 167.351 306.035 107.809C306.035 48.2678 257.768 0 198.226 0C138.685 0 90.417 48.2678 90.417 107.809C90.417 167.351 138.685 215.618 198.226 215.618Z" fill="#0153AD"/>
<path opacity="0.2" d="M198.227 186.5C180.021 186.499 162.379 180.187 148.306 168.637C134.234 157.088 124.601 141.016 121.049 123.161C117.498 105.305 120.247 86.7709 128.829 70.7153C137.411 54.6597 151.295 42.0765 168.114 35.1097C184.934 28.1429 203.648 27.2235 221.07 32.5083C238.491 37.7931 253.541 48.955 263.655 64.0921C273.77 79.2293 278.322 97.4051 276.538 115.523C274.754 133.64 266.742 150.579 253.869 163.452C246.579 170.782 237.908 176.593 228.356 180.549C218.805 184.505 208.564 186.528 198.227 186.5ZM198.227 33.972C157.513 33.972 124.389 67.0952 124.389 107.809C124.389 148.523 157.513 181.646 198.227 181.646C238.94 181.646 272.064 148.523 272.064 107.809C272.064 67.0952 238.94 33.972 198.227 33.972Z" fill="black"/>
<path d="M198.227 184.073C240.346 184.073 274.49 149.928 274.49 107.809C274.49 65.6898 240.346 31.5454 198.227 31.5454C156.107 31.5454 121.963 65.6898 121.963 107.809C121.963 149.928 156.107 184.073 198.227 184.073Z" fill="#002956"/>
<path d="M141.511 77.3144C140.932 76.1816 140.583 74.946 140.482 73.678C140.382 72.4101 140.532 71.1348 140.925 69.925C141.318 68.7153 141.945 67.5948 142.771 66.6276C143.597 65.6604 144.605 64.8655 145.739 64.2883C146.872 63.7111 148.108 63.363 149.376 63.2638C150.644 63.1647 151.919 63.3164 153.129 63.7103C154.338 64.1043 155.458 64.7327 156.424 65.5597C157.391 66.3867 158.184 67.3961 158.76 68.5301L180.307 110.841C180.885 111.973 181.235 113.209 181.335 114.477C181.436 115.745 181.285 117.02 180.893 118.23C180.5 119.44 179.873 120.56 179.047 121.528C178.221 122.495 177.212 123.29 176.079 123.867C174.945 124.444 173.709 124.792 172.441 124.891C171.173 124.99 169.898 124.839 168.689 124.445C167.48 124.051 166.36 123.422 165.393 122.595C164.427 121.768 163.633 120.759 163.057 119.625L141.511 77.3144Z" fill="#FF6584"/>
<path opacity="0.2" d="M143.914 82.0338L142.92 80.081C147.883 76.2247 153.711 73.3886 160.17 71.2966L161.164 73.2494C154.174 74.7051 148.227 77.399 143.914 82.0338Z" fill="black"/>
<path opacity="0.2" d="M148.555 91.1468L147.561 89.194C152.524 85.3377 158.351 82.5017 164.81 80.4097L165.805 82.3625C158.814 83.8181 152.867 86.5121 148.555 91.1468Z" fill="black"/>
<path opacity="0.2" d="M153.196 100.26L152.201 98.307C157.164 94.4508 162.992 91.6147 169.451 89.5227L170.445 91.4755C163.455 92.9312 157.508 95.6251 153.196 100.26Z" fill="black"/>
<path opacity="0.2" d="M157.836 109.373L156.842 107.42C161.805 103.564 167.633 100.728 174.092 98.6357L175.086 100.589C168.096 102.044 162.148 104.738 157.836 109.373Z" fill="black"/>
<path opacity="0.2" d="M162.477 118.486L161.482 116.533C166.445 112.677 172.273 109.841 178.732 107.749L179.727 109.702C172.736 111.157 166.789 113.851 162.477 118.486Z" fill="black"/>
<path d="M125.346 93.1541C124.768 92.0213 124.419 90.7857 124.318 89.5179C124.218 88.25 124.368 86.9748 124.761 85.7652C125.154 84.5555 125.781 83.4351 126.607 82.468C127.433 81.5009 128.441 80.706 129.575 80.1289C130.708 79.5518 131.944 79.2036 133.212 79.1044C134.48 79.0052 135.755 79.1569 136.964 79.5508C138.174 79.9446 139.293 80.5729 140.26 81.3998C141.226 82.2267 142.02 83.2359 142.596 84.3698L164.142 126.68C165.304 128.967 165.51 131.622 164.716 134.061C163.921 136.5 162.191 138.524 159.905 139.688C157.619 140.852 154.965 141.061 152.525 140.269C150.085 139.477 148.059 137.749 146.893 135.465L125.346 93.1541Z" fill="#FF6584"/>
<path opacity="0.2" d="M127.749 97.8732L126.755 95.9204C131.718 92.0642 137.546 89.2281 144.005 87.1361L144.999 89.0889C138.009 90.5446 132.061 93.2385 127.749 97.8732Z" fill="black"/>
<path opacity="0.2" d="M132.39 106.986L131.396 105.034C136.359 101.177 142.186 98.3413 148.645 96.2493L149.64 98.2021C142.649 99.6577 136.702 102.352 132.39 106.986Z" fill="black"/>
<path opacity="0.2" d="M137.031 116.099L136.036 114.147C140.999 110.29 146.827 107.454 153.286 105.362L154.28 107.315C147.29 108.771 141.343 111.465 137.031 116.099Z" fill="black"/>
<path opacity="0.2" d="M141.671 125.212L140.677 123.26C145.64 119.403 151.468 116.567 157.926 114.475L158.921 116.428C151.931 117.884 145.983 120.578 141.671 125.212Z" fill="black"/>
<path opacity="0.2" d="M146.313 134.325L145.318 132.373C150.281 128.516 156.109 125.68 162.568 123.588L163.563 125.541C156.572 126.997 150.625 129.691 146.313 134.325Z" fill="black"/>
<path d="M249.185 110.236L249.253 110.236C251.574 110.255 253.846 109.575 255.775 108.283C257.703 106.992 259.197 105.149 260.062 102.995C261.842 98.4973 262.738 93.6987 262.704 88.8616C262.583 68.3879 245.926 51.5916 225.454 51.3084C216.735 51.1863 208.243 54.0829 201.416 59.5072C194.589 64.9314 189.848 72.5495 187.996 81.0701C186.144 89.5907 187.296 98.4895 191.256 106.258C195.215 114.026 201.74 120.187 209.722 123.694C211.832 124.628 214.175 124.903 216.443 124.482C218.712 124.062 220.8 122.965 222.434 121.337C225.94 117.813 230.109 115.018 234.7 113.112C239.291 111.207 244.214 110.229 249.185 110.236Z" fill="#E6E6E6"/>
<path d="M229.772 98.7962C236.664 98.7962 242.251 93.2089 242.251 86.3167C242.251 79.4244 236.664 73.8372 229.772 73.8372C222.879 73.8372 217.292 79.4244 217.292 86.3167C217.292 93.2089 222.879 98.7962 229.772 98.7962Z" fill="#F9A825"/>
<path d="M202.65 84.9133C203.462 84.9133 204.12 84.2551 204.12 83.4432C204.12 82.6312 203.462 81.973 202.65 81.973C201.838 81.973 201.18 82.6312 201.18 83.4432C201.18 84.2551 201.838 84.9133 202.65 84.9133Z" fill="#3F3D56"/>
<path d="M154.118 86.2999C154.93 86.2999 155.588 85.6417 155.588 84.8298C155.588 84.0178 154.93 83.3596 154.118 83.3596C153.306 83.3596 152.647 84.0178 152.647 84.8298C152.647 85.6417 153.306 86.2999 154.118 86.2999Z" fill="#3F3D56"/>
<path d="M210.485 69.6772C211.297 69.6772 211.955 69.019 211.955 68.2071C211.955 67.3951 211.297 66.7369 210.485 66.7369C209.673 66.7369 209.015 67.3951 209.015 68.2071C209.015 69.019 209.673 69.6772 210.485 69.6772Z" fill="#3F3D56"/>
<path d="M210.443 112.053C211.255 112.053 211.913 111.394 211.913 110.582C211.913 109.771 211.255 109.112 210.443 109.112C209.631 109.112 208.973 109.771 208.973 110.582C208.973 111.394 209.631 112.053 210.443 112.053Z" fill="#3F3D56"/>
<path d="M239.562 66.641C240.374 66.641 241.032 65.9828 241.032 65.1708C241.032 64.3589 240.374 63.7007 239.562 63.7007C238.75 63.7007 238.092 64.3589 238.092 65.1708C238.092 65.9828 238.75 66.641 239.562 66.641Z" fill="#3F3D56"/>
<path d="M144.579 106.853C145.39 106.853 146.049 106.195 146.049 105.383C146.049 104.571 145.39 103.912 144.579 103.912C143.767 103.912 143.108 104.571 143.108 105.383C143.108 106.195 143.767 106.853 144.579 106.853Z" fill="#3F3D56"/>
<path d="M155.325 127.999C156.137 127.999 156.795 127.34 156.795 126.528C156.795 125.717 156.137 125.058 155.325 125.058C154.513 125.058 153.854 125.717 153.854 126.528C153.854 127.34 154.513 127.999 155.325 127.999Z" fill="#3F3D56"/>
<path d="M222.838 134.848C225.902 134.848 228.385 132.365 228.385 129.302C228.385 126.238 225.902 123.755 222.838 123.755C219.775 123.755 217.292 126.238 217.292 129.302C217.292 132.365 219.775 134.848 222.838 134.848Z" fill="#FF6584"/>
<path opacity="0.2" d="M226.998 129.648C226.998 130.752 226.56 131.81 225.78 132.59C225 133.37 223.942 133.808 222.839 133.808C221.735 133.808 220.677 133.37 219.897 132.59C219.117 131.81 218.679 130.752 218.679 129.648" fill="black"/>
<path opacity="0.2" d="M218.679 128.955C218.679 127.852 219.117 126.794 219.897 126.014C220.677 125.233 221.735 124.795 222.839 124.795C223.942 124.795 225 125.233 225.78 126.014C226.56 126.794 226.998 127.852 226.998 128.955" fill="black"/>
<path d="M220.759 127.915C220.95 127.915 221.105 127.682 221.105 127.395C221.105 127.108 220.95 126.875 220.759 126.875C220.567 126.875 220.412 127.108 220.412 127.395C220.412 127.682 220.567 127.915 220.759 127.915Z" fill="#FF6584"/>
<path d="M222.839 127.222C223.03 127.222 223.185 126.989 223.185 126.702C223.185 126.415 223.03 126.182 222.839 126.182C222.647 126.182 222.492 126.415 222.492 126.702C222.492 126.989 222.647 127.222 222.839 127.222Z" fill="#FF6584"/>
<path d="M222.839 131.728C223.03 131.728 223.185 131.495 223.185 131.208C223.185 130.921 223.03 130.688 222.839 130.688C222.647 130.688 222.492 130.921 222.492 131.208C222.492 131.495 222.647 131.728 222.839 131.728Z" fill="#FF6584"/>
<path d="M224.919 128.955C225.11 128.955 225.266 128.722 225.266 128.435C225.266 128.148 225.11 127.915 224.919 127.915C224.727 127.915 224.572 128.148 224.572 128.435C224.572 128.722 224.727 128.955 224.919 128.955Z" fill="#FF6584"/>
<path d="M224.572 132.768C224.764 132.768 224.919 132.535 224.919 132.248C224.919 131.961 224.764 131.728 224.572 131.728C224.381 131.728 224.226 131.961 224.226 132.248C224.226 132.535 224.381 132.768 224.572 132.768Z" fill="#FF6584"/>
<path d="M220.412 131.035C220.604 131.035 220.759 130.802 220.759 130.515C220.759 130.228 220.604 129.995 220.412 129.995C220.221 129.995 220.065 130.228 220.065 130.515C220.065 130.802 220.221 131.035 220.412 131.035Z" fill="#FF6584"/>
<path d="M233.932 119.942C236.995 119.942 239.479 117.459 239.479 114.396C239.479 111.332 236.995 108.849 233.932 108.849C230.869 108.849 228.386 111.332 228.386 114.396C228.386 117.459 230.869 119.942 233.932 119.942Z" fill="#FF6584"/>
<path opacity="0.2" d="M238.092 114.742C238.092 115.845 237.654 116.904 236.874 117.684C236.094 118.464 235.036 118.902 233.932 118.902C232.829 118.902 231.771 118.464 230.991 117.684C230.211 116.904 229.772 115.845 229.772 114.742" fill="black"/>
<path opacity="0.2" d="M229.772 114.049C229.772 112.946 230.211 111.888 230.991 111.108C231.771 110.327 232.829 109.889 233.932 109.889C235.036 109.889 236.094 110.327 236.874 111.108C237.654 111.888 238.092 112.946 238.092 114.049" fill="black"/>
<path d="M231.852 113.009C232.043 113.009 232.198 112.776 232.198 112.489C232.198 112.202 232.043 111.969 231.852 111.969C231.66 111.969 231.505 112.202 231.505 112.489C231.505 112.776 231.66 113.009 231.852 113.009Z" fill="#FF6584"/>
<path d="M233.932 112.316C234.123 112.316 234.278 112.083 234.278 111.796C234.278 111.509 234.123 111.276 233.932 111.276C233.74 111.276 233.585 111.509 233.585 111.796C233.585 112.083 233.74 112.316 233.932 112.316Z" fill="#FF6584"/>
<path d="M233.932 116.822C234.123 116.822 234.278 116.589 234.278 116.302C234.278 116.015 234.123 115.782 233.932 115.782C233.74 115.782 233.585 116.015 233.585 116.302C233.585 116.589 233.74 116.822 233.932 116.822Z" fill="#FF6584"/>
<path d="M236.012 114.049C236.203 114.049 236.358 113.816 236.358 113.529C236.358 113.242 236.203 113.009 236.012 113.009C235.82 113.009 235.665 113.242 235.665 113.529C235.665 113.816 235.82 114.049 236.012 114.049Z" fill="#FF6584"/>
<path d="M235.665 117.862C235.856 117.862 236.012 117.629 236.012 117.342C236.012 117.055 235.856 116.822 235.665 116.822C235.474 116.822 235.318 117.055 235.318 117.342C235.318 117.629 235.474 117.862 235.665 117.862Z" fill="#FF6584"/>
<path d="M231.505 116.129C231.696 116.129 231.852 115.896 231.852 115.609C231.852 115.322 231.696 115.089 231.505 115.089C231.313 115.089 231.158 115.322 231.158 115.609C231.158 115.896 231.313 116.129 231.505 116.129Z" fill="#FF6584"/>
<path d="M245.025 127.568C248.088 127.568 250.571 125.085 250.571 122.022C250.571 118.959 248.088 116.475 245.025 116.475C241.962 116.475 239.479 118.959 239.479 122.022C239.479 125.085 241.962 127.568 245.025 127.568Z" fill="#6C59E5"/>
<path opacity="0.2" d="M249.185 122.369C249.185 123.472 248.747 124.53 247.967 125.31C247.186 126.09 246.128 126.529 245.025 126.529C243.922 126.529 242.864 126.09 242.084 125.31C241.303 124.53 240.865 123.472 240.865 122.369" fill="black"/>
<path opacity="0.2" d="M240.865 121.675C240.865 120.572 241.303 119.514 242.084 118.734C242.864 117.954 243.922 117.516 245.025 117.516C246.128 117.516 247.186 117.954 247.967 118.734C248.747 119.514 249.185 120.572 249.185 121.675" fill="black"/>
<path d="M242.944 120.635C243.136 120.635 243.291 120.402 243.291 120.115C243.291 119.828 243.136 119.595 242.944 119.595C242.753 119.595 242.598 119.828 242.598 120.115C242.598 120.402 242.753 120.635 242.944 120.635Z" fill="#6C59E5"/>
<path d="M245.024 119.942C245.216 119.942 245.371 119.709 245.371 119.422C245.371 119.135 245.216 118.902 245.024 118.902C244.833 118.902 244.678 119.135 244.678 119.422C244.678 119.709 244.833 119.942 245.024 119.942Z" fill="#6C59E5"/>
<path d="M245.024 124.449C245.216 124.449 245.371 124.216 245.371 123.929C245.371 123.641 245.216 123.409 245.024 123.409C244.833 123.409 244.678 123.641 244.678 123.929C244.678 124.216 244.833 124.449 245.024 124.449Z" fill="#6C59E5"/>
<path d="M247.104 121.675C247.296 121.675 247.451 121.443 247.451 121.155C247.451 120.868 247.296 120.635 247.104 120.635C246.913 120.635 246.758 120.868 246.758 121.155C246.758 121.443 246.913 121.675 247.104 121.675Z" fill="#6C59E5"/>
<path d="M246.758 125.489C246.949 125.489 247.104 125.256 247.104 124.969C247.104 124.681 246.949 124.449 246.758 124.449C246.566 124.449 246.411 124.681 246.411 124.969C246.411 125.256 246.566 125.489 246.758 125.489Z" fill="#6C59E5"/>
<path d="M242.599 123.755C242.79 123.755 242.945 123.522 242.945 123.235C242.945 122.948 242.79 122.715 242.599 122.715C242.407 122.715 242.252 122.948 242.252 123.235C242.252 123.522 242.407 123.755 242.599 123.755Z" fill="#6C59E5"/>
<path d="M217.293 128.262C220.356 128.262 222.839 125.778 222.839 122.715C222.839 119.652 220.356 117.169 217.293 117.169C214.229 117.169 211.746 119.652 211.746 122.715C211.746 125.778 214.229 128.262 217.293 128.262Z" fill="#6C59E5"/>
<path opacity="0.2" d="M221.452 123.062C221.452 124.165 221.014 125.223 220.234 126.003C219.454 126.783 218.396 127.222 217.293 127.222C216.189 127.222 215.131 126.783 214.351 126.003C213.571 125.223 213.133 124.165 213.133 123.062" fill="black"/>
<path opacity="0.2" d="M213.133 122.369C213.133 121.265 213.571 120.207 214.351 119.427C215.131 118.647 216.189 118.209 217.293 118.209C218.396 118.209 219.454 118.647 220.234 119.427C221.014 120.207 221.452 121.265 221.452 122.369" fill="black"/>
<path d="M215.213 121.329C215.404 121.329 215.56 121.096 215.56 120.809C215.56 120.521 215.404 120.289 215.213 120.289C215.021 120.289 214.866 120.521 214.866 120.809C214.866 121.096 215.021 121.329 215.213 121.329Z" fill="#6C59E5"/>
<path d="M217.293 120.635C217.484 120.635 217.64 120.402 217.64 120.115C217.64 119.828 217.484 119.595 217.293 119.595C217.101 119.595 216.946 119.828 216.946 120.115C216.946 120.402 217.101 120.635 217.293 120.635Z" fill="#6C59E5"/>
<path d="M217.293 125.142C217.484 125.142 217.64 124.909 217.64 124.622C217.64 124.335 217.484 124.102 217.293 124.102C217.101 124.102 216.946 124.335 216.946 124.622C216.946 124.909 217.101 125.142 217.293 125.142Z" fill="#6C59E5"/>
<path d="M219.372 122.369C219.563 122.369 219.719 122.136 219.719 121.849C219.719 121.561 219.563 121.329 219.372 121.329C219.181 121.329 219.025 121.561 219.025 121.849C219.025 122.136 219.181 122.369 219.372 122.369Z" fill="#6C59E5"/>
<path d="M219.025 126.182C219.217 126.182 219.372 125.949 219.372 125.662C219.372 125.375 219.217 125.142 219.025 125.142C218.834 125.142 218.679 125.375 218.679 125.662C218.679 125.949 218.834 126.182 219.025 126.182Z" fill="#6C59E5"/>
<path d="M214.866 124.449C215.058 124.449 215.213 124.216 215.213 123.929C215.213 123.641 215.058 123.409 214.866 123.409C214.675 123.409 214.52 123.641 214.52 123.929C214.52 124.216 214.675 124.449 214.866 124.449Z" fill="#6C59E5"/>
<path d="M229.772 130.688C232.835 130.688 235.319 128.205 235.319 125.142C235.319 122.079 232.835 119.595 229.772 119.595C226.709 119.595 224.226 122.079 224.226 125.142C224.226 128.205 226.709 130.688 229.772 130.688Z" fill="#6C59E5"/>
<path opacity="0.2" d="M233.932 125.489C233.932 126.035 233.824 126.576 233.615 127.08C233.406 127.585 233.1 128.044 232.714 128.43C232.327 128.816 231.869 129.123 231.364 129.332C230.859 129.541 230.318 129.648 229.772 129.648C229.226 129.648 228.685 129.541 228.18 129.332C227.676 129.123 227.217 128.816 226.831 128.43C226.444 128.044 226.138 127.585 225.929 127.08C225.72 126.576 225.612 126.035 225.612 125.489" fill="black"/>
<path opacity="0.2" d="M225.612 124.795C225.612 124.249 225.72 123.708 225.929 123.203C226.138 122.699 226.444 122.24 226.831 121.854C227.217 121.467 227.676 121.161 228.18 120.952C228.685 120.743 229.226 120.635 229.772 120.635C230.318 120.635 230.859 120.743 231.364 120.952C231.869 121.161 232.327 121.467 232.714 121.854C233.1 122.24 233.406 122.699 233.615 123.203C233.824 123.708 233.932 124.249 233.932 124.795" fill="black"/>
<path d="M227.692 123.755C227.884 123.755 228.039 123.522 228.039 123.235C228.039 122.948 227.884 122.715 227.692 122.715C227.501 122.715 227.346 122.948 227.346 123.235C227.346 123.522 227.501 123.755 227.692 123.755Z" fill="#6C59E5"/>
<path d="M229.772 123.062C229.964 123.062 230.119 122.829 230.119 122.542C230.119 122.255 229.964 122.022 229.772 122.022C229.581 122.022 229.426 122.255 229.426 122.542C229.426 122.829 229.581 123.062 229.772 123.062Z" fill="#6C59E5"/>
<path d="M229.772 127.568C229.964 127.568 230.119 127.336 230.119 127.048C230.119 126.761 229.964 126.528 229.772 126.528C229.581 126.528 229.426 126.761 229.426 127.048C229.426 127.336 229.581 127.568 229.772 127.568Z" fill="#6C59E5"/>
<path d="M231.852 124.795C232.043 124.795 232.198 124.562 232.198 124.275C232.198 123.988 232.043 123.755 231.852 123.755C231.66 123.755 231.505 123.988 231.505 124.275C231.505 124.562 231.66 124.795 231.852 124.795Z" fill="#6C59E5"/>
<path d="M231.505 128.608C231.696 128.608 231.852 128.376 231.852 128.088C231.852 127.801 231.696 127.568 231.505 127.568C231.313 127.568 231.158 127.801 231.158 128.088C231.158 128.376 231.313 128.608 231.505 128.608Z" fill="#6C59E5"/>
<path d="M227.346 126.875C227.537 126.875 227.692 126.642 227.692 126.355C227.692 126.068 227.537 125.835 227.346 125.835C227.154 125.835 226.999 126.068 226.999 126.355C226.999 126.642 227.154 126.875 227.346 126.875Z" fill="#6C59E5"/>
<path d="M238.438 136.581C241.501 136.581 243.985 134.098 243.985 131.035C243.985 127.972 241.501 125.489 238.438 125.489C235.375 125.489 232.892 127.972 232.892 131.035C232.892 134.098 235.375 136.581 238.438 136.581Z" fill="#FF6584"/>
<path opacity="0.2" d="M242.598 131.382C242.598 132.485 242.16 133.543 241.38 134.323C240.6 135.103 239.541 135.541 238.438 135.541C237.335 135.541 236.277 135.103 235.497 134.323C234.717 133.543 234.278 132.485 234.278 131.382" fill="black"/>
<path opacity="0.2" d="M234.278 130.688C234.278 129.585 234.717 128.527 235.497 127.747C236.277 126.967 237.335 126.528 238.438 126.528C239.541 126.528 240.6 126.967 241.38 127.747C242.16 128.527 242.598 129.585 242.598 130.688" fill="black"/>
<path d="M236.358 129.648C236.55 129.648 236.705 129.416 236.705 129.128C236.705 128.841 236.55 128.608 236.358 128.608C236.167 128.608 236.012 128.841 236.012 129.128C236.012 129.416 236.167 129.648 236.358 129.648Z" fill="#FF6584"/>
<path d="M238.438 128.955C238.63 128.955 238.785 128.722 238.785 128.435C238.785 128.148 238.63 127.915 238.438 127.915C238.247 127.915 238.092 128.148 238.092 128.435C238.092 128.722 238.247 128.955 238.438 128.955Z" fill="#FF6584"/>
<path d="M238.438 133.461C238.63 133.461 238.785 133.229 238.785 132.941C238.785 132.654 238.63 132.422 238.438 132.422C238.247 132.422 238.092 132.654 238.092 132.941C238.092 133.229 238.247 133.461 238.438 133.461Z" fill="#FF6584"/>
<path d="M240.519 130.688C240.71 130.688 240.865 130.455 240.865 130.168C240.865 129.881 240.71 129.648 240.519 129.648C240.327 129.648 240.172 129.881 240.172 130.168C240.172 130.455 240.327 130.688 240.519 130.688Z" fill="#FF6584"/>
<path d="M240.172 134.502C240.363 134.502 240.519 134.269 240.519 133.982C240.519 133.694 240.363 133.462 240.172 133.462C239.98 133.462 239.825 133.694 239.825 133.982C239.825 134.269 239.98 134.502 240.172 134.502Z" fill="#FF6584"/>
<path d="M236.012 132.768C236.203 132.768 236.358 132.535 236.358 132.248C236.358 131.961 236.203 131.728 236.012 131.728C235.82 131.728 235.665 131.961 235.665 132.248C235.665 132.535 235.82 132.768 236.012 132.768Z" fill="#FF6584"/>
<path d="M167.112 111.359C167.924 111.359 168.582 110.701 168.582 109.889C168.582 109.077 167.924 108.419 167.112 108.419C166.3 108.419 165.642 109.077 165.642 109.889C165.642 110.701 166.3 111.359 167.112 111.359Z" fill="#3F3D56"/>
<path d="M207.072 163.252L171.765 153.46L173.117 148.436L208.425 158.228L207.072 163.252Z" fill="#F9A825"/>
<path d="M201.897 161.573C189.806 163.887 177.386 163.887 165.295 161.573V156.365C177.413 158.373 189.779 158.373 201.897 156.365V161.573Z" fill="#F9A825"/>
<path d="M205.66 145.949C193.569 148.264 181.149 148.264 169.058 145.949V140.741C181.176 142.75 193.542 142.75 205.66 140.741V145.949Z" fill="#F9A825"/>
<path d="M218.316 152.199C206.225 154.513 193.805 154.513 181.714 152.199V146.991C193.832 148.999 206.198 148.999 218.316 146.991V152.199Z" fill="#F9A825"/>
<path d="M221.395 158.101C209.304 160.416 196.884 160.416 184.793 158.101V152.893C196.911 154.901 209.277 154.901 221.395 152.893V158.101Z" fill="#F9A825"/>
<path d="M232.129 165.813L196.017 171.879L195.18 166.741L231.291 160.675L232.129 165.813Z" fill="#F9A825"/>
<path d="M226.734 166.481C216.722 173.698 205.439 178.961 193.476 181.993L191.333 177.261C203.192 173.94 214.426 168.7 224.592 161.749L226.734 166.481Z" fill="#F9A825"/>
<path d="M223.726 150.69C213.715 157.907 202.431 163.169 190.468 166.202L188.325 161.47C200.184 158.149 211.419 152.909 221.584 145.958L223.726 150.69Z" fill="#F9A825"/>
<path d="M237.798 151.004C227.786 158.221 216.502 163.484 204.539 166.516L202.396 161.784C214.255 158.464 225.49 153.224 235.655 146.272L237.798 151.004Z" fill="#F9A825"/>
<path d="M243.023 155.063C233.012 162.28 221.728 167.542 209.765 170.575L207.622 165.843C219.481 162.522 230.716 157.282 240.881 150.331L243.023 155.063Z" fill="#F9A825"/>
<path d="M199.266 144.901H197.533V146.634H199.266V144.901Z" fill="#00BF71"/>
<path d="M204.467 175.06H202.733V176.793H204.467V175.06Z" fill="#00BF71"/>
<path d="M176.734 144.901H175.001V146.634H176.734V144.901Z" fill="#00BF71"/>
<path d="M216.946 166.394H215.213V168.127H216.946V166.394Z" fill="#00BF71"/>
<path d="M217.986 156.341H216.253V158.074H217.986V156.341Z" fill="#00BF71"/>
<path d="M189.394 151.595L187.386 150.233L186.607 151.38L188.615 152.742L189.394 151.595Z" fill="#00BF71"/>
<path d="M209.846 155.408L207.838 154.046L207.059 155.193L209.067 156.556L209.846 155.408Z" fill="#00BF71"/>
<path d="M184.887 161.995L182.879 160.632L182.1 161.78L184.108 163.142L184.887 161.995Z" fill="#00BF71"/>
<path d="M197.6 161.894L198.962 159.886L197.814 159.107L196.452 161.115L197.6 161.894Z" fill="#00BF71"/>
<path d="M206.959 164.32L208.321 162.312L207.174 161.534L205.811 163.542L206.959 164.32Z" fill="#00BF71"/>
<path d="M231.92 156L233.282 153.992L232.135 153.214L230.772 155.222L231.92 156Z" fill="#00BF71"/>
<path d="M396 215.502H0V216.502H396V215.502Z" fill="#3F3D56"/>
</g>
<defs>
<clipPath id="clip0_1177_2144">
<rect width="396" height="216.502" fill="white"/>
</clipPath>
</defs>
</svg>
