<svg width="24" height="24" viewBox="0 0 24 24" fill="none" xmlns="http://www.w3.org/2000/svg">
<path d="M12.059 16.543V10.984M21.25 12C21.2518 13.2145 21.0137 14.4174 20.5496 15.5397C20.0854 16.662 19.4042 17.6816 18.545 18.54C17.6856 19.3995 16.6652 20.0813 15.5422 20.5463C14.4191 21.0113 13.2155 21.2504 12 21.25C10.6918 21.2532 9.39792 20.9771 8.20501 20.44L4.33801 21.012C4.14601 21.0433 3.94926 21.0274 3.76484 20.9654C3.58043 20.9034 3.41393 20.7974 3.27981 20.6565C3.14569 20.5155 3.048 20.344 2.99523 20.1568C2.94246 19.9695 2.93621 19.7722 2.97701 19.582L3.51401 15.659C3.00445 14.5068 2.74409 13.2599 2.75001 12C2.74834 10.7855 2.98643 9.58265 3.45062 8.46037C3.9148 7.33809 4.59595 6.31848 5.45501 5.46C6.3144 4.60042 7.33477 3.91864 8.45781 3.45364C9.58084 2.98864 10.7845 2.74954 12 2.75C14.4546 2.75016 16.8087 3.72491 18.545 5.46C19.4037 6.31875 20.0846 7.33841 20.5488 8.46063C21.0129 9.58284 21.2512 10.7856 21.25 12Z" stroke="#F0B518" stroke-width="1.5" stroke-linecap="round" stroke-linejoin="round"/>
<path d="M11.941 7.45703H11.947" stroke="black" stroke-width="2" stroke-linecap="round" stroke-linejoin="round"/>
</svg>
