<?xml version="1.0" standalone="no"?>
<!DOCTYPE svg PUBLIC "-//W3C//DTD SVG 20010904//EN"
 "http://www.w3.org/TR/2001/REC-SVG-20010904/DTD/svg10.dtd">
<svg version="1.0" xmlns="http://www.w3.org/2000/svg"
 width="188.000000pt" height="238.000000pt" viewBox="0 0 188.000000 238.000000"
 preserveAspectRatio="xMidYMid meet">
<metadata>
Created by potrace 1.16, written by Peter Selinger 2001-2019
</metadata>
<g transform="translate(0.000000,238.000000) scale(0.100000,-0.100000)"
fill="#000000" stroke="none">
<path d="M25 2348 c-27 -32 -28 -35 -21 -128 3 -52 12 -140 20 -195 8 -55 24
-172 36 -260 11 -88 28 -209 36 -270 8 -60 19 -144 24 -185 5 -41 19 -142 30
-225 19 -141 26 -190 50 -382 26 -210 27 -217 75 -318 26 -55 50 -103 52 -107
2 -3 -23 -19 -54 -35 -76 -36 -156 -113 -151 -143 8 -55 35 -51 258 35 189 74
320 94 320 49 0 -8 -18 -37 -40 -65 -39 -50 -48 -81 -31 -108 13 -20 44 -5 38
18 -5 19 6 38 58 110 28 38 31 59 12 86 -30 40 -221 14 -376 -50 -113 -47
-186 -74 -190 -69 -15 14 145 124 180 124 19 0 21 6 44 150 19 119 19 158 1
295 -8 61 -22 173 -31 250 -9 77 -23 192 -31 255 -22 178 -25 168 46 172 49 2
60 0 60 -13 0 -33 42 -174 67 -223 75 -149 213 -280 349 -331 65 -24 71 -29
79 -73 3 -20 9 -48 12 -62 l6 -25 -29 26 c-49 44 -74 54 -93 35 -15 -15 -15
-19 2 -48 16 -28 16 -31 1 -43 -24 -17 -11 -42 27 -50 l33 -7 -39 -20 c-121
-61 -168 -105 -143 -135 10 -12 26 -14 80 -10 83 7 280 46 293 58 5 5 17 9 27
9 22 0 22 4 3 66 -9 27 -27 88 -39 137 l-24 87 69 2 c38 1 81 2 96 2 26 1 27
-3 55 -114 33 -139 33 -142 7 -166 -30 -27 -50 -70 -42 -90 5 -13 14 -15 50
-10 34 4 43 2 43 -9 0 -23 48 -126 76 -163 21 -27 32 -33 57 -30 31 3 32 5 35
52 3 53 -19 160 -49 239 -18 45 -18 48 -1 53 82 26 132 66 132 105 0 41 -88
37 -144 -6 -24 -18 -35 -22 -39 -13 -9 26 -49 190 -45 191 1 1 37 19 78 39 83
41 162 106 220 179 l38 48 20 -52 c35 -91 36 -105 5 -131 -23 -20 -28 -32 -29
-82 -2 -41 3 -64 13 -76 35 -39 137 -30 168 15 21 30 20 129 -2 170 -9 18 -25
63 -35 101 -10 38 -31 93 -48 122 l-30 53 21 63 c29 88 30 284 1 379 -72 240
-253 412 -499 475 -43 11 -67 21 -60 26 20 13 90 8 117 -7 56 -32 72 2 18 36
-28 16 -44 19 -98 14 -36 -3 -89 -5 -118 -5 -54 0 -78 -8 -106 -36 -9 -8 -48
-24 -88 -35 -243 -68 -426 -262 -483 -510 -9 -41 -20 -81 -24 -88 -11 -22 -56
-31 -95 -20 -33 9 -35 12 -41 67 -13 122 -27 242 -40 352 -8 63 -22 183 -31
265 -21 193 -20 192 -49 221 -19 19 -35 24 -74 24 -43 0 -53 -4 -76 -32z m150
-145 c3 -32 10 -94 15 -138 32 -277 51 -435 85 -725 30 -248 44 -374 60 -510
9 -74 20 -166 25 -204 5 -38 7 -73 4 -78 -13 -21 -23 -1 -33 74 -6 46 -16 115
-21 153 -6 39 -19 140 -30 225 -20 160 -50 394 -76 585 -8 61 -19 144 -24 185
-5 41 -13 107 -19 145 -31 217 -42 318 -37 330 3 8 14 15 25 15 16 0 21 -9 26
-57z m-95 25 c1 -13 3 -30 39 -308 11 -85 28 -209 36 -275 9 -66 25 -190 35
-275 11 -85 24 -186 30 -225 5 -38 16 -124 25 -190 9 -66 22 -169 30 -230 9
-60 17 -126 20 -146 4 -27 1 -38 -10 -43 -22 -8 -18 -27 -60 294 -18 137 -40
306 -60 450 -8 58 -21 161 -30 230 -9 69 -20 152 -25 185 -5 33 -14 98 -20
145 -5 47 -19 153 -30 235 -11 83 -20 153 -20 158 0 4 9 7 20 7 11 0 20 -6 20
-12z m1012 -210 c2 -25 9 -35 30 -42 36 -13 78 9 85 45 5 25 7 26 46 17 331
-71 559 -413 493 -738 -21 -102 -24 -108 -45 -83 -24 30 -77 63 -100 63 -30 0
-26 -27 7 -44 74 -38 162 -174 184 -283 6 -32 19 -69 29 -82 27 -35 33 -83 15
-119 -16 -32 -34 -42 -72 -42 -36 0 -41 28 -10 56 14 14 26 29 26 34 0 19 -22
21 -41 4 -10 -9 -19 -12 -19 -6 0 5 14 22 32 37 l32 27 -13 60 c-14 69 -34
115 -75 177 -34 52 -125 141 -143 141 -27 0 -22 -21 14 -58 101 -103 98 -98
79 -127 -96 -147 -261 -248 -447 -274 -370 -53 -717 250 -719 626 -1 209 99
402 273 530 46 34 154 84 210 97 25 6 27 4 27 -22 0 -30 16 -52 37 -52 9 0 11
12 6 45 -6 45 -6 45 25 45 27 0 31 -4 34 -32z m-94 -1276 c7 -5 26 -60 41
-123 16 -63 32 -122 36 -131 5 -13 -2 -19 -32 -27 -56 -15 -245 -51 -268 -51
-48 0 118 85 187 97 22 3 42 12 45 20 5 12 -8 89 -34 201 -6 23 3 28 25 14z"/>
<path d="M819 1773 c-33 -20 -76 -85 -92 -138 -6 -22 -12 -76 -12 -120 0 -136
59 -225 151 -225 32 0 45 7 85 49 26 27 50 63 54 80 7 35 25 42 25 11 0 -31
36 -95 66 -119 39 -31 77 -27 122 13 55 50 77 118 77 236 0 55 -6 111 -14 134
-34 97 -126 128 -188 64 -18 -18 -40 -54 -50 -80 l-19 -48 -13 45 c-18 62 -78
115 -129 115 -20 0 -49 -8 -63 -17z m372 -23 c10 -6 29 -30 41 -53 19 -35 23
-58 23 -137 0 -83 -3 -102 -27 -151 -34 -68 -67 -88 -105 -64 -35 23 -63 91
-62 150 l0 50 15 -55 c23 -89 75 -114 118 -57 15 21 22 47 24 103 6 119 -32
195 -92 180 -18 -4 -18 -2 7 20 32 28 32 27 58 14z m-261 -22 l24 -22 -33 -9
c-46 -11 -70 -69 -71 -165 0 -80 16 -131 50 -155 l21 -15 -23 -16 c-45 -32
-89 -12 -124 57 -26 49 -23 188 4 247 25 53 40 72 67 88 31 18 59 14 85 -10z"/>
<path d="M1323 1474 c-3 -8 1 -22 10 -32 14 -15 13 -22 -6 -70 -45 -109 -114
-162 -210 -162 -39 0 -61 6 -80 20 -32 25 -47 25 -47 1 0 -34 59 -61 134 -61
79 0 127 21 174 75 35 39 82 125 82 150 0 8 8 15 19 15 22 0 45 25 36 39 -3 6
-19 8 -35 4 -21 -4 -31 -1 -36 10 -8 22 -34 29 -41 11z"/>
</g>
</svg>
