<svg width="648" height="657" viewBox="0 0 648 657" fill="none" xmlns="http://www.w3.org/2000/svg">
<g clip-path="url(#clip0_170_82)">
<path d="M411.377 147.757H236.769C232.79 147.762 228.976 149.406 226.162 152.329C223.348 155.251 221.766 159.213 221.761 163.346V566.427L219.76 567.061L176.926 580.686C174.896 581.329 172.703 581.109 170.829 580.075C168.955 579.04 167.553 577.275 166.93 575.168L39.5183 142.883C38.8983 140.774 39.1096 138.496 40.1059 136.55C41.1022 134.603 42.8018 133.146 44.8314 132.501L110.839 111.507L302.196 50.6684L368.203 29.6752C369.207 29.354 370.263 29.2418 371.309 29.3449C372.356 29.4481 373.372 29.7645 374.301 30.2761C375.229 30.7877 376.051 31.4845 376.72 32.3265C377.389 33.1685 377.891 34.1393 378.199 35.1833L410.767 145.679L411.377 147.757Z" fill="#F2F2F2"/>
<path d="M449.478 145.679L410.226 12.5064C409.573 10.2875 408.506 8.22402 407.085 6.43385C405.664 4.64368 403.917 3.16192 401.944 2.07324C399.971 0.98456 397.811 0.310286 395.588 0.0889741C393.364 -0.132337 391.12 0.10365 388.985 0.783428L296.182 30.2883L104.835 91.1377L12.0332 120.653C7.72209 122.028 4.11235 125.123 1.9963 129.26C-0.119749 133.397 -0.569227 138.236 0.746544 142.717L134.902 597.845C135.971 601.461 138.128 604.627 141.056 606.877C143.984 609.127 147.529 610.343 151.171 610.347C152.857 610.348 154.533 610.085 156.144 609.568L219.76 589.343L221.761 588.699V586.527L219.76 587.161L155.554 607.583C151.748 608.788 147.638 608.376 144.125 606.437C140.612 604.498 137.982 601.192 136.813 597.242L2.66803 142.104C2.0888 140.147 1.88692 138.09 2.07395 136.052C2.26098 134.014 2.83323 132.034 3.75797 130.226C4.68271 128.417 5.94177 126.817 7.46302 125.515C8.98427 124.213 10.7378 123.235 12.6233 122.638L105.425 93.1227L296.773 32.2837L389.575 2.76846C391.005 2.31512 392.492 2.08398 393.987 2.08253C397.196 2.09002 400.319 3.16458 402.897 5.14882C405.475 7.13307 407.374 9.92273 408.316 13.1092L447.387 145.679L448.008 147.757H450.089L449.478 145.679Z" fill="#3F3D56"/>
<path d="M122.75 132.84C120.821 132.839 118.944 132.196 117.393 131.005C115.843 129.814 114.7 128.138 114.134 126.224L101.246 82.4998C100.9 81.3253 100.78 80.0914 100.892 78.8687C101.005 77.6459 101.349 76.4582 101.904 75.3735C102.458 74.2887 103.214 73.328 104.126 72.5464C105.038 71.7648 106.09 71.1775 107.221 70.8181L283.258 14.839C285.542 14.1152 288.009 14.3621 290.118 15.5254C292.226 16.6888 293.804 18.6736 294.505 21.0442L307.393 64.7687C308.089 67.1407 307.852 69.7028 306.732 71.8929C305.612 74.0829 303.701 75.7221 301.419 76.4509L125.381 132.43C124.528 132.702 123.642 132.84 122.75 132.84Z" fill="#6956E5"/>
<path d="M190.26 46.7201C201.312 46.7201 210.272 37.4141 210.272 25.9347C210.272 14.4552 201.312 5.14923 190.26 5.14923C179.208 5.14923 170.249 14.4552 170.249 25.9347C170.249 37.4141 179.208 46.7201 190.26 46.7201Z" fill="#6956E5"/>
<path d="M190.26 39.0966C197.259 39.0966 202.932 33.2038 202.932 25.9346C202.932 18.6655 197.259 12.7727 190.26 12.7727C183.262 12.7727 177.589 18.6655 177.589 25.9346C177.589 33.2038 183.262 39.0966 190.26 39.0966Z" fill="white"/>
<path d="M602.975 605.036H264.785C262.53 605.034 260.369 604.102 258.774 602.446C257.18 600.79 256.283 598.545 256.28 596.203V175.298C256.283 172.956 257.18 170.71 258.774 169.054C260.369 167.398 262.53 166.467 264.785 166.464H602.975C605.23 166.467 607.391 167.398 608.986 169.054C610.58 170.71 611.477 172.956 611.48 175.298V596.203C611.477 598.545 610.58 600.79 608.986 602.446C607.391 604.102 605.23 605.034 602.975 605.036Z" fill="#E6E6E6"/>
<path d="M447.387 145.679H236.769C232.26 145.685 227.937 147.549 224.749 150.861C221.56 154.173 219.766 158.663 219.76 163.346V587.161L221.761 586.527V163.346C221.766 159.213 223.348 155.251 226.162 152.329C228.976 149.406 232.79 147.762 236.769 147.757H448.008L447.387 145.679ZM630.991 145.679H236.769C232.26 145.685 227.937 147.549 224.749 150.861C221.56 154.173 219.766 158.663 219.76 163.346V639.332C219.766 644.016 221.56 648.506 224.749 651.818C227.937 655.13 232.26 656.993 236.769 657H630.991C635.5 656.993 639.823 655.13 643.011 651.818C646.2 648.506 647.994 644.016 648 639.332V163.346C647.994 158.663 646.2 154.173 643.011 150.861C639.823 147.549 635.5 145.685 630.991 145.679ZM645.999 639.332C645.994 643.465 644.411 647.428 641.598 650.35C638.784 653.272 634.97 654.916 630.991 654.921H236.769C232.79 654.916 228.976 653.272 226.162 650.35C223.348 647.428 221.766 643.465 221.761 639.332V163.346C221.766 159.213 223.348 155.251 226.162 152.329C228.976 149.406 232.79 147.762 236.769 147.757H630.991C634.97 147.762 638.784 149.406 641.598 152.329C644.411 155.251 645.994 159.213 645.999 163.346V639.332Z" fill="#3F3D56"/>
<path d="M525.932 191.407H341.828C339.441 191.404 337.152 190.417 335.464 188.664C333.776 186.91 332.826 184.533 332.823 182.053V136.325C332.826 133.845 333.776 131.468 335.464 129.714C337.152 127.961 339.441 126.975 341.828 126.972H525.932C528.319 126.975 530.608 127.961 532.296 129.714C533.984 131.468 534.934 133.845 534.937 136.325V182.053C534.934 184.533 533.985 186.91 532.296 188.664C530.608 190.417 528.319 191.404 525.932 191.407Z" fill="#6956E5"/>
<path d="M433.88 130.09C444.932 130.09 453.891 120.784 453.891 109.304C453.891 97.8247 444.932 88.5187 433.88 88.5187C422.828 88.5187 413.869 97.8247 413.869 109.304C413.869 120.784 422.828 130.09 433.88 130.09Z" fill="#6956E5"/>
<path d="M433.88 121.964C440.611 121.964 446.069 116.296 446.069 109.304C446.069 102.312 440.611 96.6439 433.88 96.6439C427.148 96.6439 421.691 102.312 421.691 109.304C421.691 116.296 427.148 121.964 433.88 121.964Z" fill="white"/>
</g>
<defs>
<clipPath id="clip0_170_82">
<rect width="648" height="657" fill="white"/>
</clipPath>
</defs>
</svg>
