<svg width="369" height="292" viewBox="0 0 369 292" fill="none" xmlns="http://www.w3.org/2000/svg">
<g clip-path="url(#clip0_1180_2315)">
<path d="M307.179 228.104L290.24 212.291L282.208 204.882C281.451 204.184 280.87 203.316 280.513 202.35C280.156 201.384 280.033 200.348 280.155 199.325C280.276 198.302 280.638 197.323 281.21 196.467C281.783 195.611 282.551 194.903 283.45 194.402C284.244 193.958 285.122 193.686 286.028 193.602C286.934 193.519 287.847 193.626 288.709 193.917C289.571 194.208 290.363 194.676 291.033 195.291C291.703 195.906 292.237 196.654 292.6 197.488L295.243 203.55L311.65 220.57L307.179 228.104Z" fill="#FFB9B9"/>
<path d="M309.393 217.847L303.444 227.755L327.592 242.568C348.881 227.266 353.095 222.286 347.879 197.911L343.731 193.762L323.671 226.297L309.393 217.847Z" fill="#6C59E5"/>
<path d="M274.325 190.3C274.086 190.065 273.774 189.919 273.441 189.886C273.108 189.853 272.774 189.936 272.494 190.12L261.312 197.403C261.128 197.523 260.973 197.682 260.859 197.869C260.745 198.056 260.674 198.267 260.651 198.485C260.629 198.703 260.655 198.923 260.729 199.13C260.802 199.336 260.921 199.524 261.077 199.678L289.515 227.993C289.653 228.131 289.817 228.24 289.998 228.313C290.178 228.387 290.372 228.424 290.567 228.422C290.762 228.42 290.955 228.379 291.134 228.302C291.313 228.225 291.475 228.113 291.61 227.973L300.93 218.327C301.199 218.047 301.347 217.672 301.342 217.284C301.336 216.896 301.177 216.525 300.9 216.253L274.325 190.3Z" fill="#3F3D56"/>
<path d="M263.515 198.182L264.672 197.445C264.55 197.662 264.505 197.914 264.545 198.16C264.584 198.406 264.706 198.631 264.89 198.799C265.074 198.967 265.31 199.067 265.558 199.084C265.807 199.101 266.054 199.034 266.259 198.892L273.748 193.744C273.918 193.627 274.052 193.465 274.134 193.275C274.217 193.086 274.244 192.877 274.214 192.673C274.184 192.469 274.096 192.277 273.962 192.12C273.829 191.963 273.653 191.847 273.456 191.785L274.052 191.404C274.13 191.355 274.222 191.334 274.313 191.344C274.404 191.354 274.489 191.395 274.554 191.461L299.746 216.218C299.784 216.257 299.814 216.302 299.833 216.351C299.853 216.401 299.863 216.454 299.862 216.508C299.861 216.561 299.85 216.614 299.828 216.663C299.806 216.712 299.775 216.756 299.736 216.792L290.587 225.707C290.511 225.779 290.41 225.818 290.306 225.817C290.202 225.815 290.102 225.773 290.028 225.7L263.447 198.805C263.405 198.762 263.372 198.711 263.352 198.654C263.332 198.598 263.325 198.537 263.331 198.477C263.338 198.418 263.358 198.36 263.389 198.309C263.421 198.258 263.464 198.215 263.515 198.182Z" fill="white"/>
<path d="M292.591 210.752L284.863 218.039L266.48 199.877L275.81 193.804L292.591 210.752Z" fill="#6C59E5"/>
<path d="M267.195 204.359C267.245 204.309 267.273 204.241 267.273 204.17C267.273 204.099 267.245 204.031 267.195 203.981L265.587 202.373C265.536 202.325 265.469 202.297 265.398 202.297C265.328 202.297 265.26 202.325 265.209 202.373C265.159 202.423 265.131 202.491 265.131 202.562C265.131 202.633 265.159 202.701 265.209 202.751L266.817 204.359C266.868 204.408 266.935 204.435 267.006 204.435C267.076 204.435 267.144 204.408 267.195 204.359Z" fill="#E6E6E6"/>
<path d="M269.903 206.689L268.295 205.081C268.271 205.056 268.241 205.037 268.209 205.023C268.176 205.01 268.141 205.003 268.106 205.003C268.071 205.003 268.036 205.01 268.004 205.023C267.972 205.037 267.942 205.056 267.917 205.081C267.892 205.106 267.873 205.136 267.859 205.168C267.846 205.201 267.839 205.235 267.839 205.27C267.839 205.306 267.846 205.34 267.859 205.373C267.873 205.405 267.892 205.435 267.917 205.46L269.525 207.067C269.575 207.117 269.643 207.145 269.714 207.145C269.785 207.145 269.853 207.117 269.903 207.067C269.953 207.017 269.981 206.949 269.981 206.878C269.981 206.807 269.953 206.739 269.903 206.689Z" fill="#E6E6E6"/>
<path d="M292.413 218.812C293.41 218.812 294.218 218.003 294.218 217.006C294.218 216.009 293.41 215.201 292.413 215.201C291.416 215.201 290.607 216.009 290.607 217.006C290.607 218.003 291.416 218.812 292.413 218.812Z" fill="#6C59E5"/>
<path d="M368.824 280.831H228.814V279.86H369L368.824 280.831Z" fill="#3F3D56"/>
<path d="M352.814 280.197V140.188H353.785V280.373L352.814 280.197Z" fill="#3F3D56"/>
<path d="M176.4 276.043L167.229 278.464C165.926 281.037 163.7 283.022 160.996 284.024C158.292 285.026 155.31 284.97 152.645 283.867L152.445 283.784C151.23 283.265 150.096 282.573 149.079 281.729C145.227 278.607 138.809 276.995 130.299 276.616C129.777 276.452 129.325 276.119 129.013 275.67C128.701 275.221 128.547 274.68 128.576 274.134C128.606 273.558 128.837 273.012 129.229 272.589C129.62 272.166 130.148 271.893 130.719 271.819L176.608 265.833L176.4 276.043Z" fill="#E6E6E6"/>
<path d="M295.379 284.17C271.386 280.322 249.528 274.094 231.201 263.929L174.316 277.89L174.525 265.416L218.989 249.821C226.49 247.19 234.462 246.171 242.384 246.831L295.379 256.665L295.379 284.17Z" fill="#2F2E41"/>
<path d="M203.906 289.175C203.725 288.572 203.744 287.927 203.96 287.335C204.177 286.744 204.578 286.239 205.105 285.894L226.617 274.584L231.826 261.041L240.786 266.666L238.286 276.668L238.877 280.807C239.062 282.105 238.967 283.428 238.596 284.686C238.226 285.944 237.59 287.108 236.731 288.098C235.871 289.089 234.809 289.883 233.617 290.428C232.424 290.972 231.128 291.254 229.816 291.254H206.7C206.073 291.254 205.462 291.052 204.959 290.677C204.456 290.303 204.087 289.776 203.906 289.175Z" fill="#E6E6E6"/>
<path d="M324.342 276.46C298.364 308.758 280.489 273.579 262.874 236.245L241.62 270.834L228.701 261.666L250.978 212.657C251.527 211.448 252.357 210.386 253.397 209.56C254.437 208.733 255.659 208.166 256.962 207.904C258.264 207.642 259.61 207.693 260.889 208.053C262.168 208.413 263.343 209.072 264.318 209.975L295.379 244.579L301.213 244.163L324.342 276.46Z" fill="#2F2E41"/>
<path d="M325.8 184.153C334.316 184.153 341.219 177.249 341.219 168.733C341.219 160.217 334.316 153.314 325.8 153.314C317.284 153.314 310.381 160.217 310.381 168.733C310.381 177.249 317.284 184.153 325.8 184.153Z" fill="#FFB9B9"/>
<path d="M345.388 196.238L328.301 199.989C326.661 192.953 324.287 186.108 321.217 179.568L337.053 173.734C338.999 181.518 341.794 189.064 345.388 196.238Z" fill="#FFB9B9"/>
<path d="M325.801 280.419L295.379 244.579L307.767 223.989C309.071 214.726 313.855 207.445 321.217 201.633L326.217 193.321L341.22 187.07C346.488 191.26 350.232 197.065 351.878 203.591C353.523 210.118 352.978 217.004 350.327 223.191L325.801 280.419Z" fill="#6C59E5"/>
<path d="M299.547 240.829L281.21 226.66L272.523 220.03C271.705 219.406 271.046 218.596 270.6 217.667C270.155 216.739 269.936 215.718 269.962 214.688C269.987 213.659 270.257 212.65 270.747 211.744C271.238 210.839 271.936 210.063 272.785 209.479C273.534 208.964 274.384 208.611 275.278 208.444C276.172 208.277 277.091 208.298 277.976 208.508C278.862 208.717 279.693 209.109 280.418 209.659C281.142 210.209 281.744 210.905 282.183 211.702L285.377 217.492L303.297 232.911L299.547 240.829Z" fill="#FFB9B9"/>
<path d="M300.797 230.41L295.796 240.829L321.217 253.331C340.99 236.115 352.015 219.605 344.554 195.821L334.969 198.322L315.799 237.495L300.797 230.41Z" fill="#6C59E5"/>
<path d="M345.818 150.963C349.208 150.963 351.957 148.214 351.957 144.824C351.957 141.433 349.208 138.684 345.818 138.684C342.427 138.684 339.679 141.433 339.679 144.824C339.679 148.214 342.427 150.963 345.818 150.963Z" fill="#2F2E41"/>
<path d="M339.492 143.321C339.593 141.763 340.284 140.303 341.424 139.236C342.564 138.17 344.068 137.579 345.629 137.583C345.502 137.567 345.376 137.547 345.247 137.539C343.622 137.434 342.022 137.98 340.799 139.055C339.577 140.13 338.831 141.647 338.727 143.271C338.622 144.896 339.167 146.496 340.242 147.719C341.318 148.942 342.834 149.687 344.459 149.792C344.588 149.8 344.716 149.797 344.843 149.797C343.295 149.601 341.879 148.822 340.885 147.619C339.891 146.415 339.393 144.878 339.492 143.321Z" fill="#2F2E41"/>
<path d="M339.457 145.942C333.982 141.4 318.278 147.173 317.265 150.227C309.861 151.236 304.255 155.555 304.255 163.236C308.657 165.04 313.663 164.817 319.075 163.236C327.702 170.267 328.293 179.105 323.047 189.256L329.501 189.385L337.502 177.692L337.884 189.553L352.68 189.256V172.258C352.728 166.607 351.427 161.025 348.885 155.977C346.58 151.498 343.002 148.883 339.457 145.942Z" fill="#2F2E41"/>
<path d="M325.68 175.973C327.301 175.973 328.616 174.133 328.616 171.863C328.616 169.593 327.301 167.753 325.68 167.753C324.059 167.753 322.744 169.593 322.744 171.863C322.744 174.133 324.059 175.973 325.68 175.973Z" fill="#FFB8B8"/>
<path d="M3.22668 0C2.37121 0.000960178 1.55105 0.34122 0.946139 0.946132C0.341227 1.55104 0.000960178 2.3712 0 3.22668V139.669C0.00100656 140.525 0.341294 141.345 0.946202 141.949C1.55111 142.554 2.37124 142.895 3.22668 142.896H203.281C204.136 142.895 204.956 142.554 205.561 141.949C206.166 141.345 206.506 140.525 206.507 139.669V3.22668C206.506 2.37122 206.166 1.55108 205.561 0.946174C204.956 0.341271 204.136 0.00099792 203.281 0H3.22668Z" fill="#E6E6E6"/>
<path d="M7.83605 4.6095C6.98058 4.61046 6.16043 4.95072 5.55551 5.55563C4.9506 6.16054 4.61034 6.9807 4.60938 7.83617V135.059C4.61033 135.915 4.95059 136.735 5.55551 137.34C6.16042 137.945 6.98058 138.285 7.83605 138.286H198.671C199.526 138.285 200.347 137.945 200.952 137.34C201.556 136.735 201.897 135.915 201.898 135.059V7.83617C201.897 6.98071 201.556 6.16057 200.952 5.55567C200.347 4.95077 199.526 4.61049 198.671 4.6095H7.83605Z" fill="white"/>
<path d="M45.0059 89.4524H44.084V92.2181H45.0059V89.4524Z" fill="#E6E6E6"/>
<path d="M45.0059 97.2585H44.084V102.299H45.0059V97.2585Z" fill="#E6E6E6"/>
<path d="M45.0059 107.339H44.084V110.105H45.0059V107.339Z" fill="#E6E6E6"/>
<path d="M134.892 50.7048H133.97V53.4706H134.892V50.7048Z" fill="#E6E6E6"/>
<path d="M134.892 100.125H133.97V94.2929H134.892V100.125ZM134.892 88.4612H133.97V82.6295H134.892V88.4612ZM134.892 76.7976H133.97V70.9659H134.892V76.7976ZM134.892 65.1339H133.97V59.3022H134.892V65.1339Z" fill="#E6E6E6"/>
<path d="M134.892 105.957H133.97V108.722H134.892V105.957Z" fill="#E6E6E6"/>
<path d="M186.98 24.8915H186.058V27.6572H186.98V24.8915Z" fill="#E6E6E6"/>
<path d="M186.98 100.737H186.058V95.5167H186.98V100.737ZM186.98 90.2968H186.058V85.0769H186.98V90.2968ZM186.98 79.8569H186.058V74.637H186.98V79.8569ZM186.98 69.417H186.058V64.1971H186.98V69.417ZM186.98 58.9769H186.058V53.757H186.98V58.9769ZM186.98 48.537H186.058V43.3171H186.98V48.537ZM186.98 38.0971H186.058V32.8772H186.98V38.0971Z" fill="#E6E6E6"/>
<path d="M186.98 105.957H186.058V108.722H186.98V105.957Z" fill="#E6E6E6"/>
<path d="M29.035 109.913C26.8164 103.265 30.9811 96.4051 36.5478 92.8906C43.6321 88.418 52.6288 89.749 60.0812 92.5217C74.7541 97.9808 87.8983 110.743 104.659 107.734C107.985 107.18 111.133 105.844 113.842 103.836C116.651 101.631 118.792 98.6875 120.022 95.3347C122.684 88.4002 122.049 80.835 122.463 73.569C122.846 66.8369 124.184 59.1817 129.714 54.6733C135.774 49.7341 144.361 50.6926 151.649 50.2147C158.661 49.7853 165.443 47.5437 171.33 43.709C177.196 39.8983 181.995 34.6569 185.275 28.4787C186.048 26.9938 186.726 25.4609 187.303 23.8895C187.612 23.0536 186.276 22.6929 185.97 23.5219C181.077 36.7643 168.419 46.8678 154.383 48.5835C146.979 49.4884 138.966 48.2343 132.038 51.5802C125.515 54.7306 122.62 61.5572 121.603 68.3654C120.51 75.6769 121.418 83.1535 119.973 90.4236C119.253 94.0478 117.914 97.6132 115.463 100.434C113.133 103.037 110.101 104.912 106.73 105.833C90.2928 110.585 76.255 97.5903 62.0474 91.8109C54.653 88.803 45.8027 87.0267 38.2188 90.424C32.3119 93.0701 27.2914 99.0077 27.032 105.662C26.975 107.23 27.2018 108.794 27.7015 110.281C27.9818 111.121 29.3178 110.761 29.035 109.913Z" fill="#6C59E5"/>
<path d="M194.984 110.566H18.8994V23.5713H19.8213V109.644H194.984V110.566Z" fill="#3F3D56"/>
</g>
<defs>
<clipPath id="clip0_1180_2315">
<rect width="369" height="291.254" fill="white"/>
</clipPath>
</defs>
</svg>
