<svg width="503" height="40" viewBox="0 0 503 40" fill="none" xmlns="http://www.w3.org/2000/svg">
<path d="M14.2102 24.8636H20.483L23.6364 28.9205L26.7386 32.5341L32.5852 39.8636H25.6989L21.6761 34.9205L19.6136 31.9886L14.2102 24.8636ZM33.1136 19.5455C33.1136 23.3523 32.392 26.5909 30.9489 29.2614C29.517 31.9318 27.5625 33.9716 25.0852 35.3807C22.6193 36.7784 19.8466 37.4773 16.767 37.4773C13.6648 37.4773 10.8807 36.7727 8.41477 35.3636C5.94886 33.9545 4 31.9148 2.56818 29.2443C1.13636 26.5739 0.420455 23.3409 0.420455 19.5455C0.420455 15.7386 1.13636 12.5 2.56818 9.82955C4 7.15909 5.94886 5.125 8.41477 3.72727C10.8807 2.31818 13.6648 1.61364 16.767 1.61364C19.8466 1.61364 22.6193 2.31818 25.0852 3.72727C27.5625 5.125 29.517 7.15909 30.9489 9.82955C32.392 12.5 33.1136 15.7386 33.1136 19.5455ZM25.6307 19.5455C25.6307 17.0795 25.2614 15 24.5227 13.3068C23.7955 11.6136 22.767 10.3295 21.4375 9.45455C20.108 8.57955 18.5511 8.14205 16.767 8.14205C14.983 8.14205 13.4261 8.57955 12.0966 9.45455C10.767 10.3295 9.73295 11.6136 8.99432 13.3068C8.26705 15 7.90341 17.0795 7.90341 19.5455C7.90341 22.0114 8.26705 24.0909 8.99432 25.7841C9.73295 27.4773 10.767 28.7614 12.0966 29.6364C13.4261 30.5114 14.983 30.9489 16.767 30.9489C18.5511 30.9489 20.108 30.5114 21.4375 29.6364C22.767 28.7614 23.7955 27.4773 24.5227 25.7841C25.2614 24.0909 25.6307 22.0114 25.6307 19.5455ZM55.2344 25.8523V10.8182H62.4957V37H55.5241V32.2443H55.2514C54.6605 33.7784 53.6776 35.0114 52.3026 35.9432C50.9389 36.875 49.2741 37.3409 47.3082 37.3409C45.5582 37.3409 44.0185 36.9432 42.6889 36.1477C41.3594 35.3523 40.3196 34.2216 39.5696 32.7557C38.831 31.2898 38.456 29.5341 38.4446 27.4886V10.8182H45.706V26.1932C45.7173 27.7386 46.1321 28.9602 46.9503 29.858C47.7685 30.7557 48.8651 31.2045 50.2401 31.2045C51.1151 31.2045 51.9332 31.0057 52.6946 30.608C53.456 30.1989 54.0696 29.5966 54.5355 28.8011C55.0128 28.0057 55.2457 27.0227 55.2344 25.8523ZM80.2358 37.5114C77.5426 37.5114 75.2244 36.9659 73.2812 35.875C71.3494 34.7727 69.8608 33.2159 68.8153 31.2045C67.7699 29.1818 67.2472 26.7898 67.2472 24.0284C67.2472 21.3352 67.7699 18.9716 68.8153 16.9375C69.8608 14.9034 71.3324 13.3182 73.2301 12.1818C75.1392 11.0455 77.3778 10.4773 79.946 10.4773C81.6733 10.4773 83.2813 10.7557 84.7699 11.3125C86.2699 11.858 87.5767 12.6818 88.6903 13.7841C89.8153 14.8864 90.6903 16.2727 91.3153 17.9432C91.9403 19.6023 92.2528 21.5455 92.2528 23.7727V25.767H70.1449V21.267H85.4176C85.4176 20.2216 85.1903 19.2955 84.7358 18.4886C84.2813 17.6818 83.6506 17.0511 82.8438 16.5966C82.0483 16.1307 81.1222 15.8977 80.0653 15.8977C78.9631 15.8977 77.9858 16.1534 77.1335 16.6648C76.2926 17.1648 75.6335 17.8409 75.1562 18.6932C74.679 19.5341 74.4347 20.4716 74.4233 21.5057V25.7841C74.4233 27.0795 74.6619 28.1989 75.1392 29.142C75.6278 30.0852 76.3153 30.8125 77.2017 31.3239C78.0881 31.8352 79.1392 32.0909 80.3551 32.0909C81.1619 32.0909 81.9006 31.9773 82.571 31.75C83.2415 31.5227 83.8153 31.1818 84.2926 30.7273C84.7699 30.2727 85.1335 29.7159 85.3835 29.0568L92.0994 29.5C91.7585 31.1136 91.0597 32.5227 90.0028 33.7273C88.9574 34.9205 87.6051 35.8523 85.946 36.5227C84.2983 37.1818 82.3949 37.5114 80.2358 37.5114ZM118.776 18.2841L112.128 18.6932C112.014 18.125 111.77 17.6136 111.395 17.1591C111.02 16.6932 110.526 16.3239 109.912 16.0511C109.31 15.767 108.588 15.625 107.747 15.625C106.622 15.625 105.673 15.8636 104.901 16.3409C104.128 16.8068 103.741 17.4318 103.741 18.2159C103.741 18.8409 103.991 19.3693 104.491 19.8011C104.991 20.233 105.849 20.5795 107.065 20.8409L111.804 21.7955C114.349 22.3182 116.247 23.1591 117.497 24.3182C118.747 25.4773 119.372 27 119.372 28.8864C119.372 30.6023 118.866 32.108 117.855 33.4034C116.855 34.6989 115.48 35.7102 113.73 36.4375C111.991 37.1534 109.986 37.5114 107.713 37.5114C104.247 37.5114 101.486 36.7898 99.429 35.3466C97.3835 33.892 96.1847 31.9148 95.8324 29.4148L102.974 29.0398C103.19 30.0966 103.713 30.9034 104.543 31.4602C105.372 32.0057 106.435 32.2784 107.73 32.2784C109.003 32.2784 110.026 32.0341 110.798 31.5455C111.582 31.0455 111.98 30.4034 111.991 29.6193C111.98 28.9602 111.702 28.4205 111.156 28C110.611 27.5682 109.77 27.2386 108.634 27.0114L104.099 26.108C101.543 25.5966 99.6392 24.7102 98.3892 23.4489C97.1506 22.1875 96.5312 20.5795 96.5312 18.625C96.5312 16.9432 96.9858 15.4943 97.8949 14.2784C98.8153 13.0625 100.105 12.125 101.764 11.4659C103.435 10.8068 105.389 10.4773 107.628 10.4773C110.935 10.4773 113.537 11.1761 115.435 12.5739C117.344 13.9716 118.457 15.875 118.776 18.2841ZM137.871 10.8182V16.2727H122.104V10.8182H137.871ZM125.683 4.54545H132.945V28.9545C132.945 29.625 133.047 30.1477 133.251 30.5227C133.456 30.8864 133.74 31.142 134.104 31.2898C134.479 31.4375 134.911 31.5114 135.399 31.5114C135.74 31.5114 136.081 31.483 136.422 31.4261C136.763 31.358 137.024 31.3068 137.206 31.2727L138.348 36.6761C137.984 36.7898 137.473 36.9205 136.814 37.0682C136.155 37.2273 135.354 37.3239 134.411 37.358C132.661 37.4261 131.126 37.1932 129.808 36.6591C128.501 36.125 127.484 35.2955 126.757 34.1705C126.03 33.0455 125.672 31.625 125.683 29.9091V4.54545ZM142.601 37V10.8182H149.862V37H142.601ZM146.249 7.44318C145.169 7.44318 144.243 7.08523 143.47 6.36932C142.709 5.64204 142.328 4.77273 142.328 3.76136C142.328 2.76136 142.709 1.90341 143.47 1.1875C144.243 0.460226 145.169 0.0965891 146.249 0.0965891C147.328 0.0965891 148.249 0.460226 149.01 1.1875C149.783 1.90341 150.169 2.76136 150.169 3.76136C150.169 4.77273 149.783 5.64204 149.01 6.36932C148.249 7.08523 147.328 7.44318 146.249 7.44318ZM167.509 37.5114C164.861 37.5114 162.571 36.9489 160.639 35.8239C158.719 34.6875 157.236 33.108 156.19 31.0852C155.145 29.0511 154.622 26.6932 154.622 24.0114C154.622 21.3068 155.145 18.9432 156.19 16.9205C157.236 14.8864 158.719 13.3068 160.639 12.1818C162.571 11.0455 164.861 10.4773 167.509 10.4773C170.156 10.4773 172.44 11.0455 174.361 12.1818C176.293 13.3068 177.781 14.8864 178.827 16.9205C179.872 18.9432 180.395 21.3068 180.395 24.0114C180.395 26.6932 179.872 29.0511 178.827 31.0852C177.781 33.108 176.293 34.6875 174.361 35.8239C172.44 36.9489 170.156 37.5114 167.509 37.5114ZM167.543 31.8864C168.747 31.8864 169.753 31.5455 170.56 30.8636C171.366 30.1705 171.974 29.2273 172.384 28.0341C172.804 26.8409 173.014 25.483 173.014 23.9602C173.014 22.4375 172.804 21.0795 172.384 19.8864C171.974 18.6932 171.366 17.75 170.56 17.0568C169.753 16.3636 168.747 16.017 167.543 16.017C166.327 16.017 165.304 16.3636 164.474 17.0568C163.656 17.75 163.037 18.6932 162.616 19.8864C162.207 21.0795 162.003 22.4375 162.003 23.9602C162.003 25.483 162.207 26.8409 162.616 28.0341C163.037 29.2273 163.656 30.1705 164.474 30.8636C165.304 31.5455 166.327 31.8864 167.543 31.8864ZM192.378 21.8636V37H185.116V10.8182H192.037V15.4375H192.344C192.923 13.9148 193.895 12.7102 195.259 11.8239C196.622 10.9261 198.276 10.4773 200.219 10.4773C202.037 10.4773 203.622 10.875 204.974 11.6705C206.327 12.4659 207.378 13.6023 208.128 15.0795C208.878 16.5455 209.253 18.2955 209.253 20.3295V37H201.991V21.625C202.003 20.0227 201.594 18.7727 200.764 17.875C199.935 16.9659 198.793 16.5114 197.338 16.5114C196.361 16.5114 195.497 16.7216 194.747 17.142C194.009 17.5625 193.429 18.1761 193.009 18.983C192.599 19.7784 192.389 20.7386 192.378 21.8636ZM233.551 37.4943C231.881 37.4943 230.392 37.2045 229.085 36.625C227.778 36.0341 226.744 35.1648 225.983 34.017C225.233 32.858 224.858 31.4148 224.858 29.6875C224.858 28.233 225.125 27.0114 225.659 26.0227C226.193 25.0341 226.92 24.2386 227.841 23.6364C228.761 23.0341 229.807 22.5795 230.977 22.2727C232.159 21.9659 233.398 21.75 234.693 21.625C236.216 21.4659 237.443 21.3182 238.375 21.1818C239.307 21.0341 239.983 20.8182 240.403 20.5341C240.824 20.25 241.034 19.8295 241.034 19.2727V19.1705C241.034 18.0909 240.693 17.2557 240.011 16.6648C239.341 16.0739 238.386 15.7784 237.148 15.7784C235.841 15.7784 234.801 16.0682 234.028 16.6477C233.256 17.2159 232.744 17.9318 232.494 18.7955L225.778 18.25C226.119 16.6591 226.79 15.2841 227.79 14.125C228.79 12.9545 230.08 12.0568 231.659 11.4318C233.25 10.7955 235.091 10.4773 237.182 10.4773C238.636 10.4773 240.028 10.6477 241.358 10.9886C242.699 11.3295 243.886 11.858 244.92 12.5739C245.966 13.2898 246.79 14.2102 247.392 15.3352C247.994 16.4489 248.295 17.7841 248.295 19.3409V37H241.409V33.3693H241.205C240.784 34.1875 240.222 34.9091 239.517 35.5341C238.812 36.1477 237.966 36.6307 236.977 36.983C235.989 37.3239 234.847 37.4943 233.551 37.4943ZM235.631 32.483C236.699 32.483 237.642 32.2727 238.46 31.8523C239.278 31.4205 239.92 30.8409 240.386 30.1136C240.852 29.3864 241.085 28.5625 241.085 27.642V24.8636C240.858 25.0114 240.545 25.1477 240.148 25.2727C239.761 25.3864 239.324 25.4943 238.835 25.5966C238.347 25.6875 237.858 25.7727 237.369 25.8523C236.881 25.9205 236.438 25.983 236.04 26.0398C235.188 26.1648 234.443 26.3636 233.807 26.6364C233.17 26.9091 232.676 27.2784 232.324 27.7443C231.972 28.1989 231.795 28.767 231.795 29.4489C231.795 30.4375 232.153 31.1932 232.869 31.7159C233.597 32.2273 234.517 32.483 235.631 32.483ZM261.19 21.8636V37H253.929V10.8182H260.849V15.4375H261.156C261.736 13.9148 262.707 12.7102 264.071 11.8239C265.435 10.9261 267.088 10.4773 269.031 10.4773C270.849 10.4773 272.435 10.875 273.787 11.6705C275.139 12.4659 276.19 13.6023 276.94 15.0795C277.69 16.5455 278.065 18.2955 278.065 20.3295V37H270.804V21.625C270.815 20.0227 270.406 18.7727 269.577 17.875C268.747 16.9659 267.605 16.5114 266.151 16.5114C265.173 16.5114 264.31 16.7216 263.56 17.142C262.821 17.5625 262.241 18.1761 261.821 18.983C261.412 19.7784 261.202 20.7386 261.19 21.8636ZM293.436 37.4261C291.447 37.4261 289.646 36.9148 288.033 35.892C286.43 34.858 285.158 33.3409 284.214 31.3409C283.283 29.3295 282.817 26.8636 282.817 23.9432C282.817 20.9432 283.3 18.4489 284.266 16.4602C285.232 14.4602 286.516 12.9659 288.118 11.9773C289.732 10.9773 291.499 10.4773 293.419 10.4773C294.885 10.4773 296.107 10.7273 297.084 11.2273C298.072 11.7159 298.868 12.3295 299.47 13.0682C300.084 13.7955 300.55 14.5114 300.868 15.2159H301.089V2.09091H308.334V37H301.175V32.8068H300.868C300.527 33.5341 300.044 34.2557 299.419 34.9716C298.805 35.6761 298.004 36.2614 297.016 36.7273C296.038 37.1932 294.845 37.4261 293.436 37.4261ZM295.737 31.6477C296.908 31.6477 297.896 31.3295 298.703 30.6932C299.521 30.0455 300.146 29.142 300.578 27.983C301.021 26.8239 301.243 25.4659 301.243 23.9091C301.243 22.3523 301.027 21 300.595 19.8523C300.163 18.7045 299.538 17.8182 298.72 17.1932C297.902 16.5682 296.908 16.2557 295.737 16.2557C294.544 16.2557 293.538 16.5795 292.72 17.2273C291.902 17.875 291.283 18.7727 290.862 19.9205C290.442 21.0682 290.232 22.3977 290.232 23.9091C290.232 25.4318 290.442 26.7784 290.862 27.9489C291.294 29.108 291.913 30.017 292.72 30.6761C293.538 31.3239 294.544 31.6477 295.737 31.6477ZM331.567 37H323.658L335.709 2.09091H345.22L357.254 37H349.345L340.601 10.0682H340.328L331.567 37ZM331.072 23.2784H349.754V29.0398H331.072V23.2784ZM368.581 21.8636V37H361.32V10.8182H368.24V15.4375H368.547C369.126 13.9148 370.098 12.7102 371.462 11.8239C372.825 10.9261 374.479 10.4773 376.422 10.4773C378.24 10.4773 379.825 10.875 381.178 11.6705C382.53 12.4659 383.581 13.6023 384.331 15.0795C385.081 16.5455 385.456 18.2955 385.456 20.3295V37H378.195V21.625C378.206 20.0227 377.797 18.7727 376.967 17.875C376.138 16.9659 374.996 16.5114 373.541 16.5114C372.564 16.5114 371.7 16.7216 370.95 17.142C370.212 17.5625 369.632 18.1761 369.212 18.983C368.803 19.7784 368.592 20.7386 368.581 21.8636ZM412.963 18.2841L406.315 18.6932C406.202 18.125 405.957 17.6136 405.582 17.1591C405.207 16.6932 404.713 16.3239 404.099 16.0511C403.497 15.767 402.776 15.625 401.935 15.625C400.81 15.625 399.861 15.8636 399.088 16.3409C398.315 16.8068 397.929 17.4318 397.929 18.2159C397.929 18.8409 398.179 19.3693 398.679 19.8011C399.179 20.233 400.037 20.5795 401.253 20.8409L405.991 21.7955C408.537 22.3182 410.435 23.1591 411.685 24.3182C412.935 25.4773 413.56 27 413.56 28.8864C413.56 30.6023 413.054 32.108 412.043 33.4034C411.043 34.6989 409.668 35.7102 407.918 36.4375C406.179 37.1534 404.173 37.5114 401.901 37.5114C398.435 37.5114 395.673 36.7898 393.616 35.3466C391.571 33.892 390.372 31.9148 390.02 29.4148L397.162 29.0398C397.378 30.0966 397.901 30.9034 398.73 31.4602C399.56 32.0057 400.622 32.2784 401.918 32.2784C403.19 32.2784 404.213 32.0341 404.986 31.5455C405.77 31.0455 406.168 30.4034 406.179 29.6193C406.168 28.9602 405.889 28.4205 405.344 28C404.798 27.5682 403.957 27.2386 402.821 27.0114L398.287 26.108C395.73 25.5966 393.827 24.7102 392.577 23.4489C391.338 22.1875 390.719 20.5795 390.719 18.625C390.719 16.9432 391.173 15.4943 392.082 14.2784C393.003 13.0625 394.293 12.125 395.952 11.4659C397.622 10.8068 399.577 10.4773 401.815 10.4773C405.122 10.4773 407.724 11.1761 409.622 12.5739C411.531 13.9716 412.645 15.875 412.963 18.2841ZM423.297 37L416.172 10.8182H423.518L427.575 28.4091H427.814L432.041 10.8182H439.251L443.547 28.3068H443.768L447.757 10.8182H455.087L447.979 37H440.291L435.791 20.5341H435.467L430.967 37H423.297ZM470.236 37.5114C467.543 37.5114 465.224 36.9659 463.281 35.875C461.349 34.7727 459.861 33.2159 458.815 31.2045C457.77 29.1818 457.247 26.7898 457.247 24.0284C457.247 21.3352 457.77 18.9716 458.815 16.9375C459.861 14.9034 461.332 13.3182 463.23 12.1818C465.139 11.0455 467.378 10.4773 469.946 10.4773C471.673 10.4773 473.281 10.7557 474.77 11.3125C476.27 11.858 477.577 12.6818 478.69 13.7841C479.815 14.8864 480.69 16.2727 481.315 17.9432C481.94 19.6023 482.253 21.5455 482.253 23.7727V25.767H460.145V21.267H475.418C475.418 20.2216 475.19 19.2955 474.736 18.4886C474.281 17.6818 473.651 17.0511 472.844 16.5966C472.048 16.1307 471.122 15.8977 470.065 15.8977C468.963 15.8977 467.986 16.1534 467.134 16.6648C466.293 17.1648 465.634 17.8409 465.156 18.6932C464.679 19.5341 464.435 20.4716 464.423 21.5057V25.7841C464.423 27.0795 464.662 28.1989 465.139 29.142C465.628 30.0852 466.315 30.8125 467.202 31.3239C468.088 31.8352 469.139 32.0909 470.355 32.0909C471.162 32.0909 471.901 31.9773 472.571 31.75C473.241 31.5227 473.815 31.1818 474.293 30.7273C474.77 30.2727 475.134 29.7159 475.384 29.0568L482.099 29.5C481.759 31.1136 481.06 32.5227 480.003 33.7273C478.957 34.9205 477.605 35.8523 475.946 36.5227C474.298 37.1818 472.395 37.5114 470.236 37.5114ZM486.991 37V10.8182H494.031V15.3864H494.304C494.781 13.7614 495.582 12.5341 496.707 11.7045C497.832 10.8636 499.128 10.4432 500.594 10.4432C500.957 10.4432 501.349 10.4659 501.77 10.5114C502.19 10.5568 502.56 10.6193 502.878 10.6989V17.142C502.537 17.0398 502.065 16.9489 501.463 16.8693C500.861 16.7898 500.31 16.75 499.81 16.75C498.741 16.75 497.787 16.983 496.946 17.4489C496.116 17.9034 495.457 18.5398 494.969 19.358C494.491 20.1761 494.253 21.1193 494.253 22.1875V37H486.991Z" fill="#3E3B3E"/>
</svg>
