<svg width="18" height="23" viewBox="0 0 18 23" fill="none" xmlns="http://www.w3.org/2000/svg">
<path d="M4.09094 13.1429H10.6364V14.7857H4.09094V13.1429ZM4.09094 9.03571H13.9091V10.6786H4.09094V9.03571ZM4.09094 17.25H8.18185V18.8929H4.09094V17.25Z" fill="#7C7C7C"/>
<path d="M16.3636 2.46429H13.9091V1.64286C13.9091 1.20714 13.7367 0.789277 13.4298 0.481182C13.1229 0.173086 12.7067 0 12.2727 0H5.72727C5.29328 0 4.87707 0.173086 4.57019 0.481182C4.26331 0.789277 4.09091 1.20714 4.09091 1.64286V2.46429H1.63636C1.20237 2.46429 0.786157 2.63737 0.47928 2.94547C0.172402 3.25356 0 3.67143 0 4.10714V21.3571C0 21.7929 0.172402 22.2107 0.47928 22.5188C0.786157 22.8269 1.20237 23 1.63636 23H16.3636C16.7976 23 17.2138 22.8269 17.5207 22.5188C17.8276 22.2107 18 21.7929 18 21.3571V4.10714C18 3.67143 17.8276 3.25356 17.5207 2.94547C17.2138 2.63737 16.7976 2.46429 16.3636 2.46429ZM5.72727 1.64286H12.2727V4.92857H5.72727V1.64286ZM16.3636 21.3571H1.63636V4.10714H4.09091V6.57143H13.9091V4.10714H16.3636V21.3571Z" fill="#7C7C7C"/>
</svg>
