<svg width="300" height="240" viewBox="0 0 300 240" fill="none" xmlns="http://www.w3.org/2000/svg">
<g clip-path="url(#clip0_313_1020)">
<path d="M52.3287 214.612C52.3054 214.573 52.2802 214.536 52.2531 214.5C52.1865 214.342 52.1025 214.193 52.0027 214.054L43.7165 202.441L36.8893 192.877H25.2439L26.0673 194.029L27.5329 196.084L32.0743 202.445L41.8064 216.08L32.7858 234.232C32.4169 234.971 33.0459 236.033 34.1822 236.601L38.5328 238.771C38.9647 238.992 39.4411 239.112 39.9259 239.121C40.5384 239.121 41.0488 238.893 41.263 238.461L52.477 215.895C52.5653 215.687 52.5982 215.459 52.5722 215.234C52.5462 215.009 52.4623 214.795 52.3287 214.612Z" fill="#FFB6B6"/>
<path d="M36.658 213.916L48.3893 209.55C48.9211 209.351 49.3525 208.949 49.5889 208.433C49.8253 207.916 49.8474 207.326 49.6504 206.793L46.2092 197.515C46.0108 196.982 45.6097 196.55 45.0938 196.314C44.5778 196.077 43.9892 196.055 43.457 196.252L31.7257 200.618C31.1939 200.817 30.7625 201.219 30.5261 201.736C30.2896 202.253 30.2675 202.842 30.4645 203.375L33.9057 212.653C34.0036 212.917 34.1524 213.159 34.3437 213.366C34.535 213.572 34.765 213.739 35.0206 213.856C35.2762 213.973 35.5523 214.039 35.8333 214.049C36.1142 214.06 36.3944 214.014 36.658 213.916Z" fill="#6C59E5"/>
<path d="M46.6333 208.759C46.7126 208.759 46.7912 208.745 46.8653 208.717C47.0286 208.655 47.1607 208.53 47.2326 208.371C47.3044 208.211 47.3103 208.03 47.2488 207.866L42.9414 196.447C42.8796 196.284 42.7555 196.151 42.5962 196.079C42.437 196.007 42.2558 196.002 42.0923 196.063C41.9289 196.125 41.7967 196.25 41.7248 196.409C41.6529 196.569 41.6472 196.75 41.709 196.914L46.0164 208.333C46.0639 208.458 46.1483 208.566 46.2585 208.642C46.3687 208.718 46.4994 208.759 46.6333 208.759Z" fill="white"/>
<path d="M27.7041 237.422V196.18C27.7051 196.141 27.7027 196.103 27.6969 196.065C27.6771 195.587 27.5179 195.124 27.2392 194.735C26.9604 194.346 26.5742 194.048 26.1281 193.876C25.8436 193.762 25.5402 193.705 25.2341 193.705H20.373C19.7181 193.706 19.0902 193.967 18.6272 194.431C18.1641 194.895 17.9036 195.524 17.9029 196.18V237.422C17.9036 238.078 18.1641 238.707 18.6272 239.171C19.0902 239.635 19.7181 239.896 20.373 239.897H25.2341C25.889 239.896 26.5168 239.635 26.9799 239.171C27.4429 238.707 27.7034 238.078 27.7041 237.422Z" fill="#FFB6B6"/>
<path d="M30.342 211.682V201.785C30.3414 201.216 30.1156 200.671 29.7143 200.269C29.313 199.867 28.7689 199.641 28.2013 199.641H15.6864C15.1189 199.641 14.5748 199.867 14.1734 200.269C13.7721 200.671 13.5464 201.216 13.5457 201.785V211.682C13.5464 212.251 13.7721 212.796 14.1734 213.198C14.5748 213.6 15.1189 213.826 15.6864 213.827H28.2013C28.7689 213.826 29.313 213.6 29.7143 213.198C30.1156 212.796 30.3414 212.251 30.342 211.682Z" fill="#6C59E5"/>
<path d="M20.7666 212.782C20.9413 212.782 21.1087 212.712 21.2322 212.589C21.3556 212.465 21.4251 212.297 21.4253 212.122V199.916C21.4253 199.741 21.3559 199.573 21.2324 199.449C21.1088 199.325 20.9413 199.256 20.7666 199.256C20.5919 199.256 20.4244 199.325 20.3008 199.449C20.1773 199.573 20.1079 199.741 20.1079 199.916V212.122C20.1081 212.297 20.1776 212.465 20.3011 212.589C20.4246 212.712 20.592 212.782 20.7666 212.782Z" fill="white"/>
<path d="M43.2717 164.81L79.2811 146.213C79.8622 145.911 80.3002 145.391 80.4994 144.766C80.6985 144.141 80.6426 143.463 80.3438 142.879L78.1173 138.551C77.8157 137.969 77.2964 137.53 76.6728 137.331C76.0493 137.131 75.3723 137.187 74.7899 137.487L38.7795 156.084C38.5986 156.177 38.4306 156.293 38.2796 156.43C37.866 156.793 37.5859 157.285 37.484 157.826C37.3821 158.368 37.4644 158.928 37.7176 159.417L39.9443 163.746C40.0927 164.035 40.2967 164.292 40.5446 164.502C40.7925 164.712 41.0794 164.871 41.3887 164.969C41.6337 165.046 41.8888 165.085 42.1455 165.085C42.5375 165.085 42.9237 164.991 43.2717 164.81Z" fill="#FFB6B6"/>
<path d="M42.5718 165.879L60.079 158.955C60.6635 158.661 61.1078 158.146 61.3144 157.524C61.521 156.902 61.4732 156.224 61.1813 155.637L57.189 147.394C56.894 146.809 56.3803 146.365 55.7597 146.157C55.4475 146.054 55.1178 146.014 54.7901 146.04C54.4623 146.066 54.143 146.157 53.8508 146.308L38.0412 155.908C37.9798 155.939 37.923 155.979 37.8728 156.026C37.4699 156.389 37.2692 157.261 37.1081 157.961L37.0825 158.07C37.0386 158.258 37.0006 158.42 36.962 158.533L36.949 158.577C36.9349 158.623 36.9205 158.671 36.9109 158.715C36.7695 159.286 36.837 159.889 37.1013 160.415L39.2815 164.767C39.4896 165.177 39.8065 165.521 40.1973 165.763C40.5882 166.004 41.0378 166.133 41.497 166.135C41.8703 166.135 42.2386 166.048 42.5718 165.879Z" fill="#6C59E5"/>
<path d="M29.6575 143.291C19.9229 143.291 12.0315 135.385 12.0315 125.634C12.0315 115.882 19.9229 107.977 29.6575 107.977C39.392 107.977 47.2834 115.882 47.2834 125.634C47.2834 135.385 39.392 143.291 29.6575 143.291Z" fill="#FFB6B6"/>
<path d="M45.7253 202.601C46.8893 202.534 47.7971 200.617 47.7971 198.213V167.309C47.7975 165.804 47.6088 164.305 47.2354 162.847L47.2353 162.847C47.0994 162.323 46.9384 161.802 46.7567 161.299C45.6511 158.204 43.7101 155.477 41.1497 153.421C40.8606 153.184 40.5581 152.955 40.2513 152.741C38.76 151.686 37.1147 150.87 35.3738 150.321C35.4219 150.103 35.4464 149.881 35.4469 149.659C35.446 148.828 35.116 148.031 34.5295 147.444C33.9429 146.856 33.1477 146.526 32.3182 146.525H27.7074C26.8779 146.526 26.0827 146.856 25.4961 147.444C24.9096 148.031 24.5796 148.828 24.5787 149.659C24.5792 149.881 24.6037 150.102 24.6516 150.319C21.048 151.462 17.9013 153.725 15.6677 156.78C13.434 159.835 12.2294 163.523 12.2285 167.309V198.213C12.2285 200.678 13.1688 202.61 14.3692 202.61H45.6564C45.6797 202.61 45.7029 202.608 45.7253 202.601Z" fill="#6C59E5"/>
<path d="M25.3579 205.422C25.5626 205.062 25.6739 204.657 25.6817 204.243L26.3746 163.666C26.3805 163.341 26.3223 163.018 26.2034 162.715C26.0845 162.413 25.9072 162.137 25.6816 161.903L25.6811 161.903C25.4558 161.669 25.1868 161.482 24.8894 161.352C24.592 161.223 24.272 161.153 23.9477 161.147L19.0867 161.066C18.4742 161.055 17.8796 161.272 17.4184 161.676C16.9571 162.08 16.6621 162.641 16.5908 163.25C16.5804 163.331 16.5751 163.413 16.5749 163.495L15.8794 204.075C15.87 204.731 16.1204 205.363 16.5757 205.835C17.031 206.306 17.6542 206.578 18.3089 206.59L23.1683 206.674C23.6116 206.681 24.0486 206.568 24.4337 206.348C24.8188 206.128 25.1379 205.808 25.3579 205.422Z" fill="#FFB6B6"/>
<path d="M27.4008 177.557C27.5849 177.233 27.6935 176.871 27.7185 176.499L27.5109 157.7C27.5613 157.045 27.3507 156.398 26.9252 155.899C26.4997 155.401 25.8941 155.091 25.2413 155.039L20.3956 154.659C19.8058 154.614 19.2192 154.781 18.7413 155.13C18.6917 155.168 18.6419 155.214 18.5935 155.247C18.4724 155.348 18.3461 155.442 18.2153 155.53L18.1103 155.605C17.4138 156.099 16.6242 156.659 16.586 157.205L13.6707 175.546C13.6271 176.07 13.7537 176.594 14.0317 177.039C14.0972 177.149 14.1718 177.252 14.2548 177.349C14.3275 177.435 14.4069 177.515 14.4923 177.588C14.8943 177.95 15.4049 178.169 15.9441 178.21L25.0637 178.799C25.5307 178.835 25.9983 178.738 26.412 178.518C26.8258 178.298 27.1687 177.965 27.4008 177.557Z" fill="#6C59E5"/>
<path d="M44.479 198.266C44.6537 198.266 44.8211 198.196 44.9446 198.073C45.068 197.949 45.1375 197.781 45.1377 197.606V165.605C45.1377 165.43 45.0683 165.262 44.9448 165.138C44.8212 165.014 44.6537 164.945 44.479 164.945C44.3043 164.945 44.1368 165.014 44.0133 165.138C43.8897 165.262 43.8203 165.43 43.8203 165.605V197.606C43.8205 197.781 43.89 197.949 44.0135 198.073C44.137 198.196 44.3044 198.266 44.479 198.266Z" fill="white"/>
<path d="M13.6723 121.439L44.2922 110.218C44.4547 110.159 44.6039 110.068 44.7312 109.95C44.8586 109.833 44.9616 109.692 45.0345 109.535C45.1073 109.378 45.1486 109.208 45.1558 109.034C45.1631 108.861 45.1362 108.688 45.0768 108.526L44.9732 108.035C42.5819 101.487 34.6557 97.3657 28.1189 99.7612L18.6964 103.214C12.1597 105.61 9.31862 113.364 11.71 119.912L11.9825 120.654C12.1026 120.982 12.348 121.25 12.6649 121.397C12.9818 121.544 13.3442 121.56 13.6723 121.439Z" fill="#6C59E5"/>
<path d="M12.0228 122.062C54.701 123.64 58.4302 118.268 45.4265 109.821L42.6678 104.736L11.0512 116.283L12.0228 122.062Z" fill="#6C59E5"/>
<path d="M20.391 102.409C20.1554 101.624 21.1647 100.626 22.6453 100.18C24.1259 99.7341 25.5172 100.009 25.7528 100.794C25.9884 101.58 24.9792 102.578 23.4986 103.023C22.0179 103.469 20.6267 103.194 20.391 102.409Z" fill="#6C59E5"/>
<path d="M206.604 0C237.205 0 262.097 24.9351 262.097 55.5893C262.105 63.436 260.447 71.1947 257.231 78.3498C248.534 97.6859 229.116 111.179 206.604 111.179C191.889 111.17 177.779 105.311 167.374 94.8878C156.969 84.4646 151.12 70.33 151.111 55.5893C151.111 24.9352 176.008 0 206.604 0ZM160.692 77.9362C164.882 86.5633 171.408 93.8373 179.526 98.9286C187.644 104.02 197.026 106.724 206.604 106.731C228.237 106.731 246.772 93.181 254.19 74.1072C256.489 68.2054 257.665 61.9246 257.657 55.5893C257.657 27.3899 234.754 4.44715 206.604 4.44715C178.454 4.44715 155.551 27.3899 155.551 55.5893C155.541 63.3335 157.3 70.9773 160.692 77.9362Z" fill="#E6E6E6"/>
<path d="M206.604 111.343C217.115 111.335 227.41 108.348 236.299 102.729C245.188 97.1089 252.309 89.0852 256.84 79.584C257.021 79.2052 257.1 78.7855 257.068 78.3667C257.036 77.948 256.896 77.5449 256.66 77.1976L256.63 77.154C256.395 76.8124 256.074 76.5388 255.7 76.3607C255.325 76.1827 254.911 76.1063 254.498 76.1394C254.085 76.1725 253.688 76.3139 253.346 76.5493C253.005 76.7847 252.732 77.1059 252.553 77.4807C244.134 95.1495 226.098 106.566 206.604 106.566C197.696 106.544 188.948 104.188 181.229 99.7335C173.509 95.2787 167.087 88.8797 162.598 81.1711C162.39 80.8091 162.089 80.5088 161.727 80.3009C161.365 80.093 160.954 79.9848 160.537 79.9874C160.124 79.9863 159.718 80.0956 159.362 80.3039C159.005 80.5122 158.71 80.8121 158.508 81.1725L158.482 81.2181C158.276 81.5819 158.169 81.9931 158.172 82.4111C158.174 82.829 158.285 83.2391 158.494 83.6007C163.405 92.0235 170.427 99.0146 178.866 103.881C187.305 108.747 196.867 111.32 206.604 111.343Z" fill="#F0B518"/>
<path d="M219.112 60.6737C217.603 60.6639 216.138 61.1788 214.967 62.1306C213.795 63.0823 212.99 64.4119 212.688 65.8923C212.386 67.3728 212.607 68.9123 213.312 70.248C214.017 71.5837 215.163 72.6329 216.554 73.2164C217.946 73.7999 219.496 73.8816 220.941 73.4475C222.386 73.0134 223.635 72.0904 224.476 70.8361C225.317 69.5818 225.698 68.0739 225.552 66.57C225.407 65.066 224.745 63.6591 223.68 62.5895C223.083 61.9834 222.372 61.502 221.588 61.1731C220.803 60.8443 219.962 60.6745 219.112 60.6737ZM219.112 57.8942C220.941 57.8932 222.73 58.4357 224.252 59.4531C225.774 60.4705 226.96 61.9171 227.661 63.61C228.362 65.3029 228.546 67.166 228.19 68.9637C227.834 70.7614 226.954 72.413 225.661 73.7097C224.368 75.0063 222.721 75.8897 220.926 76.2483C219.132 76.6068 217.272 76.4243 215.581 75.7238C213.891 75.0234 212.445 73.8364 211.428 72.3131C210.411 70.7898 209.867 68.9985 209.866 67.1657C209.865 64.7081 210.838 62.3506 212.572 60.6118C214.306 58.8731 216.658 57.8955 219.112 57.8942ZM199.838 44.6421C199.001 44.6464 198.197 44.3175 197.602 43.7278C197.008 43.1381 196.671 42.3359 196.667 41.4977C196.667 41.487 196.667 41.4763 196.667 41.4656C196.663 41.055 196.74 40.6476 196.893 40.2667C197.046 39.8859 197.273 39.539 197.56 39.2459C197.847 38.9527 198.189 38.7191 198.566 38.5584C198.944 38.3976 199.349 38.3129 199.759 38.3089C199.778 38.3087 199.798 38.3087 199.818 38.3089C200.657 38.301 201.464 38.627 202.062 39.2153C202.66 39.8035 203.001 40.6058 203.009 41.4456C203.017 42.2854 202.691 43.094 202.104 43.6934C201.517 44.2929 200.716 44.6341 199.878 44.642C199.864 44.6421 199.851 44.6422 199.838 44.6421ZM193.209 60.6737C191.7 60.6639 190.235 61.1788 189.064 62.1306C187.892 63.0823 187.087 64.4119 186.785 65.8923C186.483 67.3728 186.703 68.9123 187.409 70.248C188.114 71.5837 189.26 72.6329 190.651 73.2164C192.042 73.7999 193.593 73.8816 195.038 73.4475C196.482 73.0134 197.732 72.0904 198.573 70.8361C199.414 69.5818 199.794 68.0739 199.649 66.57C199.504 65.066 198.842 63.6591 197.777 62.5895C197.18 61.9834 196.468 61.502 195.684 61.1731C194.9 60.8443 194.059 60.6745 193.209 60.6737ZM193.209 57.8942C195.037 57.8942 196.825 58.4374 198.345 59.4551C199.866 60.4728 201.051 61.9192 201.75 63.6115C202.45 65.3039 202.633 67.1661 202.276 68.9626C201.92 70.7592 201.039 72.4095 199.746 73.7047C198.453 75 196.806 75.882 195.012 76.2394C193.219 76.5968 191.36 76.4134 189.67 75.7124C187.981 75.0114 186.537 73.8243 185.521 72.3012C184.505 70.7782 183.963 68.9876 183.963 67.1558C183.963 65.9395 184.202 64.7352 184.667 63.6115C185.132 62.4879 185.813 61.4669 186.671 60.6069C187.53 59.7469 188.549 59.0647 189.67 58.5992C190.792 58.1338 191.994 57.8942 193.209 57.8942Z" fill="#E6E6E6"/>
<path d="M195.062 51.015H199.818L202.741 45.0491C202.977 44.6308 203.307 44.273 203.704 44.0038C204.101 43.7346 204.556 43.5615 205.031 43.498C205.506 43.4345 205.99 43.4824 206.444 43.6378C206.898 43.7933 207.309 44.0521 207.646 44.394L214.752 51.2533C215.333 51.848 215.663 52.6444 215.673 53.4769C215.673 55.2041 214.425 55.8196 213.84 56.167C209.331 58.7678 207.746 59.0556 207.746 60.356V66.8977C207.746 67.3189 207.579 67.7229 207.281 68.0208C206.984 68.3186 206.581 68.486 206.16 68.486C205.74 68.486 205.336 68.3186 205.039 68.0208C204.742 67.7229 204.575 67.3189 204.575 66.8977V57.9637C204.575 56.6534 207.587 55.5813 209.361 54.1916L204.515 49.0794C202.662 51.9085 201.81 54.1916 200.75 54.1916H195.062C194.641 54.1923 194.237 54.0256 193.94 53.7282C193.642 53.4308 193.474 53.0271 193.473 52.6059C193.473 52.1847 193.639 51.7804 193.936 51.4821C194.233 51.1837 194.636 51.0157 195.056 51.0151L195.062 51.015Z" fill="#E6E6E6"/>
<path d="M251.239 141.155C252.605 141.155 253.736 145.139 253.955 150.362H280.231C280.45 145.139 281.581 141.155 282.947 141.155C284.469 141.155 285.704 146.102 285.704 152.203C285.704 158.305 284.469 163.251 282.947 163.251C281.581 163.251 280.45 159.268 280.231 154.044H253.955C253.736 159.268 252.605 163.251 251.239 163.251C249.717 163.251 248.482 158.305 248.482 152.203C248.482 146.102 249.717 141.155 251.239 141.155Z" fill="#E6E6E6"/>
<path d="M238.44 135.892C242.335 128.899 248.64 123.569 256.175 120.898C263.711 118.228 271.959 118.4 279.377 121.383C286.795 124.366 292.873 129.955 296.473 137.104C300.073 144.253 300.948 152.471 298.935 160.22C296.921 167.969 292.158 174.717 285.535 179.201C278.913 183.685 270.886 185.597 262.958 184.579C255.03 183.561 247.744 179.683 242.464 173.671C237.185 167.659 234.274 159.926 234.276 151.919C234.278 146.308 235.711 140.791 238.44 135.892ZM267.145 182.209C275.112 182.168 282.737 178.964 288.349 173.299C293.96 167.634 297.1 159.971 297.08 151.991C297.059 144.01 293.88 136.364 288.239 130.728C282.598 125.092 274.956 121.928 266.99 121.928C259.023 121.929 251.382 125.094 245.742 130.731C240.102 136.367 236.923 144.014 236.904 151.995C236.884 159.975 240.025 167.638 245.637 173.302C251.25 178.966 258.875 182.169 266.842 182.209C266.943 182.209 267.044 182.209 267.145 182.209Z" fill="#E6E6E6"/>
<path d="M267.129 185.011C273.392 185.014 279.527 183.229 284.814 179.867C285.078 179.698 285.282 179.45 285.396 179.158L285.412 179.115C285.527 178.825 285.546 178.507 285.466 178.206C285.386 177.905 285.212 177.637 284.969 177.443C284.734 177.245 284.442 177.128 284.136 177.109C283.829 177.091 283.525 177.171 283.268 177.339C277.648 180.922 270.999 182.534 264.365 181.921C257.731 181.308 251.489 178.504 246.618 173.951C241.748 169.398 238.526 163.353 237.457 156.766C236.389 150.178 237.536 143.422 240.717 137.559C240.866 137.29 240.925 136.98 240.885 136.675C240.845 136.37 240.709 136.086 240.495 135.865C240.285 135.636 240.006 135.48 239.7 135.421C239.395 135.362 239.078 135.403 238.798 135.538L238.757 135.558C238.475 135.69 238.243 135.908 238.093 136.18C235.37 141.218 234 146.877 234.116 152.605C234.233 158.332 235.832 163.931 238.757 168.853C241.683 173.776 245.834 177.853 250.805 180.685C255.776 183.517 261.395 185.008 267.114 185.011H267.129Z" fill="#0153AD"/>
<path d="M146.078 118.998C150.395 118.996 154.67 119.847 158.66 121.5C162.649 123.154 166.274 125.578 169.327 128.635C172.381 131.692 174.804 135.322 176.457 139.317C178.11 143.312 178.961 147.594 178.962 151.919C178.963 156.244 178.113 160.526 176.461 164.522C174.81 168.518 172.388 172.148 169.336 175.206C166.283 178.265 162.659 180.69 158.671 182.345C154.682 184 150.407 184.852 146.09 184.852H146.078C145.865 184.852 145.656 184.852 145.443 184.843C136.782 184.676 128.537 181.09 122.501 174.866C116.465 168.642 113.126 160.283 113.209 151.606C113.293 142.928 116.793 134.635 122.948 128.529C129.103 122.423 137.415 118.998 146.078 118.998ZM139.379 181.463C143.528 182.407 147.829 182.463 152.001 181.628C156.173 180.793 160.122 179.085 163.59 176.617C167.058 174.148 169.968 170.974 172.128 167.302C174.288 163.631 175.65 159.543 176.125 155.308C176.601 151.073 176.179 146.785 174.887 142.724C173.595 138.664 171.462 134.922 168.628 131.743C165.794 128.565 162.322 126.021 158.439 124.279C154.556 122.536 150.35 121.634 146.096 121.631H146.078C138.641 121.631 131.465 124.375 125.921 129.341C120.377 134.306 116.854 141.144 116.025 148.547C115.196 155.95 117.12 163.4 121.428 169.472C125.736 175.544 132.127 179.813 139.379 181.463Z" fill="#E6E6E6"/>
<path d="M146.078 185.017C154.23 185.016 162.095 181.997 168.158 176.538C174.222 171.079 178.057 163.568 178.924 155.448C179.792 147.327 177.632 139.173 172.86 132.552C168.087 125.931 161.039 121.312 153.072 119.583C152.876 119.541 152.674 119.538 152.477 119.575L152.408 119.588C152.077 119.652 151.779 119.829 151.563 120.088C151.348 120.347 151.228 120.672 151.224 121.01C151.22 121.347 151.332 121.675 151.542 121.939C151.751 122.203 152.046 122.386 152.375 122.458C159.638 124.018 166.067 128.215 170.426 134.24C174.784 140.266 176.763 147.693 175.98 155.093C175.198 162.492 171.71 169.34 166.188 174.317C160.666 179.294 153.501 182.049 146.073 182.05C145.783 182.047 145.501 182.046 145.214 182.037C144.894 182.024 144.58 182.124 144.326 182.319C144.072 182.515 143.896 182.794 143.827 183.107C143.751 183.409 143.784 183.729 143.921 184.009C144.058 184.289 144.29 184.512 144.575 184.637C144.768 184.726 144.963 184.813 145.158 184.899C145.322 184.972 145.5 185.011 145.68 185.014C145.812 185.017 145.944 185.017 146.078 185.017Z" fill="#00954A"/>
<path d="M129.863 150.525C130.738 150.481 131.604 150.725 132.329 151.221C133.053 151.716 133.595 152.435 133.873 153.268H137.111L139.474 146.149C139.561 145.882 139.731 145.65 139.958 145.485C140.185 145.321 140.458 145.232 140.739 145.232H140.764C141.048 145.236 141.323 145.333 141.548 145.507C141.773 145.681 141.936 145.924 142.012 146.199L145.715 159.144L150.067 132.961C150.117 132.658 150.27 132.382 150.5 132.179C150.73 131.975 151.023 131.857 151.329 131.845C151.636 131.832 151.937 131.925 152.183 132.109C152.429 132.292 152.604 132.555 152.68 132.853L157.09 153.268H162.033C162.386 153.268 162.725 153.408 162.975 153.658C163.224 153.908 163.365 154.248 163.365 154.601C163.365 154.955 163.224 155.294 162.975 155.544C162.725 155.795 162.386 155.935 162.033 155.935H156.042C155.745 155.936 155.457 155.836 155.223 155.654C154.989 155.471 154.823 155.215 154.752 154.926L151.64 139.739L147.371 165.405C147.322 165.704 147.172 165.977 146.947 166.179C146.721 166.38 146.433 166.499 146.131 166.513H146.056C145.767 166.513 145.485 166.418 145.254 166.244C145.023 166.07 144.855 165.825 144.775 165.546L140.639 151.075L139.332 155.018C139.243 155.284 139.073 155.515 138.847 155.68C138.62 155.844 138.347 155.933 138.067 155.935H133.815C133.561 156.61 133.13 157.203 132.567 157.652C132.004 158.101 131.33 158.39 130.617 158.487C129.904 158.584 129.178 158.487 128.515 158.205C127.853 157.923 127.279 157.467 126.854 156.885C126.429 156.303 126.168 155.617 126.1 154.9C126.032 154.182 126.159 153.459 126.468 152.808C126.776 152.156 127.254 151.6 127.851 151.198C128.449 150.797 129.144 150.564 129.863 150.525Z" fill="#E6E6E6"/>
<path d="M0.329323 240H60.5984C60.6857 240 60.7695 239.965 60.8313 239.903C60.893 239.842 60.9277 239.758 60.9277 239.67C60.9277 239.583 60.893 239.499 60.8313 239.437C60.7695 239.375 60.6857 239.34 60.5984 239.34H0.329323C0.241978 239.34 0.158192 239.375 0.0964321 239.437C0.0346683 239.499 -1.48925e-05 239.583 -1.48925e-05 239.67C-1.48925e-05 239.758 0.0346683 239.842 0.0964321 239.903C0.158192 239.965 0.241978 240 0.329323 240Z" fill="#3F3D56"/>
<path d="M296.871 239.863H0V239.151H297L296.871 239.863Z" fill="#CACACA"/>
</g>
<defs>
<clipPath id="clip0_313_1020">
<rect width="300" height="240" fill="white" transform="matrix(-1 0 0 1 300 0)"/>
</clipPath>
</defs>
</svg>
