<svg width="275" height="261" viewBox="0 0 275 261" fill="none" xmlns="http://www.w3.org/2000/svg">
<path d="M100.014 49.5078C100.02 57.4883 98.0943 65.3516 94.4014 72.4262C90.7084 79.5008 85.3578 85.5764 78.8068 90.134C76.9615 91.4254 75.0292 92.5876 73.0236 93.6124C72.358 93.9538 71.6878 94.2782 71.0051 94.5855C70.3903 94.8671 69.7716 95.1318 69.1441 95.3836C61.3625 98.5344 52.9093 99.662 44.5738 98.6613C43.1313 98.4906 41.7072 98.2559 40.3016 97.9571C40.242 97.9443 40.1778 97.9315 40.1182 97.9187C37.1745 97.2962 34.2953 96.4003 31.5182 95.2427C23.2387 91.8059 16.0477 86.1857 10.7123 78.982C5.37693 71.7782 2.09739 63.2611 1.22359 54.3393C0.349794 45.4176 1.91453 36.426 5.75085 28.324C9.58717 20.2219 15.5511 13.3134 23.0064 8.33545C30.4617 3.35753 39.1285 0.49702 48.0823 0.0591199C57.036 -0.37878 65.9406 1.62236 73.846 5.84903C81.7515 10.0757 88.3611 16.3693 92.9697 24.0584C97.5784 31.7474 100.013 40.5434 100.014 49.5078Z" fill="#F1F1F1"/>
<path d="M59.6242 40.2677C59.5815 40.2165 59.5346 40.1696 59.4878 40.1226C56.8426 37.4518 53.2506 35.9322 49.4917 35.8939C45.7329 35.8555 42.1106 37.3015 39.4115 39.9178C39.3817 39.9434 39.356 39.969 39.3304 39.9946C39.2962 40.0245 39.2664 40.0543 39.2364 40.0842C37.9072 41.4102 36.8528 42.9854 36.1336 44.7197C35.4144 46.454 35.0446 48.3131 35.0454 50.1906V59.1533C35.0462 59.6624 35.2488 60.1504 35.6088 60.5105C35.9688 60.8705 36.4568 61.073 36.966 61.0738H61.7199C62.229 61.073 62.7171 60.8705 63.0771 60.5105C63.4371 60.1504 63.6397 59.6624 63.6404 59.1533V50.1906C63.644 46.4864 62.2032 42.9267 59.6242 40.2677Z" fill="#2F2E41"/>
<path d="M49.9165 60.985C55.7058 60.985 60.3989 56.2919 60.3989 50.5026C60.3989 44.7133 55.7058 40.0202 49.9165 40.0202C44.1272 40.0202 39.4341 44.7133 39.4341 50.5026C39.4341 56.2919 44.1272 60.985 49.9165 60.985Z" fill="#FFB7B7"/>
<path d="M60.9344 49.6102L59.6968 40.9634C59.6586 40.698 59.5232 40.4562 59.3169 40.2848C59.2473 40.229 59.1713 40.1818 59.0906 40.144C52.7527 37.1778 46.3254 37.1778 39.9875 40.1354C39.9029 40.1745 39.8239 40.2248 39.7526 40.2848C39.7272 40.3062 39.7016 40.3318 39.6759 40.3574C39.5065 40.5324 39.4012 40.7595 39.3771 41.0018L38.5492 49.6614C38.5352 49.8095 38.5523 49.9589 38.5993 50.1C38.6464 50.2411 38.7223 50.3708 38.8224 50.4809C38.9835 50.6583 39.2002 50.7757 39.4369 50.8138C39.4944 50.826 39.5531 50.8317 39.6119 50.8308H41.7117C41.9147 50.8301 42.1134 50.7721 42.2848 50.6633C42.4562 50.5546 42.5934 50.3996 42.6806 50.2163L43.5896 48.2701C43.6477 48.1439 43.7455 48.0402 43.868 47.9748C43.9905 47.9093 44.1311 47.8856 44.2683 47.9073C44.4055 47.9291 44.5318 47.995 44.6281 48.0952C44.7244 48.1953 44.7853 48.3242 44.8016 48.4621L44.9808 49.8962C45.0141 50.1538 45.1397 50.3905 45.3345 50.5625C45.5292 50.7344 45.7797 50.8297 46.0395 50.8308H59.8802C60.0613 50.8317 60.2395 50.7846 60.3966 50.6943C60.5059 50.6348 60.6041 50.5568 60.6869 50.4638C60.7869 50.3476 60.8608 50.2112 60.9035 50.0639C60.9462 49.9167 60.9568 49.7619 60.9344 49.6102Z" fill="#2F2E41"/>
<path d="M75.8379 80.1898L78.8083 90.134C76.9631 91.4254 75.0308 92.5876 73.0252 93.6124C72.3596 93.9538 71.6894 94.2782 71.0067 94.5855L67.9293 81.3933L66.7344 76.2761L74.4166 75.4225L75.8379 80.1898Z" fill="#FFB7B7"/>
<path d="M40.4865 78.5381L40.2304 91.9735L40.1195 97.9187C37.1759 97.2962 34.2967 96.4003 31.5195 95.2427L32.5396 82.5158L32.7957 79.3063L40.4865 78.5381Z" fill="#FFB7B7"/>
<path d="M75.838 80.1898L68.1216 81.3464L68.2156 82.614L69.1459 95.3836C61.3642 98.5344 52.911 99.662 44.5755 98.6613C43.133 98.4906 41.7089 98.2559 40.3033 97.9571C40.9349 95.3025 41.4813 92.9125 40.8069 92.443C40.6037 92.3007 40.4112 92.1438 40.2307 91.9735C37.0852 88.9732 38.2462 82.2 38.2462 82.2L32.54 82.5158L30.564 82.6268C30.564 82.6268 31.4175 68.9694 35.2587 68.9694H39.9534L62.5733 66.8355C62.5733 66.8355 68.9752 64.7015 70.6824 67.6891C71.5787 69.2554 73.1747 72.5758 74.4937 75.3841C75.6886 77.9363 76.6574 80.066 76.6574 80.066L75.838 80.1898Z" fill="#00954A"/>
<path d="M274.997 50.0531C274.917 57.8706 272.984 65.5577 269.358 72.4835C265.731 79.4093 260.514 85.3764 254.134 89.8951C254.023 89.9719 253.908 90.053 253.793 90.134C253.673 90.2194 253.55 90.3048 253.426 90.3859C252.709 90.8809 251.977 91.3547 251.232 91.8071C250.182 92.4473 249.108 93.049 248.01 93.6124C247.976 93.6295 247.937 93.6466 247.903 93.6636C247.271 93.988 246.634 94.2952 245.991 94.5855C245.97 94.594 245.953 94.6026 245.931 94.6111C245.782 94.6794 245.624 94.7519 245.47 94.8159C244.28 95.3452 243.063 95.8275 241.825 96.2543C240.771 96.6256 239.701 96.9585 238.616 97.253C236.396 97.8652 234.136 98.3188 231.851 98.6102C229.904 98.8607 227.943 98.9946 225.979 99.0113C225.816 99.0156 225.654 99.0156 225.492 99.0156C224.421 99.0156 223.354 98.9815 222.3 98.9132C221.378 98.8534 220.465 98.7723 219.56 98.6614C218.164 98.4949 216.786 98.273 215.428 97.9828C215.369 97.9742 215.309 97.9614 215.249 97.9486C215.202 97.9401 215.151 97.9273 215.104 97.9187C213.738 97.6328 212.394 97.2828 211.075 96.8816C209.833 96.5061 208.614 96.0821 207.418 95.6098C207.11 95.4903 206.807 95.3708 206.504 95.2428C205.749 94.9269 205.002 94.5983 204.268 94.2441C204.054 94.1459 203.845 94.0435 203.636 93.9411C202.928 93.5954 202.228 93.2326 201.545 92.8485C200.721 92.3918 199.912 91.9124 199.117 91.4102C198.114 90.7785 197.132 90.1127 196.18 89.4085C187.724 83.1958 181.461 74.4572 178.294 64.4537C175.126 54.4502 175.219 43.6991 178.559 33.7519C181.899 23.8047 188.312 15.1757 196.874 9.11012C205.437 3.04457 215.704 -0.143856 226.196 0.00491842C253.344 0.38201 275.29 22.9048 274.997 50.0531Z" fill="#F1F1F1"/>
<path d="M215.104 97.9187C213.738 97.6328 212.394 97.2828 211.075 96.8816L215.603 68.803L220.294 68.6579L228.8 68.389L233.162 68.2525C233.162 68.2525 236.256 81.85 238.616 97.2529C236.396 97.8652 234.135 98.3188 231.851 98.6101C229.903 98.8606 227.942 98.9946 225.979 99.0113C225.816 99.0156 225.654 99.0156 225.492 99.0156C224.421 99.0156 223.354 98.9814 222.3 98.9131C221.378 98.8534 220.465 98.7723 219.56 98.6613C218.164 98.4949 216.786 98.273 215.428 97.9827C215.369 97.9742 215.309 97.9614 215.249 97.9486C215.202 97.9401 215.151 97.9273 215.104 97.9187Z" fill="#CBCBCB"/>
<path d="M215.428 97.9827C215.369 97.9742 215.309 97.9614 215.249 97.9486C215.202 97.9401 215.151 97.9273 215.104 97.9187C213.738 97.6328 212.394 97.2828 211.075 96.8816C209.833 96.506 208.614 96.0821 207.418 95.6098C207.11 95.4903 206.807 95.3708 206.504 95.2427C205.749 94.9269 205.002 94.5983 204.268 94.2441C204.055 94.1459 203.846 94.0435 203.636 93.941L203.261 72.9173L214.784 67.9793C214.784 67.9793 214.822 68.2866 220.294 68.6579C221.335 72.0552 215.428 97.9827 215.428 97.9827Z" fill="#0153AD"/>
<path d="M249.871 71.9229L247.698 83.3395L247.903 93.6636C247.271 93.988 246.634 94.2952 245.991 94.5855C245.97 94.594 245.952 94.6026 245.931 94.6111C245.782 94.6794 245.624 94.7519 245.47 94.816C244.28 95.3452 243.063 95.8275 241.825 96.2543C240.771 96.6256 239.701 96.9585 238.616 97.253C236.396 97.8652 234.136 98.3188 231.851 98.6102C229.904 98.8606 227.943 98.9946 225.979 99.0113L225.752 80.7148C225.275 74.8165 226.858 70.9157 228.8 68.3891C239.149 67.0063 238.919 66.8825 238.919 66.8825L249.892 71.8205L249.871 71.9229Z" fill="#0153AD"/>
<path d="M208.199 74.5647L207.418 95.6098C207.11 95.4903 206.807 95.3708 206.504 95.2428C205.749 94.9269 205.002 94.5983 204.268 94.2441C204.055 94.1459 203.846 94.0435 203.636 93.941C202.928 93.5953 202.228 93.2326 201.545 92.8485C200.721 92.3918 199.912 91.9123 199.117 91.4102L203.261 72.9173L208.199 74.5647Z" fill="#0153AD"/>
<path d="M254.134 89.895C254.023 89.9719 253.908 90.0529 253.793 90.134C253.674 90.2194 253.55 90.3048 253.426 90.3859C252.709 90.8809 251.978 91.3547 251.232 91.8071C250.182 92.4472 249.108 93.049 248.01 93.6124C247.976 93.6295 247.937 93.6465 247.903 93.6636C247.252 93.9978 246.596 94.3138 245.933 94.6118L245.931 94.6111L245.15 73.4934L249.871 71.9228L250.088 71.8503L254.134 89.895Z" fill="#0153AD"/>
<path d="M237.272 52.38C239.169 45.9104 235.475 39.132 229.022 37.2401C222.569 35.3482 215.8 39.0592 213.904 45.5289C212.007 51.9985 215.7 58.7768 222.153 60.6687C228.606 62.5606 235.375 58.8496 237.272 52.38Z" fill="#FFB7B7"/>
<path d="M213.325 52.0151V47.2644C213.325 47.2644 209.494 42.7522 213.708 41.6156C213.708 41.6156 214.858 30.2494 224.819 35.5536C224.819 35.5536 238.611 33.2804 237.078 41.2368C237.078 41.2368 240.526 39.1596 239.377 44.4638L237.154 53.008C237.154 53.008 238.228 47.364 234.78 46.6062L232.864 45.4696C232.864 45.4696 227.5 50.7738 219.455 44.333C219.455 44.333 216.007 43.51 216.39 46.9199C216.773 50.3297 213.325 52.0151 213.325 52.0151Z" fill="#2F2E41"/>
<path d="M187.508 198.885C187.514 206.865 185.588 214.729 181.895 221.803C178.202 228.878 172.852 234.953 166.301 239.511C166.181 239.596 166.057 239.682 165.934 239.763C165.217 240.258 164.485 240.732 163.74 241.184C162.69 241.824 161.616 242.426 160.517 242.989C159.852 243.331 159.182 243.655 158.499 243.962C158.328 244.039 158.153 244.12 157.978 244.193C156.787 244.722 155.571 245.204 154.333 245.631C151.101 246.765 147.757 247.554 144.359 247.987C142.25 248.258 140.126 248.394 138 248.392C136.929 248.392 135.862 248.358 134.808 248.29C133.886 248.23 132.973 248.149 132.068 248.038C130.612 247.863 129.174 247.629 127.757 247.325C127.71 247.317 127.659 247.304 127.612 247.296C124.668 246.673 121.789 245.777 119.012 244.62C118.257 244.304 117.51 243.975 116.776 243.621C115.85 243.186 114.942 242.72 114.053 242.225C106.411 238.003 100.022 231.836 95.5323 224.348C91.043 216.86 88.6133 208.318 88.4898 199.589C88.3663 190.859 90.5533 182.252 94.8289 174.64C99.1046 167.029 105.317 160.683 112.836 156.246C120.355 151.81 128.914 149.44 137.644 149.378C146.374 149.316 154.966 151.564 162.547 155.893C170.129 160.222 176.431 166.479 180.815 174.029C185.198 181.579 187.507 190.154 187.508 198.885Z" fill="#F1F1F1"/>
<path d="M136.64 211.086C142.746 211.086 147.695 206.137 147.695 200.031C147.695 193.925 142.746 188.976 136.64 188.976C130.535 188.976 125.585 193.925 125.585 200.031C125.585 206.137 130.535 211.086 136.64 211.086Z" fill="#FFB8B8"/>
<path d="M132.068 248.038C130.613 247.863 129.174 247.629 127.757 247.326L129.102 217.075L129.294 216.874L132.046 213.968H140.8L144.031 217.096L144.304 217.365L151.214 223.984L154.334 245.631C151.101 246.765 147.758 247.554 144.359 247.987C142.251 248.258 140.127 248.394 138 248.392C136.929 248.392 135.862 248.358 134.808 248.29C133.886 248.23 132.973 248.149 132.068 248.038Z" fill="#CBCBCB"/>
<path d="M116.776 243.621C115.85 243.186 114.942 242.721 114.053 242.225C113.963 234.031 113.903 228.589 113.903 228.589L114.945 227.954C114.957 227.947 114.97 227.941 114.983 227.937L126.801 220.758L129.281 216.729L129.293 216.874L130.023 225.367C132.221 232.87 133.821 240.535 134.808 248.29C133.886 248.23 132.972 248.149 132.068 248.038C130.612 247.863 129.174 247.629 127.757 247.326C127.71 247.317 127.659 247.304 127.612 247.296C124.668 246.673 121.789 245.777 119.012 244.62C118.257 244.304 117.51 243.975 116.776 243.621Z" fill="#F0B518"/>
<path d="M154.333 245.631C151.101 246.765 147.757 247.555 144.359 247.987C143.888 245.232 143.715 242.435 143.843 239.643C144.765 224.906 142.639 216.729 143.561 216.729L144.03 217.096L149.831 221.68L157.466 224.48H157.47L162.724 226.404L163.65 226.746V227.185C163.654 228.705 163.663 234.023 163.74 241.184C162.69 241.824 161.616 242.426 160.517 242.989C159.852 243.331 159.182 243.655 158.499 243.963C158.328 244.039 158.153 244.12 157.978 244.193C156.787 244.722 155.571 245.204 154.333 245.631Z" fill="#F0B518"/>
<path d="M126.181 203.49C126.181 203.49 127.12 201.84 126.902 196.33C126.684 190.819 135.075 193.936 142.086 193.41C149.098 192.884 147.614 202.61 147.614 202.61C147.614 202.61 148.12 202.032 149.203 197.338C150.286 192.644 147.827 187.967 147.827 187.967C147.103 183.034 143.2 184.615 143.2 184.615C145.079 185.347 144.718 186.911 144.718 186.911C143.127 184.122 139.224 185.703 139.224 185.703C134.018 182.436 128.743 186.738 128.743 186.738C122.454 188.165 126.142 193.166 126.142 193.166C119.818 196.362 126.181 203.49 126.181 203.49Z" fill="#2F2E41"/>
<path d="M108.688 238.785C108.85 235.034 108.923 232.614 108.837 232.277C108.398 230.518 114.399 228.163 114.945 227.953C114.957 227.947 114.97 227.941 114.983 227.936L116.204 228.589L116.776 243.621C115.85 243.186 114.942 242.72 114.053 242.225C112.192 241.196 110.4 240.047 108.688 238.785Z" fill="#F0B518"/>
<path d="M163.74 241.184C162.69 241.824 161.616 242.426 160.517 242.989C159.852 243.331 159.182 243.655 158.499 243.962C158.328 244.039 158.153 244.12 157.978 244.193L156.058 225.23L157.18 224.411C157.18 224.411 157.283 224.437 157.466 224.479H157.47C158.371 224.701 161.136 225.435 162.724 226.404C163.079 226.605 163.393 226.87 163.65 227.185C163.807 227.373 163.885 227.615 163.868 227.859C163.817 228.355 164.67 233.049 165.934 239.763C165.217 240.258 164.485 240.732 163.74 241.184Z" fill="#F0B518"/>
<path d="M68.4399 208.971H50.0811V126.667H50.9346V208.117H68.4399V208.971Z" fill="#F1F1F1"/>
<path d="M225.922 208.971H207.563V208.117H225.069V125.903H225.922V208.971Z" fill="#F1F1F1"/>
<path d="M225.492 109.058C232 109.058 237.275 103.782 237.275 97.2748C237.275 90.7674 232 85.492 225.492 85.492C218.985 85.492 213.709 90.7674 213.709 97.2748C213.709 103.782 218.985 109.058 225.492 109.058Z" fill="#6C59E5" stroke="#F1F1F1"/>
<path d="M224.417 102.038L221.04 97.6955L223.004 96.168L224.603 98.2239L230.005 92.5219L231.811 94.2329L224.417 102.038Z" fill="white"/>
<path d="M50.5079 109.938C57.0154 109.938 62.2907 104.663 62.2907 98.1553C62.2907 91.6478 57.0154 86.3725 50.5079 86.3725C44.0004 86.3725 38.7251 91.6478 38.7251 98.1553C38.7251 104.663 44.0004 109.938 50.5079 109.938Z" fill="#6C59E5" stroke="#F1F1F1"/>
<path d="M49.4329 102.918L46.0557 98.576L48.0198 97.0485L49.6185 99.1044L55.0204 93.4024L56.8266 95.1134L49.4329 102.918Z" fill="white"/>
<path d="M138 260.169C144.508 260.169 149.783 254.893 149.783 248.386C149.783 241.878 144.508 236.603 138 236.603C131.493 236.603 126.217 241.878 126.217 248.386C126.217 254.893 131.493 260.169 138 260.169Z" fill="#6C59E5" stroke="#F1F1F1"/>
<path d="M136.925 253.149L133.548 248.806L135.512 247.279L137.111 249.335L142.513 243.633L144.319 245.344L136.925 253.149Z" fill="white"/>
</svg>
