<svg width="297" height="230" viewBox="0 0 297 230" fill="none" xmlns="http://www.w3.org/2000/svg">
<g clip-path="url(#clip0_313_1130)">
<path d="M227.359 209.237C236.093 209.237 243.173 194.79 243.173 176.969C243.173 159.149 236.093 144.702 227.359 144.702C218.625 144.702 211.545 159.149 211.545 176.969C211.545 194.79 218.625 209.237 227.359 209.237Z" fill="#00954A"/>
<path d="M225.899 229.786C232.232 191.784 225.962 153.92 225.898 153.543L224.666 153.751C224.73 154.127 230.964 191.792 224.666 229.581L225.899 229.786Z" fill="#CACACA"/>
<path d="M213.436 170.031L212.847 171.133L227.147 178.782L227.736 177.68L213.436 170.031Z" fill="#CACACA"/>
<path d="M242.24 173.862L227.941 181.516L228.531 182.618L242.829 174.964L242.24 173.862Z" fill="#CACACA"/>
<path d="M265.356 189.013C282.439 189.013 296.287 160.757 296.287 125.901C296.287 91.046 282.439 62.7902 265.356 62.7902C248.273 62.7902 234.425 91.046 234.425 125.901C234.425 160.757 248.273 189.013 265.356 189.013Z" fill="#00954A"/>
<path d="M261.91 229.106C274.282 154.878 262.035 80.9203 261.91 80.1819L260.678 80.3906C260.803 81.1272 273.014 154.886 260.678 228.901L261.91 229.106Z" fill="#CACACA"/>
<path d="M237.842 112.857L237.253 113.959L265.223 128.92L265.813 127.818L237.842 112.857Z" fill="#CACACA"/>
<path d="M294.742 120.352L266.776 135.32L267.366 136.422L295.332 121.453L294.742 120.352Z" fill="#CACACA"/>
<path d="M193.519 229.305H28.9967C28.3916 229.304 27.8115 229.064 27.3836 228.636C26.9557 228.208 26.7151 227.628 26.7144 227.023V123.064C26.715 122.458 26.9557 121.878 27.3836 121.45C27.8115 121.023 28.3916 120.782 28.9967 120.781H193.519C194.125 120.782 194.705 121.023 195.133 121.45C195.56 121.878 195.801 122.458 195.802 123.064V227.023C195.801 227.628 195.56 228.208 195.133 228.636C194.705 229.064 194.125 229.304 193.519 229.305Z" fill="#E4E4E4"/>
<path d="M44.1266 133.379C43.8673 133.379 43.6186 133.482 43.4352 133.666C43.2519 133.849 43.1487 134.098 43.1484 134.357V215.729C43.1487 215.989 43.2519 216.237 43.4352 216.421C43.6186 216.604 43.8673 216.707 44.1266 216.707H178.389C178.649 216.707 178.897 216.604 179.081 216.421C179.264 216.237 179.367 215.989 179.368 215.729V134.357C179.367 134.098 179.264 133.849 179.081 133.666C178.897 133.482 178.649 133.379 178.389 133.379H44.1266Z" fill="white"/>
<path d="M179.694 154.337V149.181H160.707V133.053H155.55V149.181H121.747V133.053H116.591V149.181H64.4536V133.053H59.2972V149.181H41.2686V154.337H59.2972V174.39H41.2686V179.546H59.2972V201.031H41.2686V206.188H87.0845V217.033H92.241V206.188H116.591V217.033H121.747V206.188H179.694V201.031H121.747V179.546H179.694V174.39H160.707V154.337H179.694ZM116.591 154.337V160.639H64.4536V154.337H116.591ZM64.4536 165.796H116.591V174.39H64.4536V165.796ZM64.4536 201.031V179.546H87.0845V201.031H64.4536ZM116.591 201.031H92.241V179.546H116.591V201.031ZM155.55 174.39H121.747V154.337H155.55V174.39Z" fill="#E6E6E6"/>
<path d="M119.169 184.209C122.808 184.209 125.758 181.259 125.758 177.62C125.758 173.981 122.808 171.031 119.169 171.031C115.53 171.031 112.58 173.981 112.58 177.62C112.58 181.259 115.53 184.209 119.169 184.209Z" fill="#6C59E5"/>
<path d="M296.871 229.863H0V229.151H297L296.871 229.863Z" fill="#CACACA"/>
<path d="M119.959 138.48C142.406 138.48 160.602 120.283 160.602 97.8363C160.602 75.3894 142.406 57.1926 119.959 57.1926C97.5117 57.1926 79.3149 75.3894 79.3149 97.8363C79.3149 120.283 97.5117 138.48 119.959 138.48Z" fill="#6C59E5"/>
<path d="M120.356 163.907L107.515 141.972L94.6748 120.038L120.091 119.885L145.507 119.732L132.931 141.819L120.356 163.907Z" fill="#6C59E5"/>
<path d="M120.284 112.163C128.338 112.163 134.867 105.634 134.867 97.5806C134.867 89.527 128.338 82.9983 120.284 82.9983C112.231 82.9983 105.702 89.527 105.702 97.5806C105.702 105.634 112.231 112.163 120.284 112.163Z" fill="white"/>
<path d="M119.018 0.208841C119.018 0.208841 110.321 -2.24099 107.749 9.64067C105.177 21.5223 106.81 20.0253 106.81 20.0253L126.225 17.7592C126.225 17.7592 132.063 3.82233 119.018 0.208841Z" fill="#2F2E41"/>
<path d="M106.37 52.334C106.37 52.334 93.2495 52.9414 95.5217 58.0916C95.6823 58.4557 95.8319 58.7968 95.9703 59.1149C97.5945 62.8453 99.464 66.464 101.567 69.9472L109.631 83.3086L112.565 81.6784L104.307 60.2123L111.73 59.6064L106.37 52.334Z" fill="#FFB6B6"/>
<path d="M140.965 57.7887L145.207 67.0288C145.207 67.0288 148.388 70.2099 151.872 82.934C155.356 95.6581 156.113 95.2037 156.113 95.2037L152.669 96.3506L138.542 70.6643L131.574 61.8786L133.694 57.1828L140.965 57.7887Z" fill="#FFB6B6"/>
<path d="M135.815 47.1853L141.91 58.529C141.91 58.529 155.728 85.6812 154.299 85.591C152.694 85.4896 148.185 87.3609 146.8 89.1775C146.132 90.0543 136.367 68.6365 132.937 63.8478L125.514 58.0917C125.514 58.0917 104.44 61.6387 104.414 60.4853C104.401 59.9203 111.391 73.4758 109.957 72.8751C108.323 72.1908 104.478 75.5206 102.784 74.8314C102.085 74.547 97.1439 62.5683 95.1439 57.6597C94.893 57.0469 94.88 56.3626 95.1073 55.7407C95.3347 55.1189 95.7861 54.6044 96.373 54.2979C97.8761 53.5162 118.76 48.7475 118.76 48.7475L118.395 46.8823L119.91 43.8528L135.815 47.1853Z" fill="#2F2E41"/>
<path d="M123.317 13.7456C123.84 10.525 121.652 7.49058 118.432 6.96797C115.211 6.44535 112.177 8.63247 111.654 11.853C111.132 15.0736 113.319 18.1081 116.539 18.6307C119.76 19.1533 122.794 16.9662 123.317 13.7456Z" fill="#FFB6B6"/>
<path d="M136.367 48.0955C136.693 49.0741 134.581 49.6362 131.636 49.0863C129.088 48.6107 126.299 48.0457 124.1 47.5882C121.744 47.0974 120.061 46.7309 120.061 46.7309C120.061 46.7309 119.455 50.5178 117.486 50.0634C115.79 49.6726 110.72 31.9633 109.349 27.0691C109.249 26.7117 109.268 26.3314 109.404 25.986C109.54 25.6407 109.785 25.3492 110.102 25.1559L117.065 20.9039C117.065 20.9039 121.864 19.2558 123.613 19.2089C125.363 19.1619 128.393 18.7075 128.393 18.7075C128.393 18.7075 131.877 19.0104 132.483 21.5856C133.088 24.1607 135.617 39.4288 135.664 43.0954C135.715 47.1173 135.389 45.161 136.367 48.0955Z" fill="#F0B518"/>
<path d="M119.695 5.21115C119.695 5.21115 117.245 11.7032 111.243 14.398L110.263 8.64091L119.695 5.21115Z" fill="#2F2E41"/>
<path d="M123.242 12.1182C123.702 12.1182 124.075 11.4061 124.075 10.5277C124.075 9.64929 123.702 8.93719 123.242 8.93719C122.782 8.93719 122.409 9.64929 122.409 10.5277C122.409 11.4061 122.782 12.1182 123.242 12.1182Z" fill="#FFB6B6"/>
<path d="M115.007 84.8234L103.296 90.2072L103.228 90.0591C102.672 88.8502 102.62 87.4701 103.081 86.2223C103.543 84.9746 104.482 83.9613 105.69 83.4054L105.691 83.4053L112.843 80.1171L115.007 84.8234Z" fill="#2F2E41"/>
<path d="M150.923 95.5794L158.107 92.3593C159.321 91.8152 160.702 91.7755 161.945 92.2491C163.188 92.7228 164.193 93.671 164.737 94.885L164.804 95.0338L153.042 100.306L150.923 95.5794Z" fill="#2F2E41"/>
<path opacity="0.2" d="M131.476 34.0753L130.104 49.1586L132.542 49.2737L131.476 34.0753Z" fill="black"/>
<path d="M121.917 62.253C122.207 61.9287 122.423 61.5445 122.549 61.1277C122.675 60.7109 122.709 60.2715 122.646 59.8405C122.584 59.4094 122.428 58.9973 122.19 58.6331C121.951 58.2688 121.635 57.9613 121.265 57.7323L115.996 31.1183L109.946 33.433L117.028 58.8658C116.684 59.5135 116.59 60.2647 116.763 60.9771C116.936 61.6895 117.365 62.3136 117.968 62.7311C118.57 63.1486 119.305 63.3306 120.033 63.2425C120.761 63.1544 121.431 62.8023 121.917 62.253Z" fill="#FFB6B6"/>
<path d="M117.33 35.6037L110.686 36.7738C110.497 36.8071 110.303 36.7992 110.117 36.7508C109.932 36.7024 109.759 36.6145 109.61 36.4931C109.461 36.3717 109.34 36.2198 109.256 36.0475C109.171 35.8752 109.125 35.6868 109.119 35.4949L108.936 28.7722C108.771 27.8041 108.997 26.8101 109.564 26.0081C110.13 25.2061 110.992 24.6617 111.96 24.4942C112.928 24.3267 113.922 24.5498 114.726 25.1145C115.529 25.6792 116.076 26.5396 116.246 27.5068L118.365 33.8664C118.426 34.0486 118.446 34.2416 118.426 34.4324C118.405 34.6232 118.343 34.8073 118.245 34.9722C118.147 35.137 118.014 35.2788 117.856 35.3878C117.698 35.4967 117.519 35.5704 117.33 35.6037Z" fill="#F0B518"/>
<path d="M127.01 61.7848C127.39 61.5708 127.717 61.2761 127.97 60.9217C128.223 60.5673 128.396 60.1617 128.475 59.7336C128.554 59.3054 128.539 58.865 128.43 58.4435C128.32 58.0219 128.12 57.6295 127.843 57.2937L131.386 30.3957L124.913 30.6481L123.465 57.0086C122.932 57.5119 122.602 58.1933 122.538 58.9236C122.474 59.654 122.679 60.3826 123.116 60.9713C123.553 61.56 124.191 61.968 124.909 62.1179C125.626 62.2679 126.374 62.1494 127.01 61.7848Z" fill="#FFB6B6"/>
<path d="M131.21 35.0717L124.542 34.0498C124.353 34.0207 124.171 33.9511 124.011 33.8456C123.851 33.7402 123.715 33.6014 123.613 33.4388C123.511 33.2762 123.445 33.0935 123.421 32.9032C123.396 32.7129 123.412 32.5194 123.468 32.336L125.45 25.9095C125.605 24.9396 126.137 24.0705 126.931 23.4927C127.725 22.9148 128.716 22.6755 129.686 22.8271C130.657 22.9787 131.527 23.509 132.107 24.3015C132.687 25.094 132.929 26.0842 132.78 27.0549L132.748 33.7583C132.747 33.9502 132.705 34.1397 132.624 34.3138C132.543 34.4879 132.426 34.6425 132.28 34.7671C132.134 34.8918 131.963 34.9835 131.778 35.0361C131.594 35.0886 131.4 35.1008 131.21 35.0717Z" fill="#F0B518"/>
</g>
<defs>
<clipPath id="clip0_313_1130">
<rect width="297" height="229.863" fill="white"/>
</clipPath>
</defs>
</svg>
