<svg width="44" height="43" viewBox="0 0 44 43" fill="none" xmlns="http://www.w3.org/2000/svg">
<path d="M7 26C9.7614 26 12 23.7614 12 21C12 23.7614 14.2386 26 17 26C19.7614 26 22 23.7614 22 21C22 23.7614 24.2386 26 27 26C29.7614 26 32 23.7614 32 21C32 23.7614 34.2386 26 37 26C39.7614 26 42 23.7614 42 21C42 32.0457 33.0457 41 22 41C10.9543 41 2 32.0457 2 21C2 23.7614 4.23858 26 7 26Z" fill="#6956E5" stroke="black" stroke-width="4" stroke-linecap="round" stroke-linejoin="round"/>
<path d="M17 2L27 12" stroke="black" stroke-width="4" stroke-linecap="round" stroke-linejoin="round"/>
<path d="M27 2L17 12" stroke="black" stroke-width="4" stroke-linecap="round" stroke-linejoin="round"/>
</svg>
