<svg width="88" height="88" viewBox="0 0 88 88" fill="none" xmlns="http://www.w3.org/2000/svg">
<rect width="88" height="88" rx="44" fill="#EFEDFF"/>
<path d="M38.6254 13.8335C43.2803 13.8332 47.8412 15.1434 51.7862 17.6142C55.7313 20.085 58.901 23.6165 60.9327 27.8046C62.9644 31.9927 63.7759 36.6682 63.2744 41.296C62.7729 45.9238 60.9787 50.317 58.097 53.9727L68.7487 64.6243C69.28 65.1744 69.574 65.9112 69.5673 66.6759C69.5607 67.4406 69.2539 68.1722 68.7132 68.713C68.1724 69.2537 67.4409 69.5605 66.6761 69.5671C65.9114 69.5738 65.1746 69.2798 64.6245 68.7485L53.9729 58.0968C50.8679 60.5438 47.2228 62.2128 43.3417 62.9645C39.4605 63.7162 35.4559 63.5289 31.6619 62.4182C27.8678 61.3074 24.3945 59.3055 21.5315 56.5794C18.6685 53.8532 16.499 50.482 15.2039 46.7469C13.9088 43.0117 13.5257 39.0211 14.0866 35.1078C14.6475 31.1945 16.1361 27.4721 18.4281 24.2511C20.7202 21.0301 23.7493 18.404 27.2628 16.5918C30.7762 14.7796 34.6721 13.8338 38.6254 13.8335ZM38.6254 19.6668C33.5973 19.6668 28.7752 21.6642 25.2198 25.2196C21.6644 28.775 19.667 33.5971 19.667 38.6252C19.667 43.6532 21.6644 48.4753 25.2198 52.0307C28.7752 55.5861 33.5973 57.5835 38.6254 57.5835C43.6534 57.5835 48.4756 55.5861 52.0309 52.0307C55.5863 48.4753 57.5837 43.6532 57.5837 38.6252C57.5837 33.5971 55.5863 28.775 52.0309 25.2196C48.4756 21.6642 43.6534 19.6668 38.6254 19.6668ZM38.6254 22.5835C42.8799 22.5835 46.9601 24.2736 49.9685 27.282C52.9769 30.2904 54.667 34.3706 54.667 38.6252C54.667 42.8797 52.9769 46.9599 49.9685 49.9683C46.9601 52.9767 42.8799 54.6668 38.6254 54.6668C34.3709 54.6668 30.2906 52.9767 27.2822 49.9683C24.2738 46.9599 22.5837 42.8797 22.5837 38.6252C22.5837 34.3706 24.2738 30.2904 27.2822 27.282C30.2906 24.2736 34.3709 22.5835 38.6254 22.5835Z" fill="#6956E5"/>
</svg>
