<svg width="491" height="328" viewBox="0 0 491 328" fill="none" xmlns="http://www.w3.org/2000/svg">
<g clip-path="url(#clip0_1181_2548)">
<path d="M40.6479 65.5395C54.6225 65.5395 65.9512 54.2109 65.9512 40.2363C65.9512 26.2617 54.6225 14.9331 40.6479 14.9331C26.6734 14.9331 15.3447 26.2617 15.3447 40.2363C15.3447 54.2109 26.6734 65.5395 40.6479 65.5395Z" fill="#E6E6E6"/>
<path d="M244.233 298.479C379.119 298.479 488.465 294.046 488.465 288.578C488.465 283.109 379.119 278.676 244.233 278.676C109.347 278.676 0 283.109 0 288.578C0 294.046 109.347 298.479 244.233 298.479Z" fill="#E6E6E6"/>
<path d="M257.5 298C304.168 298 342 293.747 342 288.5C342 283.253 304.168 279 257.5 279C210.832 279 173 283.253 173 288.5C173 293.747 210.832 298 257.5 298Z" fill="black" fill-opacity="0.1"/>
<path d="M62.1579 164.491C96.4867 164.491 124.316 136.662 124.316 102.333C124.316 68.0046 96.4867 40.1755 62.1579 40.1755C27.829 40.1755 0 68.0046 0 102.333C0 136.662 27.829 164.491 62.1579 164.491Z" fill="#6C59E5"/>
<path d="M68.1493 289.556H55.418L61.2218 92.9722L68.1493 289.556Z" fill="#3F3D56"/>
<path d="M62.345 130.23L76.0126 111.32L62.158 134.91L60.6602 132.289L62.345 130.23Z" fill="#3F3D56"/>
<path d="M60.8467 149.326L47.1797 130.417L61.0343 154.007L62.5321 151.386L60.8467 149.326Z" fill="#3F3D56"/>
<path d="M455.186 289.763H442.455L448.259 93.179L455.186 289.763Z" fill="#3F3D56"/>
<path d="M449.382 130.436L463.05 111.527L449.195 135.117L447.697 132.496L449.382 130.436Z" fill="#3F3D56"/>
<path d="M447.884 149.533L434.217 130.624L448.071 154.214L449.569 151.593L447.884 149.533Z" fill="#3F3D56"/>
<path d="M488.528 24.186C488.199 18.3711 485.815 12.8621 481.802 8.64101C477.79 4.41995 472.408 1.76128 466.617 1.13901C460.826 0.516739 455.003 1.97133 450.185 5.24342C445.367 8.51552 441.867 13.3924 440.31 19.0047C440.013 18.994 439.715 18.982 439.415 18.982C434.105 18.983 428.939 20.703 424.689 23.8848C420.438 27.0666 417.332 31.5391 415.835 36.6332C412.317 35.0873 408.385 34.7519 404.656 35.6795C400.927 36.6071 397.611 38.7454 395.227 41.7594H471.886C474.122 41.7657 476.337 41.3207 478.397 40.451C480.457 39.5813 482.321 38.3047 483.877 36.6978C485.432 35.0909 486.647 33.1866 487.449 31.099C488.251 29.0114 488.624 26.7835 488.545 24.5484C488.54 24.4278 488.534 24.307 488.528 24.186Z" fill="#E6E6E6"/>
<path d="M424.442 75.9075C428.087 75.9075 431.042 72.9522 431.042 69.3066C431.042 65.6611 428.087 62.7058 424.442 62.7058C420.796 62.7058 417.841 65.6611 417.841 69.3066C417.841 72.9522 420.796 75.9075 424.442 75.9075Z" fill="#E6E6E6"/>
<path d="M444.372 59.2399C447.408 59.2399 449.868 56.7792 449.868 53.7437C449.868 50.7083 447.408 48.2476 444.372 48.2476C441.337 48.2476 438.876 50.7083 438.876 53.7437C438.876 56.7792 441.337 59.2399 444.372 59.2399Z" fill="#E6E6E6"/>
<path d="M471.198 90.2092C474.843 90.2092 477.798 87.2539 477.798 83.6084C477.798 79.9629 474.843 77.0076 471.198 77.0076C467.552 77.0076 464.597 79.9629 464.597 83.6084C464.597 87.2539 467.552 90.2092 471.198 90.2092Z" fill="#E6E6E6"/>
<path d="M421.141 120.463C424.786 120.463 427.742 117.508 427.742 113.862C427.742 110.217 424.786 107.261 421.141 107.261C417.495 107.261 414.54 110.217 414.54 113.862C414.54 117.508 417.495 120.463 421.141 120.463Z" fill="#E6E6E6"/>
<path d="M471.198 158.418C474.843 158.418 477.798 155.463 477.798 151.817C477.798 148.172 474.843 145.216 471.198 145.216C467.552 145.216 464.597 148.172 464.597 151.817C464.597 155.463 467.552 158.418 471.198 158.418Z" fill="#E6E6E6"/>
<path d="M460.735 279.097C460.738 279.025 460.746 278.955 460.746 278.883C460.748 277.777 460.471 276.688 459.942 275.717C459.412 274.746 458.647 273.924 457.716 273.327C456.785 272.729 455.719 272.376 454.616 272.298C453.512 272.221 452.407 272.423 451.402 272.885C450.459 271.796 449.185 271.047 447.775 270.752C446.366 270.457 444.898 270.633 443.598 271.251C442.297 271.87 441.236 272.899 440.576 274.179C439.916 275.459 439.693 276.92 439.943 278.338C439.91 278.338 439.877 278.333 439.844 278.333C438.793 278.331 437.757 278.581 436.822 279.06C435.887 279.54 435.079 280.235 434.467 281.09C433.855 281.944 433.456 282.932 433.303 283.971C433.15 285.011 433.247 286.072 433.586 287.067C433.926 288.061 434.498 288.96 435.255 289.689C436.012 290.418 436.932 290.955 437.939 291.257C438.945 291.559 440.009 291.616 441.042 291.423C442.075 291.231 443.048 290.794 443.878 290.15C444.402 291.171 445.183 292.038 446.144 292.664C447.105 293.291 448.213 293.656 449.359 293.724C450.504 293.791 451.647 293.559 452.675 293.05C453.703 292.54 454.581 291.772 455.221 290.82C456.007 291.391 456.909 291.782 457.863 291.965C458.817 292.147 459.799 292.116 460.74 291.875C461.681 291.634 462.557 291.188 463.305 290.569C464.054 289.949 464.656 289.173 465.07 288.294C465.483 287.415 465.697 286.455 465.697 285.484C465.697 284.513 465.482 283.554 465.068 282.675C464.654 281.796 464.051 281.02 463.302 280.401C462.553 279.783 461.677 279.337 460.735 279.097Z" fill="#E6E6E6"/>
<path d="M477.248 128.164C478.767 128.164 479.999 126.933 479.999 125.414C479.999 123.895 478.767 122.663 477.248 122.663C475.729 122.663 474.498 123.895 474.498 125.414C474.498 126.933 475.729 128.164 477.248 128.164Z" fill="#E6E6E6"/>
<path d="M459.646 62.1557C461.165 62.1557 462.396 60.9244 462.396 59.4054C462.396 57.8864 461.165 56.655 459.646 56.655C458.127 56.655 456.896 57.8864 456.896 59.4054C456.896 60.9244 458.127 62.1557 459.646 62.1557Z" fill="#E6E6E6"/>
<path d="M450.294 130.364C451.813 130.364 453.045 129.133 453.045 127.614C453.045 126.095 451.813 124.864 450.294 124.864C448.775 124.864 447.544 126.095 447.544 127.614C447.544 129.133 448.775 130.364 450.294 130.364Z" fill="#E6E6E6"/>
<path d="M452.495 127.614C454.014 127.614 455.246 126.383 455.246 124.864C455.246 123.345 454.014 122.113 452.495 122.113C450.976 122.113 449.745 123.345 449.745 124.864C449.745 126.383 450.976 127.614 452.495 127.614Z" fill="#E6E6E6"/>
<path d="M454.145 124.863C455.664 124.863 456.895 123.632 456.895 122.113C456.895 120.594 455.664 119.363 454.145 119.363C452.626 119.363 451.395 120.594 451.395 122.113C451.395 123.632 452.626 124.863 454.145 124.863Z" fill="#E6E6E6"/>
<path d="M447.544 147.967C449.063 147.967 450.295 146.735 450.295 145.216C450.295 143.697 449.063 142.466 447.544 142.466C446.025 142.466 444.794 143.697 444.794 145.216C444.794 146.735 446.025 147.967 447.544 147.967Z" fill="#E6E6E6"/>
<path d="M488.249 178.77C489.768 178.77 491 177.539 491 176.02C491 174.501 489.768 173.27 488.249 173.27C486.73 173.27 485.499 174.501 485.499 176.02C485.499 177.539 486.73 178.77 488.249 178.77Z" fill="#E6E6E6"/>
<path d="M429.392 180.421C430.911 180.421 432.142 179.189 432.142 177.67C432.142 176.151 430.911 174.92 429.392 174.92C427.873 174.92 426.642 176.151 426.642 177.67C426.642 179.189 427.873 180.421 429.392 180.421Z" fill="#E6E6E6"/>
<path d="M432.693 95.7099C434.212 95.7099 435.443 94.4786 435.443 92.9596C435.443 91.4406 434.212 90.2092 432.693 90.2092C431.174 90.2092 429.942 91.4406 429.942 92.9596C429.942 94.4786 431.174 95.7099 432.693 95.7099Z" fill="#E6E6E6"/>
<path d="M445.344 145.216C446.863 145.216 448.094 143.985 448.094 142.466C448.094 140.947 446.863 139.716 445.344 139.716C443.825 139.716 442.594 140.947 442.594 142.466C442.594 143.985 443.825 145.216 445.344 145.216Z" fill="#E6E6E6"/>
<path d="M442.594 140.816C444.113 140.816 445.344 139.584 445.344 138.065C445.344 136.546 444.113 135.315 442.594 135.315C441.075 135.315 439.844 136.546 439.844 138.065C439.844 139.584 441.075 140.816 442.594 140.816Z" fill="#E6E6E6"/>
<path d="M256.817 270.368C300.576 270.368 336.05 234.894 336.05 191.135C336.05 147.376 300.576 111.903 256.817 111.903C213.059 111.903 177.585 147.376 177.585 191.135C177.585 234.894 213.059 270.368 256.817 270.368Z" fill="#E6E6E6"/>
<path d="M324.994 191.135C325.002 201.773 322.517 212.265 317.738 221.769C312.96 231.274 306.02 239.526 297.477 245.864C296.905 246.292 296.323 246.708 295.737 247.114C284.312 255.055 270.731 259.312 256.817 259.312C242.903 259.312 229.323 255.055 217.898 247.114C217.312 246.708 216.729 246.292 216.158 245.864C207.62 239.52 200.685 231.267 195.907 221.764C191.129 212.261 188.641 201.772 188.641 191.135C188.641 180.498 191.129 170.009 195.907 160.506C200.685 151.003 207.62 142.75 216.158 136.406C216.729 135.978 217.312 135.562 217.898 135.156C229.323 127.215 242.903 122.958 256.817 122.958C270.731 122.958 284.312 127.215 295.737 135.156C296.323 135.562 296.905 135.978 297.477 136.406C306.02 142.744 312.96 150.996 317.738 160.501C322.517 170.005 325.002 180.497 324.994 191.135Z" fill="white"/>
<path d="M256.818 253.416C291.214 253.416 319.098 225.532 319.098 191.135C319.098 156.739 291.214 128.855 256.818 128.855C222.421 128.855 194.537 156.739 194.537 191.135C194.537 225.532 222.421 253.416 256.818 253.416Z" fill="#6C59E5"/>
<path opacity="0.2" d="M256.98 129.029C256.036 129.029 255.098 129.054 254.164 129.095C269.905 130.478 284.531 137.793 295.08 149.558C305.629 161.323 311.312 176.658 310.977 192.456C310.641 208.254 304.313 223.334 293.274 234.641C282.236 245.947 267.312 252.635 251.526 253.349C253.324 253.505 255.142 253.59 256.98 253.59C273.498 253.59 289.339 247.028 301.019 235.348C312.699 223.668 319.26 207.827 319.26 191.309C319.26 174.791 312.699 158.95 301.019 147.27C289.339 135.59 273.498 129.029 256.98 129.029Z" fill="black"/>
<path d="M257.001 124.432C256.464 124.433 255.949 124.647 255.569 125.027C255.189 125.407 254.976 125.922 254.975 126.459V135.304C254.975 135.841 255.188 136.357 255.568 136.737C255.948 137.117 256.464 137.331 257.001 137.331C257.539 137.331 258.055 137.117 258.435 136.737C258.815 136.357 259.028 135.841 259.028 135.304V126.459C259.027 125.922 258.814 125.407 258.434 125.027C258.054 124.647 257.539 124.433 257.001 124.432Z" fill="white"/>
<path d="M297.476 136.406C296.905 135.978 296.323 135.562 295.737 135.156C295.385 135.133 295.033 135.203 294.717 135.357C294.4 135.512 294.129 135.746 293.931 136.037L288.952 143.345C288.65 143.789 288.536 144.335 288.636 144.863C288.736 145.391 289.042 145.858 289.486 146.16C289.931 146.463 290.477 146.577 291.005 146.476C291.533 146.376 291.999 146.07 292.302 145.626L297.281 138.318C297.47 138.041 297.587 137.721 297.621 137.387C297.655 137.053 297.605 136.715 297.476 136.406Z" fill="white"/>
<path d="M320.096 169.728C319.996 169.481 319.848 169.257 319.661 169.068C319.474 168.878 319.252 168.728 319.007 168.624C318.762 168.521 318.499 168.467 318.233 168.465C317.967 168.464 317.703 168.514 317.457 168.615L309.261 171.942C308.764 172.145 308.367 172.537 308.158 173.032C307.95 173.527 307.946 174.085 308.148 174.582C308.35 175.08 308.742 175.477 309.237 175.686C309.731 175.895 310.289 175.899 310.787 175.698L318.983 172.37C319.48 172.166 319.876 171.774 320.085 171.279C320.294 170.783 320.297 170.226 320.096 169.728Z" fill="white"/>
<path d="M224.682 143.345L219.703 136.037C219.505 135.746 219.234 135.512 218.917 135.357C218.6 135.203 218.249 135.133 217.897 135.156C217.311 135.562 216.729 135.978 216.158 136.406C216.028 136.715 215.978 137.053 216.012 137.387C216.046 137.721 216.164 138.041 216.353 138.318L221.332 145.626C221.634 146.07 222.101 146.376 222.629 146.476C223.157 146.577 223.703 146.463 224.147 146.16C224.592 145.858 224.897 145.391 224.998 144.863C225.098 144.335 224.984 143.789 224.682 143.345Z" fill="white"/>
<path d="M204.373 171.942L196.177 168.615C195.679 168.413 195.121 168.416 194.626 168.625C194.131 168.835 193.739 169.232 193.537 169.73C193.334 170.228 193.338 170.785 193.547 171.281C193.756 171.776 194.153 172.168 194.651 172.37L202.847 175.698C203.345 175.899 203.903 175.895 204.397 175.686C204.892 175.477 205.284 175.08 205.486 174.582C205.688 174.085 205.684 173.527 205.476 173.032C205.267 172.537 204.87 172.145 204.373 171.942Z" fill="white"/>
<path d="M257.001 244.939C256.464 244.94 255.949 245.154 255.569 245.534C255.189 245.914 254.976 246.429 254.975 246.966V255.811C254.975 256.348 255.188 256.864 255.568 257.244C255.948 257.624 256.464 257.838 257.001 257.838C257.539 257.838 258.055 257.624 258.435 257.244C258.815 256.864 259.028 256.348 259.028 255.811V246.966C259.027 246.429 258.814 245.914 258.434 245.534C258.054 245.154 257.539 244.94 257.001 244.939Z" fill="white"/>
<path d="M297.281 243.952L292.302 236.644C292.152 236.424 291.961 236.236 291.738 236.09C291.515 235.944 291.266 235.843 291.005 235.794C290.743 235.744 290.475 235.746 290.214 235.801C289.954 235.855 289.706 235.96 289.486 236.11C289.266 236.259 289.078 236.451 288.932 236.674C288.786 236.896 288.686 237.145 288.636 237.407C288.587 237.668 288.589 237.937 288.643 238.197C288.697 238.458 288.802 238.705 288.952 238.925L293.931 246.233C294.129 246.524 294.4 246.758 294.717 246.913C295.033 247.067 295.385 247.137 295.737 247.114C296.323 246.708 296.905 246.292 297.476 245.864C297.605 245.555 297.655 245.217 297.621 244.883C297.587 244.549 297.47 244.229 297.281 243.952Z" fill="white"/>
<path d="M318.983 209.9L310.787 206.572C310.289 206.37 309.731 206.374 309.236 206.583C308.741 206.792 308.349 207.189 308.147 207.687C307.945 208.185 307.949 208.743 308.158 209.238C308.367 209.733 308.764 210.125 309.262 210.328L317.457 213.655C317.955 213.857 318.513 213.853 319.008 213.644C319.503 213.435 319.894 213.038 320.096 212.54C320.298 212.042 320.295 211.485 320.086 210.99C319.877 210.495 319.481 210.103 318.983 209.9Z" fill="white"/>
<path d="M224.147 236.11C223.703 235.807 223.157 235.694 222.629 235.794C222.101 235.894 221.634 236.2 221.332 236.644L216.353 243.952C216.164 244.229 216.046 244.549 216.012 244.883C215.978 245.217 216.028 245.555 216.158 245.864C216.729 246.292 217.311 246.708 217.897 247.114C218.249 247.137 218.6 247.067 218.917 246.913C219.234 246.758 219.505 246.524 219.703 246.233L224.682 238.925C224.831 238.705 224.936 238.458 224.991 238.197C225.045 237.937 225.047 237.668 224.998 237.407C224.948 237.145 224.847 236.896 224.701 236.674C224.556 236.451 224.367 236.259 224.147 236.11Z" fill="white"/>
<path d="M205.485 207.685C205.385 207.439 205.238 207.215 205.051 207.025C204.864 206.836 204.642 206.686 204.397 206.582C204.152 206.479 203.889 206.425 203.623 206.423C203.357 206.421 203.093 206.472 202.847 206.572L194.651 209.9C194.153 210.103 193.757 210.495 193.548 210.99C193.339 211.485 193.336 212.042 193.538 212.54C193.74 213.038 194.131 213.435 194.626 213.644C195.121 213.853 195.679 213.857 196.176 213.655L204.372 210.328C204.87 210.124 205.266 209.732 205.475 209.236C205.683 208.741 205.687 208.184 205.485 207.685Z" fill="white"/>
<path d="M259.631 190.129C259.818 191.237 259.558 192.374 258.908 193.291C258.258 194.207 257.271 194.828 256.164 195.018L220.197 201.136C219.648 201.229 219.086 201.214 218.544 201.09C218.001 200.966 217.488 200.737 217.034 200.415C216.58 200.093 216.194 199.685 215.898 199.213C215.602 198.742 215.401 198.217 215.308 197.669C215.215 197.12 215.23 196.558 215.354 196.016C215.478 195.473 215.707 194.96 216.029 194.506C216.351 194.052 216.759 193.666 217.231 193.37C217.702 193.074 218.227 192.873 218.775 192.78L254.743 186.662C255.85 186.475 256.987 186.735 257.904 187.385C258.82 188.035 259.442 189.022 259.631 190.129Z" fill="#3F3D56"/>
<path d="M297.485 229.978C296.969 230.498 296.267 230.791 295.534 230.794C294.801 230.797 294.097 230.509 293.577 229.994L254.858 191.579C254.339 191.063 254.046 190.361 254.043 189.629C254.04 188.896 254.329 188.192 254.845 187.672C255.361 187.152 256.062 186.858 256.795 186.855C257.527 186.852 258.231 187.14 258.752 187.655L297.47 226.069C297.99 226.586 298.283 227.288 298.286 228.021C298.289 228.753 298.001 229.457 297.485 229.978Z" fill="#3F3D56"/>
<path d="M256.817 195.926C259.463 195.926 261.608 193.781 261.608 191.135C261.608 188.489 259.463 186.344 256.817 186.344C254.171 186.344 252.026 188.489 252.026 191.135C252.026 193.781 254.171 195.926 256.817 195.926Z" fill="#CCCCCC"/>
<path d="M223.818 108.062C216.464 119.624 205.244 127.296 191.407 132.337C191.133 132.542 190.822 132.691 190.491 132.775C190.16 132.86 189.816 132.878 189.478 132.83C189.139 132.781 188.814 132.667 188.52 132.492C188.227 132.318 187.97 132.088 187.765 131.814C180.249 121.778 181.946 107.435 191.866 99.7667C194.264 97.916 197.006 96.56 199.933 95.7777C202.86 94.9953 205.912 94.8021 208.914 95.2092C211.916 95.6164 214.807 96.6157 217.42 98.1494C220.032 99.683 222.314 101.72 224.133 104.143L224.341 104.421C224.546 104.694 224.695 105.005 224.779 105.336C224.864 105.667 224.882 106.011 224.834 106.35C224.785 106.688 224.671 107.013 224.496 107.307C224.322 107.601 224.092 107.857 223.818 108.062Z" fill="#E6E6E6"/>
<path d="M289.502 104.143C291.32 101.72 293.602 99.683 296.215 98.1494C298.827 96.6157 301.718 95.6164 304.72 95.2092C307.722 94.8021 310.775 94.9953 313.702 95.7777C316.628 96.56 319.37 97.916 321.769 99.7667C331.689 107.435 333.386 121.778 325.869 131.814C325.665 132.088 325.408 132.318 325.114 132.492C324.82 132.667 324.495 132.781 324.157 132.83C323.819 132.878 323.474 132.86 323.143 132.775C322.812 132.691 322.501 132.542 322.228 132.337C309.382 127.419 298.848 118.908 289.816 108.062C289.264 107.649 288.899 107.033 288.801 106.35C288.703 105.667 288.88 104.973 289.294 104.421L289.502 104.143Z" fill="#E6E6E6"/>
<path d="M286.278 259.779C285.81 260.042 285.465 260.481 285.319 260.998C285.173 261.515 285.237 262.069 285.499 262.538L297.197 283.441C297.459 283.91 297.897 284.256 298.415 284.402C298.932 284.548 299.486 284.482 299.955 284.22C300.424 283.958 300.77 283.52 300.916 283.002C301.062 282.485 300.997 281.931 300.734 281.462L289.037 260.558C288.773 260.09 288.335 259.745 287.818 259.599C287.301 259.453 286.747 259.518 286.278 259.779Z" fill="#E6E6E6"/>
<path d="M224.598 260.558L212.9 281.462C212.638 281.931 212.573 282.485 212.719 283.002C212.865 283.52 213.211 283.958 213.68 284.22C214.149 284.482 214.703 284.548 215.22 284.402C215.737 284.256 216.175 283.91 216.438 283.441L228.136 262.538C228.266 262.306 228.349 262.05 228.38 261.786C228.411 261.521 228.39 261.253 228.318 260.997C228.245 260.741 228.123 260.501 227.958 260.292C227.794 260.083 227.589 259.909 227.357 259.779C227.125 259.649 226.869 259.566 226.605 259.535C226.34 259.504 226.072 259.525 225.816 259.597C225.56 259.669 225.32 259.792 225.111 259.957C224.902 260.121 224.728 260.326 224.598 260.558Z" fill="#E6E6E6"/>
<path d="M299.566 288.794C303.026 288.794 305.831 285.989 305.831 282.529C305.831 279.069 303.026 276.264 299.566 276.264C296.106 276.264 293.301 279.069 293.301 282.529C293.301 285.989 296.106 288.794 299.566 288.794Z" fill="#E6E6E6"/>
<path d="M303.989 128.486C307.449 128.486 310.253 125.681 310.253 122.221C310.253 118.761 307.449 115.956 303.989 115.956C300.529 115.956 297.724 118.761 297.724 122.221C297.724 125.681 300.529 128.486 303.989 128.486Z" fill="#E6E6E6"/>
<path d="M256.448 113.745C259.908 113.745 262.713 110.94 262.713 107.48C262.713 104.02 259.908 101.216 256.448 101.216C252.988 101.216 250.184 104.02 250.184 107.48C250.184 110.94 252.988 113.745 256.448 113.745Z" fill="#E6E6E6"/>
<path d="M211.12 127.749C214.58 127.749 217.385 124.944 217.385 121.484C217.385 118.024 214.58 115.219 211.12 115.219C207.66 115.219 204.855 118.024 204.855 121.484C204.855 124.944 207.66 127.749 211.12 127.749Z" fill="#E6E6E6"/>
<path d="M215.174 288.794C218.634 288.794 221.439 285.989 221.439 282.529C221.439 279.069 218.634 276.264 215.174 276.264C211.714 276.264 208.909 279.069 208.909 282.529C208.909 285.989 211.714 288.794 215.174 288.794Z" fill="#E6E6E6"/>
</g>
<defs>
<clipPath id="clip0_1181_2548">
<rect width="491" height="328" fill="white"/>
</clipPath>
</defs>
</svg>
