<svg width="24" height="24" viewBox="0 0 24 24" fill="none" xmlns="http://www.w3.org/2000/svg">
<g clip-path="url(#clip0_205_167)">
<path d="M13 18.7333H11.0666C10.7333 18.7333 10.4666 18.5333 10.4 18.2L10.0666 17L9.79997 16.8667L8.7333 17.4667C8.46663 17.6 8.1333 17.6 7.9333 17.3333L6.5333 15.9333C6.3333 15.7333 6.26663 15.4 6.39997 15.1333L6.99997 14.0667L6.86663 13.8L5.66663 13.4667C5.39997 13.4 5.1333 13.1333 5.1333 12.8V10.8667C5.1333 10.5333 5.3333 10.2667 5.66663 10.2L6.86663 9.86668L6.99997 9.60002L6.39997 8.53335C6.26663 8.26668 6.26663 7.93335 6.5333 7.73335L7.9333 6.33335C8.1333 6.13335 8.46663 6.06668 8.7333 6.20002L9.79997 6.80002L10.0666 6.66668L10.4 5.46668C10.4666 5.20002 10.7333 4.93335 11.0666 4.93335H13C13.3333 4.93335 13.6 5.13335 13.6666 5.46668L14 6.66668L14.2666 6.80002L15.3333 6.20002C15.6 6.06668 15.9333 6.06668 16.1333 6.33335L17.5333 7.73335C17.7333 7.93335 17.8 8.26668 17.6666 8.53335L17.0666 9.60002L17.2 9.86668L18.4 10.2C18.6666 10.2667 18.9333 10.5333 18.9333 10.8667V12.8C18.9333 13.1333 18.7333 13.4 18.4 13.4667L17.2 13.8L17.0666 14.0667L17.6666 15.1333C17.8 15.4 17.8 15.7333 17.5333 15.9333L16.1333 17.3333C15.9333 17.5333 15.6 17.6 15.3333 17.4667L14.2666 16.8667L14 17L13.6666 18.2C13.5333 18.5333 13.2666 18.7333 13 18.7333ZM11.5333 17.4H12.4666L12.8 16L13.1333 15.8667C13.4 15.8 13.6 15.6667 13.8666 15.6L14.2 15.4L15.4666 16.1333L16.1333 15.4667L15.4 14.2L15.6 13.8667C15.7333 13.6667 15.8 13.4 15.8666 13.1333L16 12.8L17.4 12.4667V11.5333L16 11.2L15.8666 10.8667C15.8 10.6 15.6666 10.4 15.6 10.1333L15.4 9.80002L16.1333 8.53335L15.4666 7.86668L14.2 8.60002L13.8666 8.40002C13.6666 8.26668 13.4 8.20002 13.1333 8.13335L12.8 8.00002L12.4666 6.60002H11.5333L11.2 8.00002L10.8666 8.13335C10.6 8.20002 10.4 8.33335 10.1333 8.40002L9.79997 8.60002L8.5333 7.86668L7.86663 8.53335L8.59997 9.80002L8.39997 10.1333C8.26663 10.3333 8.19997 10.6 8.1333 10.8667L7.99997 11.2L6.59997 11.5333V12.4667L7.99997 12.8L8.1333 13.1333C8.19997 13.4 8.3333 13.6 8.39997 13.8667L8.59997 14.2L7.86663 15.4667L8.5333 16.1333L9.79997 15.4L10.1333 15.6C10.3333 15.7333 10.6 15.8 10.8666 15.8667L11.2 16L11.5333 17.4Z" fill="white"/>
<path d="M11.9999 1.33325C11.5999 1.33325 11.3333 1.59992 11.3333 1.99992C11.3333 2.39992 11.5999 2.66659 11.9999 2.66659C17.1333 2.66659 21.3333 6.86659 21.3333 11.9999C21.3333 17.1333 17.1333 21.3333 11.9999 21.3333C6.86659 21.3333 2.66659 17.1333 2.66659 11.9999C2.66659 10.1333 3.19992 8.33325 4.26659 6.79992V7.59992C4.26659 7.99992 4.53325 8.26659 4.93325 8.26659C5.33325 8.26659 5.59992 7.99992 5.59992 7.59992V4.26659H2.26659C1.86659 4.26659 1.59992 4.53325 1.59992 4.93325C1.59992 5.33325 1.86659 5.59992 2.26659 5.59992H3.46659C2.06659 7.39992 1.33325 9.66659 1.33325 11.9999C1.33325 17.8666 6.13325 22.6666 11.9999 22.6666C17.8666 22.6666 22.6666 17.8666 22.6666 11.9999C22.6666 6.13325 17.8666 1.33325 11.9999 1.33325Z" fill="white"/>
</g>
<defs>
<clipPath id="clip0_205_167">
<rect width="24" height="24" fill="white"/>
</clipPath>
</defs>
</svg>
