<svg width="338" height="119" viewBox="0 0 338 119" fill="none" xmlns="http://www.w3.org/2000/svg">
<g clip-path="url(#clip0_1181_2719)">
<path d="M183.632 94.9076H154.057C151.705 94.9049 149.449 93.9693 147.786 92.306C146.123 90.6427 145.187 88.3875 145.185 86.0352V30.65C145.187 28.2977 146.123 26.0425 147.786 24.3792C149.449 22.7159 151.705 21.7802 154.057 21.7776H183.632C185.984 21.7802 188.239 22.7159 189.902 24.3792C191.566 26.0425 192.501 28.2977 192.504 30.65V86.0352C192.501 88.3875 191.566 90.6427 189.902 92.306C188.239 93.9693 185.984 94.9049 183.632 94.9076Z" fill="#F2F2F2"/>
<path d="M319.944 0H17.7448C13.04 0.00461815 8.52922 1.87563 5.20243 5.20242C1.87564 8.52921 0.00461815 13.04 0 17.7448V100.554C0.00461815 105.259 1.87564 109.769 5.20243 113.096C8.52922 116.423 13.04 118.294 17.7448 118.299H319.944C324.649 118.294 329.159 116.423 332.486 113.096C335.813 109.769 337.684 105.259 337.689 100.554V17.7448C337.684 13.04 335.813 8.52921 332.486 5.20242C329.159 1.87563 324.649 0.00461815 319.944 0ZM336.613 100.554C336.608 104.973 334.849 109.21 331.725 112.335C328.6 115.459 324.363 117.217 319.944 117.223H17.7448C13.3255 117.217 9.0889 115.459 5.96401 112.335C2.83912 109.21 1.08108 104.973 1.07544 100.554V17.7448C1.08108 13.3255 2.83912 9.08889 5.96401 5.96401C9.0889 2.83912 13.3255 1.08108 17.7448 1.07544H319.944C324.363 1.08108 328.6 2.83912 331.725 5.96401C334.849 9.08889 336.608 13.3255 336.613 17.7448V100.554Z" fill="#3F3D56"/>
<path d="M47.7232 78.2383C46.4469 78.2383 45.1994 77.8599 44.1383 77.1508C43.0771 76.4418 42.2501 75.434 41.7617 74.255C41.2733 73.0759 41.1455 71.7785 41.3945 70.5268C41.6435 69.2751 42.258 68.1254 43.1605 67.2229C44.0629 66.3205 45.2126 65.706 46.4643 65.457C47.716 65.208 49.0134 65.3358 50.1925 65.8242C51.3716 66.3126 52.3793 67.1396 53.0883 68.2008C53.7974 69.2619 54.1758 70.5094 54.1758 71.7857C54.1739 73.4964 53.4934 75.1365 52.2837 76.3462C51.074 77.5559 49.4339 78.2363 47.7232 78.2383ZM47.7232 66.4084C46.6596 66.4084 45.62 66.7238 44.7357 67.3147C43.8515 67.9055 43.1623 68.7453 42.7553 69.7279C42.3483 70.7104 42.2418 71.7916 42.4493 72.8347C42.6568 73.8778 43.1689 74.8359 43.9209 75.5879C44.6729 76.3399 45.631 76.8521 46.6741 77.0595C47.7172 77.267 48.7984 77.1605 49.7809 76.7535C50.7635 76.3466 51.6033 75.6573 52.1941 74.7731C52.785 73.8888 53.1004 72.8492 53.1004 71.7857C53.0988 70.36 52.5317 68.9932 51.5236 67.9852C50.5156 66.9771 49.1488 66.4101 47.7232 66.4084Z" fill="#3F3D56"/>
<path d="M47.5114 63.7199C47.3687 63.7199 47.232 63.6633 47.1311 63.5624C47.0303 63.4616 46.9736 63.3248 46.9736 63.1822V56.9984C46.9736 56.8558 47.0303 56.719 47.1311 56.6182C47.232 56.5174 47.3687 56.4607 47.5114 56.4607C47.654 56.4607 47.7907 56.5174 47.8916 56.6182C47.9924 56.719 48.0491 56.8558 48.0491 56.9984V63.1822C48.0491 63.3248 47.9924 63.4616 47.8916 63.5624C47.7907 63.6633 47.654 63.7199 47.5114 63.7199Z" fill="#3F3D56"/>
<path d="M39.119 72.1118H32.9352C32.7926 72.1118 32.6558 72.0552 32.555 71.9543C32.4541 71.8535 32.3975 71.7167 32.3975 71.5741C32.3975 71.4315 32.4541 71.2947 32.555 71.1939C32.6558 71.093 32.7926 71.0364 32.9352 71.0364H39.119C39.2616 71.0364 39.3984 71.093 39.4992 71.1939C39.6 71.2947 39.6567 71.4315 39.6567 71.5741C39.6567 71.7167 39.6 71.8535 39.4992 71.9543C39.3984 72.0552 39.2616 72.1118 39.119 72.1118Z" fill="#3F3D56"/>
<path d="M61.703 72.1118H55.5192C55.3766 72.1118 55.2398 72.0552 55.1389 71.9543C55.0381 71.8535 54.9814 71.7167 54.9814 71.5741C54.9814 71.4315 55.0381 71.2947 55.1389 71.1939C55.2398 71.093 55.3766 71.0364 55.5192 71.0364H61.703C61.8456 71.0364 61.9823 71.093 62.0832 71.1939C62.184 71.2947 62.2407 71.4315 62.2407 71.5741C62.2407 71.7167 62.184 71.8535 62.0832 71.9543C61.9823 72.0552 61.8456 72.1118 61.703 72.1118Z" fill="#3F3D56"/>
<path d="M55.3502 66.2324C55.2432 66.2324 55.1386 66.2004 55.0498 66.1406C54.961 66.0808 54.8921 65.9959 54.8519 65.8967C54.8117 65.7975 54.802 65.6885 54.8241 65.5838C54.8461 65.479 54.899 65.3832 54.9758 65.3087L57.5654 62.7963C57.6678 62.697 57.8054 62.6424 57.948 62.6446C58.0906 62.6468 58.2265 62.7055 58.3258 62.8078C58.4251 62.9102 58.4797 63.0478 58.4775 63.1904C58.4753 63.333 58.4166 63.4689 58.3143 63.5682L55.7246 66.0806C55.6244 66.1781 55.49 66.2326 55.3502 66.2324Z" fill="#3F3D56"/>
<path d="M39.558 66.2324C39.4182 66.2326 39.2838 66.1781 39.1836 66.0806L36.594 63.5682C36.5433 63.519 36.5028 63.4604 36.4748 63.3955C36.4468 63.3307 36.4318 63.261 36.4307 63.1904C36.4297 63.1198 36.4425 63.0497 36.4685 62.984C36.4946 62.9184 36.5333 62.8585 36.5824 62.8078C36.6316 62.7572 36.6903 62.7166 36.7551 62.6886C36.8199 62.6606 36.8896 62.6457 36.9602 62.6446C37.0308 62.6435 37.101 62.6564 37.1666 62.6824C37.2322 62.7084 37.2921 62.7471 37.3428 62.7963L39.9324 65.3087C40.0093 65.3832 40.0621 65.479 40.0842 65.5838C40.1063 65.6885 40.0966 65.7975 40.0564 65.8967C40.0161 65.9959 39.9472 66.0808 39.8584 66.1406C39.7697 66.2004 39.6651 66.2324 39.558 66.2324Z" fill="#3F3D56"/>
<path d="M37.5064 80.9269C37.4007 80.9269 37.2974 80.8957 37.2094 80.8373C37.1213 80.7789 37.0524 80.6959 37.0112 80.5985C36.9701 80.5012 36.9585 80.3939 36.9779 80.2901C36.9974 80.1862 37.047 80.0904 37.1206 80.0145L39.7102 77.3477C39.8096 77.2454 39.9455 77.1867 40.0881 77.1846C40.2308 77.1825 40.3684 77.2372 40.4707 77.3366C40.573 77.4359 40.6317 77.5719 40.6338 77.7145C40.6359 77.8571 40.5812 77.9947 40.4819 78.0971L37.8922 80.7639C37.8421 80.8155 37.7822 80.8565 37.7159 80.8846C37.6496 80.9126 37.5784 80.927 37.5064 80.9269Z" fill="#3F3D56"/>
<path d="M58.4775 81.4647C58.4057 81.4648 58.3347 81.4505 58.2686 81.4226C58.2025 81.3948 58.1427 81.3539 58.0927 81.3024L54.9653 78.0979C54.916 78.0474 54.8772 77.9876 54.8509 77.9221C54.8247 77.8565 54.8117 77.7864 54.8125 77.7158C54.8134 77.6452 54.8282 77.5755 54.856 77.5106C54.8838 77.4457 54.9241 77.387 54.9747 77.3376C55.0252 77.2883 55.0849 77.2495 55.1505 77.2233C55.216 77.197 55.2861 77.184 55.3567 77.1849C55.4273 77.1857 55.497 77.2005 55.5619 77.2283C55.6268 77.2561 55.6856 77.2964 55.7349 77.347L58.8622 80.5515C58.9361 80.6272 58.9861 80.723 59.0058 80.827C59.0255 80.9309 59.0141 81.0383 58.973 81.1358C58.9319 81.2333 58.863 81.3165 58.7749 81.375C58.6867 81.4335 58.5832 81.4647 58.4775 81.4647Z" fill="#3F3D56"/>
<path d="M47.5114 86.842C47.3687 86.842 47.232 86.7853 47.1311 86.6845C47.0303 86.5836 46.9736 86.4469 46.9736 86.3043V80.1205C46.9736 79.9779 47.0303 79.8411 47.1311 79.7403C47.232 79.6394 47.3687 79.5828 47.5114 79.5828C47.654 79.5828 47.7907 79.6394 47.8916 79.7403C47.9924 79.8411 48.0491 79.9779 48.0491 80.1205V86.3043C48.0491 86.4469 47.9924 86.5836 47.8916 86.6845C47.7907 86.7853 47.654 86.842 47.5114 86.842Z" fill="#3F3D56"/>
<path d="M117.849 82.0024H99.8985C98.065 81.9713 96.3171 81.2212 95.0315 79.9136C93.7458 78.6061 93.0254 76.8457 93.0254 75.012C93.0254 73.1782 93.7458 71.4179 95.0315 70.1103C96.3171 68.8027 98.065 68.0526 99.8985 68.0216H101.271C101.952 66.5795 103.028 65.3596 104.373 64.5032C105.718 63.6467 107.279 63.1887 108.874 63.1821C111.042 63.202 113.122 64.0469 114.69 65.5452C116.257 67.0434 117.196 69.0825 117.314 71.2479H117.849C119.259 71.2712 120.604 71.848 121.594 72.8538C122.583 73.8597 123.138 75.2142 123.138 76.6251C123.138 78.0361 122.583 79.3906 121.594 80.3964C120.604 81.4023 119.259 81.9791 117.849 82.0024ZM99.8985 69.0971C98.3503 69.1281 96.876 69.7649 95.792 70.8708C94.7081 71.9767 94.101 73.4635 94.101 75.012C94.101 76.5605 94.7081 78.0473 95.792 79.1532C96.876 80.2591 98.3503 80.8959 99.8985 80.9269H117.849C118.974 80.9036 120.046 80.4402 120.833 79.636C121.621 78.8318 122.062 77.7509 122.062 76.6251C122.062 75.4994 121.621 74.4185 120.833 73.6143C120.046 72.8101 118.974 72.3467 117.849 72.3234H116.793C116.65 72.3234 116.513 72.2667 116.412 72.1659C116.312 72.065 116.255 71.9283 116.255 71.7857C116.272 69.8092 115.504 67.9068 114.121 66.4955C112.737 65.0842 110.85 64.2794 108.874 64.2576C107.428 64.2652 106.017 64.6971 104.815 65.4995C103.613 66.3019 102.673 67.4397 102.112 68.7715C102.07 68.8681 102.001 68.9505 101.914 69.0083C101.826 69.0662 101.723 69.097 101.618 69.0971H99.8985Z" fill="#3F3D56"/>
<path d="M177.809 71.8162L177.39 70.8258C178.203 70.482 178.92 69.9431 179.476 69.2568C180.031 68.5705 180.41 67.7579 180.577 66.8907C180.744 66.0235 180.695 65.1285 180.435 64.2847C180.174 63.4409 179.71 62.6742 179.083 62.0524C178.455 61.4307 177.685 60.9729 176.839 60.7196C175.993 60.4663 175.097 60.4252 174.231 60.6001C173.366 60.7749 172.556 61.1602 171.875 61.7219C171.194 62.2837 170.661 63.0046 170.324 63.821L169.33 63.4109C169.734 62.4313 170.373 61.5662 171.191 60.8921C172.009 60.218 172.98 59.7557 174.019 59.5459C175.057 59.3361 176.132 59.3854 177.147 59.6893C178.162 59.9933 179.087 60.5425 179.84 61.2886C180.592 62.0346 181.149 62.9546 181.462 63.9671C181.775 64.9796 181.834 66.0536 181.633 67.0941C181.432 68.1347 180.978 69.1098 180.312 69.9334C179.645 70.7569 178.785 71.4036 177.809 71.8162Z" fill="#3F3D56"/>
<path d="M178.611 82.0024H160.661C158.828 81.9713 157.08 81.2212 155.794 79.9136C154.509 78.6061 153.788 76.8457 153.788 75.012C153.788 73.1782 154.509 71.4179 155.794 70.1103C157.08 68.8027 158.828 68.0526 160.661 68.0216H162.034C162.715 66.5795 163.79 65.3596 165.136 64.5032C166.481 63.6467 168.041 63.1887 169.636 63.1821C171.805 63.202 173.884 64.0469 175.452 65.5452C177.02 67.0434 177.959 69.0825 178.077 71.2479H178.611C180.022 71.2712 181.367 71.848 182.357 72.8538C183.346 73.8597 183.901 75.2142 183.901 76.6251C183.901 78.0361 183.346 79.3906 182.357 80.3964C181.367 81.4023 180.022 81.9791 178.611 82.0024ZM160.661 69.0971C159.113 69.1281 157.639 69.7649 156.555 70.8708C155.471 71.9767 154.864 73.4635 154.864 75.012C154.864 76.5605 155.471 78.0473 156.555 79.1532C157.639 80.2591 159.113 80.8959 160.661 80.9269H178.611C179.737 80.9036 180.808 80.4402 181.596 79.636C182.384 78.8318 182.825 77.7509 182.825 76.6251C182.825 75.4994 182.384 74.4185 181.596 73.6143C180.808 72.8101 179.737 72.3467 178.611 72.3234H177.555C177.413 72.3234 177.276 72.2667 177.175 72.1659C177.074 72.065 177.018 71.9283 177.018 71.7857C177.035 69.8092 176.267 67.9068 174.883 66.4955C173.5 65.0842 171.613 64.2794 169.636 64.2576C168.191 64.2652 166.78 64.6971 165.578 65.4995C164.376 66.3019 163.436 67.4397 162.875 68.7715C162.833 68.8681 162.764 68.9505 162.676 69.0083C162.588 69.0662 162.486 69.097 162.38 69.0971H160.661Z" fill="#3F3D56"/>
<path d="M239.374 79.3139H237.216C237.073 79.3139 236.936 79.2572 236.835 79.1564C236.735 79.0555 236.678 78.9188 236.678 78.7762C236.678 78.6335 236.735 78.4968 236.835 78.3959C236.936 78.2951 237.073 78.2384 237.216 78.2384H239.374C240.499 78.2152 241.571 77.7517 242.359 76.9475C243.147 76.1433 243.588 75.0624 243.588 73.9367C243.588 72.8109 243.147 71.73 242.359 70.9258C241.571 70.1216 240.499 69.6582 239.374 69.6349H238.318C238.175 69.6349 238.039 69.5782 237.938 69.4774C237.837 69.3766 237.78 69.2398 237.78 69.0972C237.797 67.1208 237.03 65.2183 235.646 63.807C234.262 62.3958 232.375 61.5909 230.399 61.5691C228.954 61.5768 227.543 62.0086 226.34 62.811C225.138 63.6135 224.199 64.7512 223.637 66.083C223.596 66.1796 223.527 66.262 223.439 66.3199C223.351 66.3777 223.248 66.4086 223.143 66.4086H221.424C219.876 66.4396 218.401 67.0764 217.317 68.1823C216.233 69.2882 215.626 70.775 215.626 72.3235C215.626 73.872 216.233 75.3588 217.317 76.4647C218.401 77.5706 219.876 78.2074 221.424 78.2384H223.091C223.233 78.2384 223.37 78.2951 223.471 78.3959C223.572 78.4968 223.629 78.6335 223.629 78.7762C223.629 78.9188 223.572 79.0555 223.471 79.1564C223.37 79.2572 223.233 79.3139 223.091 79.3139H221.424C219.59 79.2829 217.843 78.5327 216.557 77.2252C215.271 75.9176 214.551 74.1573 214.551 72.3235C214.551 70.4898 215.271 68.7294 216.557 67.4218C217.843 66.1143 219.59 65.3642 221.424 65.3331H222.797C223.478 63.891 224.553 62.6711 225.898 61.8147C227.244 60.9583 228.804 60.5003 230.399 60.4937C232.567 60.5135 234.647 61.3585 236.215 62.8567C237.783 64.355 238.721 66.3941 238.84 68.5595H239.374C240.785 68.5827 242.13 69.1595 243.119 70.1654C244.109 71.1713 244.663 72.5257 244.663 73.9367C244.663 75.3476 244.109 76.7021 243.119 77.708C242.13 78.7139 240.785 79.2906 239.374 79.3139Z" fill="#3F3D56"/>
<path d="M230.309 81.635C230.167 81.635 230.03 81.5783 229.929 81.4775C229.828 81.3766 229.771 81.2399 229.771 81.0972V74.9135C229.771 74.7708 229.828 74.6341 229.929 74.5332C230.03 74.4324 230.167 74.3757 230.309 74.3757C230.452 74.3757 230.589 74.4324 230.689 74.5332C230.79 74.6341 230.847 74.7708 230.847 74.9135V81.0972C230.847 81.2399 230.79 81.3766 230.689 81.4775C230.589 81.5783 230.452 81.635 230.309 81.635Z" fill="#3F3D56"/>
<path d="M226.546 84.8613C226.403 84.8613 226.266 84.8046 226.165 84.7038C226.064 84.6029 226.008 84.4662 226.008 84.3236V78.1398C226.008 77.9972 226.064 77.8604 226.165 77.7595C226.266 77.6587 226.403 77.6021 226.546 77.6021C226.688 77.6021 226.825 77.6587 226.926 77.7595C227.027 77.8604 227.083 77.9972 227.083 78.1398V84.3236C227.083 84.4662 227.027 84.6029 226.926 84.7038C226.825 84.8046 226.688 84.8613 226.546 84.8613Z" fill="#3F3D56"/>
<path d="M234.074 86.4746C233.931 86.4746 233.794 86.4179 233.694 86.3171C233.593 86.2162 233.536 86.0795 233.536 85.9368V79.7531C233.536 79.6104 233.593 79.4737 233.694 79.3728C233.794 79.272 233.931 79.2153 234.074 79.2153C234.216 79.2153 234.353 79.272 234.454 79.3728C234.555 79.4737 234.612 79.6104 234.612 79.7531V85.9368C234.612 86.0795 234.555 86.2162 234.454 86.3171C234.353 86.4179 234.216 86.4746 234.074 86.4746Z" fill="#3F3D56"/>
<path d="M300.136 79.3139H297.977C297.835 79.3139 297.698 79.2572 297.597 79.1564C297.496 79.0555 297.44 78.9188 297.44 78.7762C297.44 78.6335 297.496 78.4968 297.597 78.3959C297.698 78.2951 297.835 78.2384 297.977 78.2384H300.136C301.261 78.2152 302.333 77.7517 303.121 76.9475C303.908 76.1433 304.349 75.0624 304.349 73.9367C304.349 72.8109 303.908 71.73 303.121 70.9258C302.333 70.1216 301.261 69.6582 300.136 69.6349H299.08C298.937 69.6349 298.8 69.5782 298.7 69.4774C298.599 69.3766 298.542 69.2398 298.542 69.0972C298.559 67.1208 297.792 65.2183 296.408 63.807C295.024 62.3958 293.137 61.5909 291.161 61.5691C289.715 61.5768 288.304 62.0086 287.102 62.811C285.9 63.6135 284.96 64.7512 284.399 66.083C284.357 66.1796 284.289 66.262 284.201 66.3199C284.113 66.3777 284.01 66.4086 283.905 66.4086H282.186C280.637 66.4396 279.163 67.0764 278.079 68.1823C276.995 69.2882 276.388 70.775 276.388 72.3235C276.388 73.872 276.995 75.3588 278.079 76.4647C279.163 77.5706 280.637 78.2074 282.186 78.2384H283.853C283.995 78.2384 284.132 78.2951 284.233 78.3959C284.334 78.4968 284.39 78.6335 284.39 78.7762C284.39 78.9188 284.334 79.0555 284.233 79.1564C284.132 79.2572 283.995 79.3139 283.853 79.3139H282.186C280.352 79.2829 278.604 78.5327 277.319 77.2252C276.033 75.9176 275.313 74.1573 275.312 72.3235C275.313 70.4898 276.033 68.7294 277.319 67.4218C278.604 66.1143 280.352 65.3642 282.186 65.3331H283.558C284.239 63.891 285.315 62.6711 286.66 61.8147C288.005 60.9583 289.566 60.5003 291.161 60.4937C293.329 60.5135 295.409 61.3585 296.977 62.8567C298.545 64.355 299.483 66.3941 299.601 68.5595H300.136C301.546 68.5827 302.892 69.1595 303.881 70.1654C304.87 71.1713 305.425 72.5257 305.425 73.9367C305.425 75.3476 304.87 76.7021 303.881 77.708C302.892 78.7139 301.546 79.2906 300.136 79.3139Z" fill="#3F3D56"/>
<path d="M290.234 77.9695C290.902 77.9695 291.444 77.4279 291.444 76.7597C291.444 76.0915 290.902 75.5498 290.234 75.5498C289.566 75.5498 289.024 76.0915 289.024 76.7597C289.024 77.4279 289.566 77.9695 290.234 77.9695Z" fill="#3F3D56"/>
<path d="M294.267 79.5826C294.936 79.5826 295.477 79.0409 295.477 78.3727C295.477 77.7045 294.936 77.1628 294.267 77.1628C293.599 77.1628 293.058 77.7045 293.058 78.3727C293.058 79.0409 293.599 79.5826 294.267 79.5826Z" fill="#3F3D56"/>
<path d="M287.546 81.4647C288.214 81.4647 288.756 80.923 288.756 80.2548C288.756 79.5866 288.214 79.0449 287.546 79.0449C286.878 79.0449 286.336 79.5866 286.336 80.2548C286.336 80.923 286.878 81.4647 287.546 81.4647Z" fill="#3F3D56"/>
<path d="M291.848 84.1534C292.516 84.1534 293.057 83.6117 293.057 82.9435C293.057 82.2753 292.516 81.7336 291.848 81.7336C291.179 81.7336 290.638 82.2753 290.638 82.9435C290.638 83.6117 291.179 84.1534 291.848 84.1534Z" fill="#3F3D56"/>
<path d="M62.9134 38.447H31.7256C30.5847 38.447 29.4905 37.9938 28.6838 37.1871C27.8771 36.3803 27.4238 35.2862 27.4238 34.1453C27.4238 33.0044 27.8771 31.9102 28.6838 31.1035C29.4905 30.2967 30.5847 29.8435 31.7256 29.8435H62.9134C64.0543 29.8435 65.1485 30.2967 65.9552 31.1035C66.7619 31.9102 67.2152 33.0044 67.2152 34.1453C67.2152 35.2862 66.7619 36.3803 65.9552 37.1871C65.1485 37.9938 64.0543 38.447 62.9134 38.447Z" fill="#00954A"/>
<path d="M123.676 38.447H92.4883C91.3474 38.447 90.2532 37.9938 89.4465 37.1871C88.6397 36.3803 88.1865 35.2862 88.1865 34.1453C88.1865 33.0044 88.6397 31.9102 89.4465 31.1035C90.2532 30.2967 91.3474 29.8435 92.4883 29.8435H123.676C124.817 29.8435 125.911 30.2967 126.718 31.1035C127.525 31.9102 127.978 33.0044 127.978 34.1453C127.978 35.2862 127.525 36.3803 126.718 37.1871C125.911 37.9938 124.817 38.447 123.676 38.447Z" fill="#0153AD"/>
<path d="M184.438 38.447H153.25C152.109 38.447 151.015 37.9938 150.208 37.1871C149.401 36.3803 148.948 35.2862 148.948 34.1453C148.948 33.0044 149.401 31.9102 150.208 31.1035C151.015 30.2967 152.109 29.8435 153.25 29.8435H184.438C185.579 29.8435 186.673 30.2967 187.48 31.1035C188.286 31.9102 188.74 33.0044 188.74 34.1453C188.74 35.2862 188.286 36.3803 187.48 37.1871C186.673 37.9938 185.579 38.447 184.438 38.447Z" fill="#F0B518"/>
<path d="M245.201 38.447H214.013C212.872 38.447 211.778 37.9938 210.971 37.1871C210.164 36.3803 209.711 35.2862 209.711 34.1453C209.711 33.0044 210.164 31.9102 210.971 31.1035C211.778 30.2967 212.872 29.8435 214.013 29.8435H245.201C246.341 29.8435 247.436 30.2967 248.242 31.1035C249.049 31.9102 249.502 33.0044 249.502 34.1453C249.502 35.2862 249.049 36.3803 248.242 37.1871C247.436 37.9938 246.341 38.447 245.201 38.447Z" fill="#0153AD"/>
<path d="M305.963 38.447H274.775C273.634 38.447 272.54 37.9938 271.734 37.1871C270.927 36.3803 270.474 35.2862 270.474 34.1453C270.474 33.0044 270.927 31.9102 271.734 31.1035C272.54 30.2967 273.634 29.8435 274.775 29.8435H305.963C307.104 29.8435 308.198 30.2967 309.005 31.1035C309.812 31.9102 310.265 33.0044 310.265 34.1453C310.265 35.2862 309.812 36.3803 309.005 37.1871C308.198 37.9938 307.104 38.447 305.963 38.447Z" fill="#00954A"/>
<path d="M76.3561 88.9928C76.2135 88.9928 76.0767 88.9361 75.9758 88.8353C75.875 88.7344 75.8184 88.5977 75.8184 88.455V47.5883C75.8184 47.4456 75.875 47.3089 75.9758 47.208C76.0767 47.1072 76.2135 47.0505 76.3561 47.0505C76.4987 47.0505 76.6355 47.1072 76.7363 47.208C76.8371 47.3089 76.8938 47.4456 76.8938 47.5883V88.455C76.8938 88.5977 76.8371 88.7344 76.7363 88.8353C76.6355 88.9361 76.4987 88.9928 76.3561 88.9928Z" fill="#E6E6E6"/>
<path d="M137.119 88.4552C136.976 88.4552 136.839 88.3985 136.739 88.2977C136.638 88.1968 136.581 88.0601 136.581 87.9174V47.0507C136.581 46.908 136.638 46.7713 136.739 46.6704C136.839 46.5696 136.976 46.5129 137.119 46.5129C137.261 46.5129 137.398 46.5696 137.499 46.6704C137.6 46.7713 137.656 46.908 137.656 47.0507V87.9174C137.656 88.0601 137.6 88.1968 137.499 88.2977C137.398 88.3985 137.261 88.4552 137.119 88.4552Z" fill="#E6E6E6"/>
<path d="M201.108 88.4552C200.965 88.4552 200.829 88.3985 200.728 88.2977C200.627 88.1968 200.57 88.0601 200.57 87.9174V47.0507C200.57 46.908 200.627 46.7713 200.728 46.6704C200.829 46.5696 200.965 46.5129 201.108 46.5129C201.251 46.5129 201.387 46.5696 201.488 46.6704C201.589 46.7713 201.646 46.908 201.646 47.0507V87.9174C201.646 88.0601 201.589 88.1968 201.488 88.2977C201.387 88.3985 201.251 88.4552 201.108 88.4552Z" fill="#E6E6E6"/>
<path d="M261.87 88.4552C261.727 88.4552 261.59 88.3985 261.49 88.2977C261.389 88.1968 261.332 88.0601 261.332 87.9174V47.0507C261.332 46.908 261.389 46.7713 261.49 46.6704C261.59 46.5696 261.727 46.5129 261.87 46.5129C262.012 46.5129 262.149 46.5696 262.25 46.6704C262.351 46.7713 262.407 46.908 262.407 47.0507V87.9174C262.407 88.0601 262.351 88.1968 262.25 88.2977C262.149 88.3985 262.012 88.4552 261.87 88.4552Z" fill="#E6E6E6"/>
</g>
<defs>
<clipPath id="clip0_1181_2719">
<rect width="338" height="119" fill="white"/>
</clipPath>
</defs>
</svg>
